<svg width="36" height="36" viewBox="0 0 36 36" fill="none" xmlns="http://www.w3.org/2000/svg">
<circle cx="28.4293" cy="9.21443" r="6.21443" fill="#39C270"/>
<path d="M27.7188 7.09279C27.7188 6.70284 28.0349 6.38672 28.4248 6.38672C28.8148 6.38672 29.1309 6.70284 29.1309 7.09279V11.3292C29.1309 11.7191 28.8148 12.0353 28.4248 12.0353C28.0349 12.0353 27.7188 11.7191 27.7188 11.3292V7.09279Z" fill="white"/>
<path d="M26.3076 9.91797C25.9177 9.91797 25.6016 9.60185 25.6016 9.2119C25.6016 8.82195 25.9177 8.50584 26.3076 8.50584H30.544C30.934 8.50584 31.2501 8.82195 31.2501 9.2119C31.2501 9.60185 30.934 9.91797 30.544 9.91797H26.3076Z" fill="white"/>
<path d="M21.4297 18.2383C21.4297 16.9122 20.9029 15.6404 19.9652 14.7027C19.0275 13.7651 17.7558 13.2383 16.4297 13.2383C15.1036 13.2383 13.8318 13.7651 12.8942 14.7027C11.9565 15.6404 11.4297 16.9122 11.4297 18.2383C11.4297 24.0716 8.92969 25.7383 8.92969 25.7383H23.9297C23.9297 25.7383 21.4297 24.0716 21.4297 18.2383Z" fill="url(#paint0_linear_923_15997)" stroke="url(#paint1_linear_923_15997)" stroke-width="2" stroke-linecap="round" stroke-linejoin="round"/>
<path d="M17.8677 29.0723C17.7212 29.3248 17.5109 29.5345 17.2579 29.6802C17.0049 29.8259 16.718 29.9026 16.426 29.9026C16.1341 29.9026 15.8472 29.8259 15.5942 29.6802C15.3412 29.5345 15.1309 29.3248 14.9844 29.0723" stroke="url(#paint2_linear_923_15997)" stroke-width="2" stroke-linecap="round" stroke-linejoin="round"/>
<defs>
<linearGradient id="paint0_linear_923_15997" x1="16.4297" y1="13.2383" x2="16.4297" y2="25.7383" gradientUnits="userSpaceOnUse">
<stop stop-color="#39C270"/>
<stop offset="1" stop-color="#94E8B5"/>
</linearGradient>
<linearGradient id="paint1_linear_923_15997" x1="16.4297" y1="13.2383" x2="16.4297" y2="25.7383" gradientUnits="userSpaceOnUse">
<stop stop-color="#39C270"/>
<stop offset="1" stop-color="#94E8B5"/>
</linearGradient>
<linearGradient id="paint2_linear_923_15997" x1="16.426" y1="29.0723" x2="16.426" y2="29.9026" gradientUnits="userSpaceOnUse">
<stop stop-color="#39C270"/>
<stop offset="1" stop-color="#94E8B5"/>
</linearGradient>
</defs>
</svg>
