<svg width="8" height="13" viewBox="0 0 8 13" fill="none" xmlns="http://www.w3.org/2000/svg">
<path d="M7.4873 6.41699C7.4873 6.68359 7.39209 6.91211 7.16992 7.12158L2.30127 11.8823C2.13623 12.0537 1.92676 12.1362 1.68555 12.1362C1.19678 12.1362 0.796875 11.7427 0.796875 11.2539C0.796875 11.0063 0.898438 10.7842 1.07617 10.6128L5.39258 6.41064L1.07617 2.22119C0.898438 2.04346 0.796875 1.82129 0.796875 1.58008C0.796875 1.09131 1.19678 0.697754 1.68555 0.697754C1.93311 0.697754 2.13623 0.780273 2.30127 0.95166L7.16992 5.7124C7.39209 5.92188 7.4873 6.14404 7.4873 6.41699Z" fill="black"/>
</svg>
