<svg width="29" height="29" viewBox="0 0 29 29" fill="none" xmlns="http://www.w3.org/2000/svg">
<path d="M7.16406 20.0684H21.2178C22.123 20.0684 22.6768 19.5762 22.6768 18.8379C22.6768 17.9062 21.833 17.1064 21.042 16.3506C20.418 15.7441 20.2773 14.4785 20.1631 13.3096C20.0225 10.0928 19.082 7.8252 16.8057 7.00781C16.4453 5.84766 15.4873 4.95117 14.1865 4.95117C12.8945 4.95117 11.9365 5.84766 11.5674 7.00781C9.2998 7.8252 8.35059 10.0928 8.21875 13.3096C8.10449 14.4785 7.95508 15.7441 7.33984 16.3506C6.54883 17.1064 5.70508 17.9062 5.70508 18.8379C5.70508 19.5762 6.25879 20.0684 7.16406 20.0684ZM14.1865 23.6895C15.751 23.6895 16.8848 22.5732 16.999 21.2988H11.3828C11.4971 22.5732 12.6309 23.6895 14.1865 23.6895Z" fill="#1C1C1E"/>
</svg>
