<svg width="18" height="17" viewBox="0 0 18 17" fill="none" xmlns="http://www.w3.org/2000/svg">
<path d="M2.94434 16.8799H15.0469C16.9541 16.8799 17.9473 15.8955 17.9473 14.0146V3.31836C17.9473 1.4375 16.9541 0.453125 15.0469 0.453125H2.94434C1.0459 0.453125 0.0527344 1.42871 0.0527344 3.31836V14.0146C0.0527344 15.8955 1.0459 16.8799 2.94434 16.8799ZM2.93555 15.1309C2.20605 15.1309 1.80176 14.7529 1.80176 13.9795V5.89355C1.80176 5.12012 2.20605 4.74219 2.93555 4.74219H15.0557C15.7852 4.74219 16.1895 5.12012 16.1895 5.89355V13.9795C16.1895 14.7529 15.7852 15.1309 15.0557 15.1309H2.93555ZM7.30371 7.77441H7.82227C8.13867 7.77441 8.24414 7.67773 8.24414 7.37012V6.85156C8.24414 6.53516 8.13867 6.43848 7.82227 6.43848H7.30371C6.9873 6.43848 6.88184 6.53516 6.88184 6.85156V7.37012C6.88184 7.67773 6.9873 7.77441 7.30371 7.77441ZM10.1777 7.77441H10.6963C11.0039 7.77441 11.1094 7.67773 11.1094 7.37012V6.85156C11.1094 6.53516 11.0039 6.43848 10.6963 6.43848H10.1777C9.86133 6.43848 9.75586 6.53516 9.75586 6.85156V7.37012C9.75586 7.67773 9.86133 7.77441 10.1777 7.77441ZM13.043 7.77441H13.5615C13.8779 7.77441 13.9834 7.67773 13.9834 7.37012V6.85156C13.9834 6.53516 13.8779 6.43848 13.5615 6.43848H13.043C12.7354 6.43848 12.6299 6.53516 12.6299 6.85156V7.37012C12.6299 7.67773 12.7354 7.77441 13.043 7.77441ZM4.43848 10.6045H4.94824C5.26465 10.6045 5.37012 10.5078 5.37012 10.1914V9.67285C5.37012 9.36523 5.26465 9.26855 4.94824 9.26855H4.43848C4.12207 9.26855 4.0166 9.36523 4.0166 9.67285V10.1914C4.0166 10.5078 4.12207 10.6045 4.43848 10.6045ZM7.30371 10.6045H7.82227C8.13867 10.6045 8.24414 10.5078 8.24414 10.1914V9.67285C8.24414 9.36523 8.13867 9.26855 7.82227 9.26855H7.30371C6.9873 9.26855 6.88184 9.36523 6.88184 9.67285V10.1914C6.88184 10.5078 6.9873 10.6045 7.30371 10.6045ZM10.1777 10.6045H10.6963C11.0039 10.6045 11.1094 10.5078 11.1094 10.1914V9.67285C11.1094 9.36523 11.0039 9.26855 10.6963 9.26855H10.1777C9.86133 9.26855 9.75586 9.36523 9.75586 9.67285V10.1914C9.75586 10.5078 9.86133 10.6045 10.1777 10.6045ZM13.043 10.6045H13.5615C13.8779 10.6045 13.9834 10.5078 13.9834 10.1914V9.67285C13.9834 9.36523 13.8779 9.26855 13.5615 9.26855H13.043C12.7354 9.26855 12.6299 9.36523 12.6299 9.67285V10.1914C12.6299 10.5078 12.7354 10.6045 13.043 10.6045ZM4.43848 13.4258H4.94824C5.26465 13.4258 5.37012 13.3291 5.37012 13.0215V12.5029C5.37012 12.1865 5.26465 12.0898 4.94824 12.0898H4.43848C4.12207 12.0898 4.0166 12.1865 4.0166 12.5029V13.0215C4.0166 13.3291 4.12207 13.4258 4.43848 13.4258ZM7.30371 13.4258H7.82227C8.13867 13.4258 8.24414 13.3291 8.24414 13.0215V12.5029C8.24414 12.1865 8.13867 12.0898 7.82227 12.0898H7.30371C6.9873 12.0898 6.88184 12.1865 6.88184 12.5029V13.0215C6.88184 13.3291 6.9873 13.4258 7.30371 13.4258ZM10.1777 13.4258H10.6963C11.0039 13.4258 11.1094 13.3291 11.1094 13.0215V12.5029C11.1094 12.1865 11.0039 12.0898 10.6963 12.0898H10.1777C9.86133 12.0898 9.75586 12.1865 9.75586 12.5029V13.0215C9.75586 13.3291 9.86133 13.4258 10.1777 13.4258Z" fill="#1C1C1E"/>
</svg>
