<svg width="24" height="24" viewBox="0 0 24 24" fill="none" xmlns="http://www.w3.org/2000/svg">
<path fill-rule="evenodd" clip-rule="evenodd" d="M6.90346 4.9585C5.4833 4.9585 4.33203 6.10976 4.33203 7.52992V8.87088H19.6663V7.52992C19.6663 6.10976 18.515 4.9585 17.0949 4.9585H6.90346ZM19.6663 9.72803H4.33203V16.4699C4.33203 17.8901 5.4833 19.0414 6.90346 19.0414H17.0949C18.515 19.0414 19.6663 17.8901 19.6663 16.4699V9.72803ZM9.83705 11.297C9.83705 11.155 9.95218 11.0398 10.0942 11.0398H10.8263C10.9683 11.0398 11.0834 11.155 11.0834 11.297V12.0291C11.0834 12.1711 10.9683 12.2862 10.8263 12.2862H10.0942C9.95218 12.2862 9.83705 12.1711 9.83705 12.0291V11.297ZM13.1746 11.0398C13.0325 11.0398 12.9174 11.155 12.9174 11.297V12.0291C12.9174 12.1711 13.0325 12.2862 13.1746 12.2862H13.9066C14.0487 12.2862 14.1638 12.1711 14.1638 12.0291V11.297C14.1638 11.155 14.0487 11.0398 13.9066 11.0398H13.1746ZM16.0011 11.297C16.0011 11.155 16.1162 11.0398 16.2583 11.0398H16.9903C17.1324 11.0398 17.2475 11.155 17.2475 11.297V12.0291C17.2475 12.1711 17.1324 12.2862 16.9903 12.2862H16.2583C16.1162 12.2862 16.0011 12.1711 16.0011 12.0291V11.297ZM7.00882 16.1471C6.8668 16.1471 6.75167 16.2622 6.75167 16.4043V17.1363C6.75167 17.2784 6.8668 17.3935 7.00882 17.3935H7.7409C7.88292 17.3935 7.99805 17.2784 7.99805 17.1363V16.4043C7.99805 16.2622 7.88292 16.1471 7.7409 16.1471H7.00882ZM9.83538 16.4043C9.83538 16.2622 9.95051 16.1471 10.0925 16.1471H10.8246C10.9666 16.1471 11.0818 16.2622 11.0818 16.4043V17.1363C11.0818 17.2784 10.9666 17.3935 10.8246 17.3935H10.0925C9.95051 17.3935 9.83538 17.2784 9.83538 17.1363V16.4043ZM13.1729 16.1471C13.0309 16.1471 12.9157 16.2622 12.9157 16.4043V17.1363C12.9157 17.2784 13.0309 17.3935 13.1729 17.3935H13.905C14.047 17.3935 14.1621 17.2784 14.1621 17.1363V16.4043C14.1621 16.2622 14.047 16.1471 13.905 16.1471H13.1729ZM9.83538 13.851C9.83538 13.7089 9.95051 13.5938 10.0925 13.5938H10.8246C10.9666 13.5938 11.0818 13.7089 11.0818 13.851V14.583C11.0818 14.7251 10.9666 14.8402 10.8246 14.8402H10.0925C9.95051 14.8402 9.83538 14.7251 9.83538 14.583V13.851ZM7.00882 13.5938C6.8668 13.5938 6.75167 13.7089 6.75167 13.851V14.583C6.75167 14.7251 6.8668 14.8402 7.00882 14.8402H7.7409C7.88292 14.8402 7.99805 14.7251 7.99805 14.583V13.851C7.99805 13.7089 7.88292 13.5938 7.7409 13.5938H7.00882ZM12.9157 13.851C12.9157 13.7089 13.0309 13.5938 13.1729 13.5938H13.905C14.047 13.5938 14.1621 13.7089 14.1621 13.851V14.583C14.1621 14.7251 14.047 14.8402 13.905 14.8402H13.1729C13.0309 14.8402 12.9157 14.7251 12.9157 14.583V13.851ZM16.2532 13.5938C16.1112 13.5938 15.9961 13.7089 15.9961 13.851V14.583C15.9961 14.7251 16.1112 14.8402 16.2532 14.8402H16.9853C17.1273 14.8402 17.2425 14.7251 17.2425 14.583V13.851C17.2425 13.7089 17.1273 13.5938 16.9853 13.5938H16.2532Z" fill="#8E8E93"/>
</svg>
