<svg width="28" height="28" viewBox="0 0 28 28" fill="none" xmlns="http://www.w3.org/2000/svg">
<path fill-rule="evenodd" clip-rule="evenodd" d="M22.9994 18.4765V21.1862C23.0015 21.6948 22.7886 22.1808 22.413 22.5247C22.0375 22.8685 21.5341 23.0384 21.0265 22.9927C18.2415 22.6907 15.5664 21.7409 13.216 20.2197C11.0293 18.8329 9.17534 16.9826 7.78581 14.8003C6.25628 12.4439 5.30442 9.76107 5.00735 6.96916C4.96162 6.46413 5.13068 5.96317 5.47323 5.58866C5.81578 5.21415 6.30028 5.00057 6.80837 5.00009H9.52347C10.432 4.99116 11.2064 5.65581 11.3335 6.55366C11.4481 7.42084 11.6607 8.27229 11.9671 9.09177C12.2157 9.75193 12.0567 10.4961 11.5598 10.9976L10.4104 12.1447C11.6988 14.406 13.5748 16.2784 15.8406 17.5642L16.99 16.4171C17.4925 15.9212 18.2382 15.7625 18.8996 16.0106C19.7207 16.3164 20.5739 16.5285 21.4428 16.6429C22.3528 16.771 23.0222 17.5595 22.9994 18.4765Z" fill="#111111"/>
</svg>
