<svg width="29" height="29" viewBox="0 0 29 29" fill="none" xmlns="http://www.w3.org/2000/svg">
<path d="M22.467 21.8018H24.2852V23.6018H4.28516V21.8018H6.10334V6.50181C6.10334 6.00475 6.51036 5.60181 7.01243 5.60181H21.5579C22.06 5.60181 22.467 6.00475 22.467 6.50181V21.8018ZM10.6488 13.7018V15.5018H13.3761V13.7018H10.6488ZM10.6488 10.1018V11.9018H13.3761V10.1018H10.6488ZM10.6488 17.3018V19.1018H13.3761V17.3018H10.6488ZM15.1942 17.3018V19.1018H17.9215V17.3018H15.1942ZM15.1942 13.7018V15.5018H17.9215V13.7018H15.1942ZM15.1942 10.1018V11.9018H17.9215V10.1018H15.1942Z" fill="black"/>
</svg>
