<svg width="361" height="383" viewBox="0 0 361 383" fill="none" xmlns="http://www.w3.org/2000/svg">
<rect width="361" height="383" rx="15" fill="#EAF8E0"/>
<g filter="url(#filter0_d_87_90)">
<g filter="url(#filter1_d_87_90)">
<circle cx="180" cy="50" r="14" fill="url(#paint0_linear_87_90)"/>
</g>
<g filter="url(#filter2_f_87_90)">
<ellipse cx="179.999" cy="48.6795" rx="13.425" ry="12.6795" fill="#3BD077"/>
</g>
</g>
<path d="M175.602 50.2008L178.242 52.8008L184.402 46.8008" stroke="white" stroke-width="1.6" stroke-linecap="round"/>
<path d="M144.53 86.2812C141.335 86.2812 139.35 84.0156 139.35 80.375V80.3594C139.35 76.7031 141.327 74.4453 144.522 74.4453C147.085 74.4453 149.03 76.0703 149.296 78.375V78.4375H147.319L147.311 78.4062C147.022 77.0703 145.944 76.1875 144.522 76.1875C142.608 76.1875 141.413 77.7891 141.413 80.3516V80.3672C141.413 82.9375 142.608 84.5391 144.53 84.5391C145.96 84.5391 147.022 83.7422 147.311 82.5L147.319 82.4609H149.296V82.5156C148.999 84.7734 147.132 86.2812 144.53 86.2812ZM154.71 86.1719C152.147 86.1719 150.601 84.5 150.601 81.7344V81.7188C150.601 78.9766 152.171 77.2969 154.71 77.2969C157.257 77.2969 158.819 78.9688 158.819 81.7188V81.7344C158.819 84.5 157.265 86.1719 154.71 86.1719ZM154.71 84.5938C156.062 84.5938 156.827 83.5391 156.827 81.7422V81.7266C156.827 79.9297 156.054 78.8672 154.71 78.8672C153.358 78.8672 152.585 79.9297 152.585 81.7266V81.7422C152.585 83.5391 153.358 84.5938 154.71 84.5938ZM160.452 86V77.4609H162.398V78.7656H162.531C162.937 77.8516 163.757 77.2969 164.992 77.2969C166.898 77.2969 167.937 78.4453 167.937 80.4766V86H165.992V80.9297C165.992 79.6016 165.452 78.9297 164.273 78.9297C163.117 78.9297 162.398 79.7422 162.398 81.0234V86H160.452ZM169.914 86V77.4609H171.859V78.7656H171.992C172.398 77.8516 173.218 77.2969 174.453 77.2969C176.359 77.2969 177.398 78.4453 177.398 80.4766V86H175.453V80.9297C175.453 79.6016 174.914 78.9297 173.734 78.9297C172.578 78.9297 171.859 79.7422 171.859 81.0234V86H169.914ZM183.031 86.1719C180.492 86.1719 178.953 84.4688 178.953 81.75V81.7422C178.953 79.0547 180.508 77.2969 182.938 77.2969C185.367 77.2969 186.867 79 186.867 81.5781V82.2188H180.898C180.922 83.75 181.75 84.6406 183.07 84.6406C184.125 84.6406 184.727 84.1094 184.914 83.7188L184.938 83.6641H186.789L186.766 83.7344C186.492 84.8359 185.352 86.1719 183.031 86.1719ZM182.961 78.8203C181.875 78.8203 181.062 79.5547 180.914 80.9141H184.969C184.836 79.5156 184.047 78.8203 182.961 78.8203ZM192.157 86.1719C189.586 86.1719 188.071 84.5078 188.071 81.7188V81.7031C188.071 78.9453 189.578 77.2969 192.149 77.2969C194.344 77.2969 195.657 78.5156 195.875 80.2812V80.3125H194.039L194.032 80.2891C193.852 79.4609 193.219 78.8672 192.157 78.8672C190.828 78.8672 190.047 79.9141 190.047 81.7031V81.7188C190.047 83.5312 190.836 84.5938 192.157 84.5938C193.164 84.5938 193.782 84.1328 194.024 83.2344L194.039 83.2031L195.875 83.1953L195.86 83.2578C195.578 85.0078 194.321 86.1719 192.157 86.1719ZM200.876 86.0391C198.915 86.0391 198.11 85.3828 198.11 83.7344V78.9688H196.782V77.4609H198.11V75.3672H200.087V77.4609H201.891V78.9688H200.087V83.2734C200.087 84.125 200.423 84.4844 201.235 84.4844C201.508 84.4844 201.657 84.4766 201.891 84.4531V85.9531C201.61 86.0078 201.251 86.0391 200.876 86.0391ZM207.087 86.1719C204.548 86.1719 203.009 84.4688 203.009 81.75V81.7422C203.009 79.0547 204.563 77.2969 206.993 77.2969C209.423 77.2969 210.923 79 210.923 81.5781V82.2188H204.954C204.977 83.75 205.806 84.6406 207.126 84.6406C208.181 84.6406 208.782 84.1094 208.97 83.7188L208.993 83.6641H210.845L210.821 83.7344C210.548 84.8359 209.407 86.1719 207.087 86.1719ZM207.017 78.8203C205.931 78.8203 205.118 79.5547 204.97 80.9141H209.024C208.892 79.5156 208.102 78.8203 207.017 78.8203ZM215.626 86.1406C213.486 86.1406 212.126 84.4453 212.126 81.7422V81.7266C212.126 79.0078 213.462 77.3203 215.626 77.3203C216.798 77.3203 217.775 77.8984 218.22 78.8203H218.353V74.1562H220.306V86H218.353V84.6641H218.22C217.751 85.5938 216.829 86.1406 215.626 86.1406ZM216.236 84.5C217.564 84.5 218.384 83.4531 218.384 81.7422V81.7266C218.384 80.0156 217.556 78.9609 216.236 78.9609C214.915 78.9609 214.103 80.0078 214.103 81.7266V81.7422C214.103 83.4609 214.908 84.5 216.236 84.5Z" fill="#111111"/>
<g clip-path="url(#clip0_87_90)">
<rect x="-63.643" y="260.105" width="189.612" height="5.79" fill="white" stroke="black" stroke-width="0.21"/>
<path d="M126.791 257.39H134.147V268.611H126.791C126.297 268.611 125.896 268.211 125.896 267.716V258.285C125.896 257.791 126.297 257.39 126.791 257.39Z" fill="white" stroke="black" stroke-width="0.21"/>
</g>
<g clip-path="url(#clip1_87_90)">
<path d="M134.083 261.372V192.56C134.078 190.258 134.083 187.96 134.096 185.658V185.312C134.108 185.187 134.113 185.063 134.117 184.939C134.147 184.426 134.194 183.921 134.258 183.412C134.322 182.907 134.404 182.402 134.502 181.901C134.879 180.01 135.473 178.247 136.325 176.519C136.796 175.556 137.335 174.64 137.942 173.754C139.333 171.735 140.946 170.058 142.914 168.594C144.275 167.584 145.7 166.754 147.253 166.078C148.994 165.321 150.766 164.807 152.644 164.517C152.978 164.474 153.307 164.431 153.641 164.384C153.975 164.354 154.313 164.328 154.647 164.298C154.814 164.29 154.981 164.281 155.147 164.273C155.297 164.273 155.443 164.273 155.592 164.268C164.437 164.256 173.277 164.251 182.121 164.256C190.918 164.256 199.715 164.256 208.517 164.256C545.474 164.256 882.426 164.256 1219.38 164.256H1257.72C1260.63 164.256 1263.55 164.256 1266.47 164.26C1266.6 164.26 1266.74 164.26 1266.87 164.26C1267.02 164.264 1267.17 164.273 1267.31 164.277C1268.29 164.324 1269.24 164.435 1270.2 164.611C1271.16 164.786 1272.09 165.021 1273.01 165.321C1274.1 165.676 1275.16 166.113 1276.18 166.635C1276.7 166.896 1277.2 167.178 1277.69 167.477C1278.12 167.743 1278.55 168.021 1278.96 168.316C1279.74 168.872 1280.48 169.471 1281.18 170.126C1281.78 170.687 1282.35 171.281 1282.88 171.906C1283.67 172.826 1284.37 173.793 1285 174.833C1285.62 175.868 1286.15 176.942 1286.6 178.068C1286.83 178.628 1287.03 179.197 1287.2 179.775C1287.3 180.126 1287.39 180.476 1287.49 180.827C1287.56 181.105 1287.62 181.384 1287.69 181.662C1287.8 182.218 1287.89 182.774 1287.97 183.335C1288.04 183.865 1288.09 184.396 1288.12 184.931C1288.13 185.213 1288.14 185.496 1288.15 185.782C1288.15 186.433 1288.15 187.079 1288.15 187.729C1288.15 235.844 1288.15 283.96 1288.15 332.075C1288.15 332.871 1288.15 333.662 1288.15 334.458C1288.17 335.28 1288.16 336.105 1288.14 336.927C1288.13 337.209 1288.12 337.492 1288.11 337.774C1288.09 338.044 1288.07 338.309 1288.05 338.579C1288.02 338.848 1287.99 339.118 1287.96 339.387C1287.92 339.665 1287.88 339.944 1287.84 340.222C1287.79 340.5 1287.74 340.778 1287.68 341.052C1287.62 341.33 1287.55 341.608 1287.49 341.886C1287.4 342.199 1287.32 342.507 1287.23 342.819C1287.06 343.401 1286.86 343.97 1286.65 344.535C1286.2 345.664 1285.68 346.738 1285.06 347.778C1284.44 348.818 1283.75 349.789 1282.97 350.713C1282.42 351.364 1281.84 351.98 1281.22 352.562C1280.51 353.221 1279.78 353.824 1278.99 354.385C1278.58 354.676 1278.17 354.954 1277.74 355.219C1277.25 355.523 1276.75 355.801 1276.24 356.066C1275.21 356.588 1274.16 357.029 1273.07 357.388C1271.19 358.009 1269.32 358.351 1267.34 358.445C1267.05 358.454 1266.76 358.462 1266.47 358.471C1265.41 358.479 1264.35 358.479 1263.29 358.479C911.697 358.479 560.103 358.479 208.513 358.479C199.715 358.479 190.918 358.479 182.117 358.479C173.272 358.484 164.428 358.479 155.588 358.467C155.438 358.467 155.293 358.467 155.143 358.462C154.976 358.454 154.809 358.445 154.638 358.437C154.3 358.407 153.966 358.381 153.628 358.351C153.295 358.308 152.965 358.265 152.631 358.218C150.753 357.927 148.986 357.414 147.244 356.657C145.691 355.981 144.262 355.155 142.906 354.145C140.937 352.682 139.324 351.004 137.934 348.985C137.326 348.103 136.791 347.188 136.316 346.225C135.465 344.492 134.866 342.725 134.494 340.834C134.395 340.333 134.314 339.832 134.25 339.327C134.181 338.818 134.134 338.313 134.108 337.8C134.104 337.676 134.096 337.552 134.091 337.428C134.091 337.308 134.087 337.188 134.083 337.064C134.083 311.832 134.074 286.6 134.074 261.367L134.083 261.372Z" fill="white" stroke="black" stroke-width="0.213941" stroke-miterlimit="10"/>
<path d="M198.063 164.378H198.168V164.273V154.885C198.168 154.227 197.635 153.694 196.977 153.694H156.785C156.128 153.694 155.594 154.227 155.594 154.885V164.273V164.378H155.699H198.063Z" fill="url(#paint1_radial_87_90)" stroke="black" stroke-width="0.21"/>
<path d="M179.348 160.369C179.151 160.382 178.988 160.339 178.817 160.236C178.663 160.138 178.556 160.022 178.484 159.855C178.484 160.014 178.484 160.172 178.484 160.33H177.371V156.903C177.748 156.847 178.12 156.796 178.492 156.74V158.263C178.561 158.062 178.672 157.934 178.856 157.827C179.014 157.729 179.164 157.686 179.352 157.69C179.6 157.682 179.806 157.733 180.015 157.861C180.221 157.977 180.366 158.122 180.482 158.328C180.606 158.55 180.662 158.764 180.653 159.021C180.653 159.278 180.602 159.496 180.482 159.723C180.371 159.937 180.225 160.082 180.015 160.202C179.801 160.33 179.596 160.386 179.352 160.377L179.348 160.369Z" stroke="black" stroke-width="0.213941" stroke-miterlimit="10"/>
<path d="M181.957 158.818C182.236 158.762 182.514 158.703 182.787 158.647C182.787 158.54 182.749 158.467 182.672 158.399C182.599 158.335 182.531 158.313 182.432 158.317C182.287 158.309 182.193 158.352 182.094 158.463C182 158.57 181.957 158.677 181.953 158.818H181.957Z" stroke="black" stroke-width="0.213941" stroke-miterlimit="10"/>
<path d="M173.738 160.328V157.722H174.842V158.372C174.894 158.15 174.992 157.992 175.172 157.85C175.339 157.722 175.501 157.671 175.711 157.684C175.754 157.992 175.801 158.3 175.843 158.608C175.762 158.603 175.677 158.599 175.595 158.591C174.971 158.591 174.859 158.907 174.859 159.185V160.328C174.487 160.328 174.115 160.328 173.743 160.328H173.738Z" stroke="black" stroke-width="0.213941" stroke-miterlimit="10"/>
<path d="M186.359 160.328V157.722H187.463V158.372C187.515 158.15 187.613 157.992 187.793 157.85C187.96 157.722 188.122 157.671 188.332 157.684C188.375 157.992 188.422 158.3 188.465 158.608C188.383 158.603 188.298 158.599 188.216 158.591C187.592 158.591 187.48 158.907 187.48 159.185V160.328C187.108 160.328 186.736 160.328 186.364 160.328H186.359Z" stroke="black" stroke-width="0.213941" stroke-miterlimit="10"/>
<path d="M183.992 160.328V157.722H185.096V158.372C185.147 158.15 185.246 157.992 185.426 157.85C185.592 157.722 185.755 157.671 185.965 157.684C186.008 157.992 186.055 158.3 186.097 158.608C186.016 158.603 185.93 158.599 185.849 158.591C185.224 158.591 185.113 158.907 185.113 159.185V160.328C184.741 160.328 184.369 160.328 183.996 160.328H183.992Z" stroke="black" stroke-width="0.213941" stroke-miterlimit="10"/>
<path d="M1094.77 354.264C1090.73 354.264 1086.69 354.264 1082.64 354.264C1074.81 354.264 1066.97 354.264 1059.13 354.264C1051.3 354.264 1043.46 354.264 1035.62 354.264C1024.88 354.264 1014.13 354.277 1003.39 354.281C992.646 354.286 981.902 354.286 971.154 354.286C960.598 354.286 950.042 354.286 939.49 354.286C928.939 354.286 918.387 354.286 907.831 354.286C863.713 354.286 819.581 354.286 775.458 354.286C681.876 354.286 588.298 354.286 494.716 354.286C399.32 354.286 303.924 354.286 208.532 354.286C199.731 354.286 190.925 354.286 182.119 354.286C173.313 354.286 164.503 354.29 155.723 354.277C155.582 354.277 155.445 354.277 155.308 354.277C155.171 354.277 155.034 354.269 154.897 354.26C154.628 354.243 154.354 354.217 154.084 354.187C153.815 354.157 153.545 354.123 153.28 354.08C151.786 353.849 150.319 353.421 148.928 352.818C147.687 352.279 146.506 351.594 145.42 350.79C143.862 349.635 142.497 348.218 141.397 346.618C140.91 345.908 140.473 345.159 140.092 344.385C139.416 343.003 138.916 341.531 138.616 340.029C138.535 339.627 138.471 339.22 138.419 338.809C138.368 338.399 138.33 337.983 138.308 337.577C138.304 337.479 138.3 337.376 138.295 337.273C138.295 337.171 138.291 337.072 138.287 336.969C138.27 335.861 138.274 334.719 138.274 333.585C138.274 332.451 138.274 331.321 138.274 330.192C138.274 327.933 138.274 325.669 138.274 323.406C138.274 318.237 138.274 313.064 138.274 307.895C138.274 302.726 138.274 297.562 138.274 292.393C138.274 287.224 138.274 282.055 138.274 276.886V261.38C138.274 258.795 138.274 256.211 138.274 253.627C138.274 245.873 138.274 238.12 138.274 230.363C138.274 220.025 138.274 209.688 138.274 199.354C138.274 197.091 138.274 194.832 138.274 192.564C138.274 190.296 138.27 188.028 138.287 185.79C138.287 185.688 138.287 185.585 138.291 185.482C138.295 185.38 138.3 185.281 138.304 185.178C138.325 184.768 138.364 184.357 138.415 183.946C138.466 183.535 138.535 183.129 138.612 182.722C138.911 181.216 139.408 179.753 140.088 178.371C140.469 177.596 140.905 176.848 141.393 176.133C142.493 174.533 143.858 173.121 145.411 171.961C146.498 171.153 147.679 170.472 148.92 169.933C150.31 169.33 151.778 168.902 153.275 168.671C153.545 168.628 153.815 168.594 154.084 168.564C154.354 168.534 154.623 168.508 154.893 168.491C155.03 168.483 155.162 168.478 155.299 168.474C155.436 168.474 155.577 168.474 155.714 168.474C164.49 168.461 173.3 168.461 182.106 168.465C190.912 168.465 199.718 168.465 208.519 168.465C303.363 168.465 398.208 168.465 493.056 168.465C585.448 168.465 677.845 168.465 770.238 168.465C814.378 168.465 858.518 168.465 902.658 168.465C924.01 168.465 945.361 168.465 966.712 168.465C977.709 168.465 988.705 168.465 999.702 168.465C1010.08 168.465 1020.45 168.478 1030.83 168.483C1046.01 168.491 1061.19 168.491 1076.37 168.487C1082.5 168.487 1088.62 168.487 1094.75 168.487C1098.82 168.487 1102.9 168.487 1106.98 168.487C1109.17 168.487 1111.37 168.487 1113.57 168.487C1125.83 168.487 1138.09 168.487 1150.35 168.487C1163.47 168.487 1176.58 168.491 1189.7 168.491C1199.59 168.491 1209.48 168.491 1219.36 168.491C1229.25 168.491 1239.14 168.491 1249.02 168.491C1251.91 168.491 1254.8 168.491 1257.7 168.487C1260.59 168.487 1263.49 168.478 1266.36 168.487C1266.49 168.487 1266.61 168.487 1266.73 168.487C1266.86 168.487 1266.98 168.491 1267.1 168.5C1267.89 168.534 1268.66 168.624 1269.43 168.765C1270.2 168.906 1270.96 169.099 1271.7 169.343C1272.58 169.629 1273.43 169.98 1274.26 170.399C1274.68 170.609 1275.08 170.836 1275.48 171.076C1275.83 171.289 1276.17 171.516 1276.5 171.752C1277.14 172.201 1277.73 172.689 1278.3 173.219C1278.79 173.673 1279.25 174.152 1279.68 174.661C1280.32 175.401 1280.89 176.193 1281.39 177.027C1281.89 177.862 1282.33 178.735 1282.69 179.637C1282.87 180.091 1283.02 180.549 1283.17 181.015C1283.25 181.298 1283.34 181.58 1283.4 181.862C1283.46 182.085 1283.51 182.307 1283.56 182.534C1283.65 182.983 1283.73 183.433 1283.79 183.886C1283.85 184.314 1283.88 184.742 1283.91 185.17C1283.92 185.397 1283.93 185.623 1283.93 185.855C1283.94 186.163 1283.94 186.475 1283.94 186.787C1283.94 187.1 1283.94 187.412 1283.94 187.729C1283.94 199.166 1283.95 210.607 1283.95 222.045C1283.95 233.482 1283.95 244.919 1283.95 256.357C1283.95 268.975 1283.95 281.593 1283.95 294.211C1283.95 306.829 1283.94 319.448 1283.94 332.057C1283.94 332.857 1283.94 333.658 1283.94 334.458C1283.94 335.262 1283.94 336.067 1283.93 336.854C1283.93 337.085 1283.92 337.316 1283.91 337.543C1283.89 337.761 1283.88 337.975 1283.86 338.193C1283.84 338.411 1283.81 338.63 1283.79 338.844C1283.76 339.07 1283.72 339.293 1283.68 339.52C1283.64 339.746 1283.6 339.969 1283.55 340.191C1283.51 340.414 1283.46 340.641 1283.4 340.863C1283.34 341.116 1283.27 341.368 1283.19 341.616C1283.05 342.083 1282.9 342.545 1282.72 343.003C1282.36 343.91 1281.94 344.787 1281.44 345.621C1280.94 346.46 1280.38 347.251 1279.75 347.996C1279.31 348.522 1278.83 349.019 1278.33 349.489C1277.76 350.02 1277.16 350.512 1276.53 350.961C1276.2 351.196 1275.87 351.423 1275.52 351.637C1275.12 351.881 1274.72 352.108 1274.31 352.318C1273.48 352.737 1272.63 353.096 1271.75 353.383C1270.25 353.875 1268.69 354.17 1267.11 354.239C1266.87 354.247 1266.62 354.256 1266.38 354.26C1265.36 354.277 1264.33 354.269 1263.29 354.26C1262.25 354.252 1261.22 354.256 1260.18 354.252C1258.11 354.252 1256.05 354.252 1253.97 354.252C1249.01 354.252 1244.04 354.252 1239.08 354.252C1234.11 354.252 1229.14 354.252 1224.18 354.252C1219.21 354.252 1214.25 354.252 1209.28 354.252C1204.31 354.252 1199.35 354.252 1194.38 354.252C1181.74 354.252 1169.09 354.252 1156.45 354.256C1150.13 354.256 1143.81 354.256 1137.48 354.256C1131.16 354.256 1124.84 354.256 1118.52 354.256C1112.54 354.256 1106.56 354.256 1100.58 354.256C1100.28 354.256 1099.97 354.256 1099.67 354.256C1099.67 292.329 1099.67 230.397 1099.67 168.47C1100.48 168.47 1101.28 168.47 1102.09 168.47V354.256" stroke="black" stroke-width="0.213941" stroke-miterlimit="10"/>
<path d="M182.699 159.644C182.943 159.644 183.157 159.602 183.375 159.499C183.418 159.721 183.46 159.944 183.503 160.166C183.366 160.235 183.225 160.286 183.075 160.316C182.9 160.355 182.729 160.372 182.549 160.368C182.232 160.376 181.946 160.32 181.65 160.196C181.407 160.094 181.24 159.948 181.103 159.726C180.966 159.503 180.91 159.289 180.919 159.028C180.91 158.528 181.197 158.066 181.65 157.852C181.89 157.732 182.121 157.676 182.386 157.685C182.733 157.659 183.071 157.796 183.302 158.053C183.563 158.378 183.653 158.686 183.619 159.097C183.092 159.161 182.57 159.229 182.044 159.294C182.164 159.537 182.425 159.674 182.695 159.64L182.699 159.644Z" stroke="black" stroke-width="0.213941" stroke-miterlimit="10"/>
<path d="M169.801 160.329V156.748H171.067C171.521 156.735 171.94 156.803 172.364 156.97C172.698 157.094 172.92 157.282 173.1 157.591C173.271 157.886 173.344 158.172 173.335 158.515C173.365 159.024 173.151 159.52 172.762 159.85C172.347 160.201 171.726 160.325 171.016 160.325C170.609 160.325 170.207 160.325 169.801 160.325V160.329Z" stroke="black" stroke-width="0.213941" stroke-miterlimit="10"/>
<path d="M171.315 159.421C171.584 159.442 171.764 159.369 171.944 159.168C172.106 158.963 172.17 158.766 172.149 158.505C172.166 158.261 172.106 158.081 171.952 157.893C171.764 157.709 171.576 157.641 171.315 157.662H170.977V159.425H171.315V159.421Z" stroke="black" stroke-width="0.213941" stroke-miterlimit="10"/>
<path d="M190.127 161.339C190.003 161.33 189.874 161.322 189.75 161.313C189.66 161.292 189.566 161.27 189.476 161.249C189.506 160.996 189.532 160.748 189.562 160.496C189.63 160.509 189.699 160.517 189.767 160.53C189.84 160.534 189.913 160.538 189.985 160.543C190.187 160.568 190.336 160.526 190.499 160.397C190.636 160.265 190.683 160.141 190.653 159.952V159.657C190.584 159.867 190.477 160.004 190.294 160.115C190.118 160.222 189.947 160.265 189.742 160.256C189.446 160.273 189.16 160.141 188.98 159.905C188.77 159.593 188.689 159.293 188.71 158.917V157.719H189.827V158.977C189.827 159.067 189.831 159.156 189.87 159.251C189.904 159.332 189.973 159.443 190.161 159.443C190.311 159.443 190.405 159.4 190.49 159.276C190.589 159.139 190.627 159.007 190.614 158.84V157.723H191.731V159.721C191.765 160.171 191.616 160.611 191.312 160.945C190.982 161.227 190.559 161.369 190.127 161.339Z" stroke="black" stroke-width="0.213941" stroke-miterlimit="10"/>
<path d="M165.018 159.465C165.677 158.814 166.34 158.164 166.999 157.514C167.243 157.753 167.487 157.997 167.731 158.237C168.188 158.686 168.188 159.426 167.731 159.871C167.102 160.483 166.477 161.099 165.848 161.711C165.386 162.165 164.646 162.165 164.179 161.711C163.55 161.099 162.925 160.483 162.296 159.871C161.839 159.422 161.839 158.686 162.296 158.237C162.54 157.997 162.784 157.753 163.028 157.514C163.931 158.404 164.838 159.294 165.741 160.179C166.207 160.629 166.943 160.629 167.41 160.179" stroke="black" stroke-width="0.213941" stroke-miterlimit="10"/>
<path d="M179.008 159.551C179.166 159.551 179.277 159.513 179.389 159.402C179.504 159.295 179.547 159.188 179.543 159.034C179.547 158.875 179.504 158.768 179.389 158.666C179.277 158.554 179.166 158.512 179.008 158.516C178.85 158.503 178.747 158.546 178.636 158.661C178.516 158.764 178.473 158.871 178.482 159.029C178.473 159.188 178.52 159.299 178.636 159.406C178.743 159.517 178.85 159.564 179.008 159.56V159.551Z" stroke="black" stroke-width="0.213941" stroke-miterlimit="10"/>
<path d="M176.35 160.359C176.166 160.376 176.038 160.333 175.905 160.205C175.789 160.098 175.747 159.987 175.751 159.829C175.742 159.666 175.789 159.559 175.914 159.452C176.046 159.332 176.17 159.289 176.35 159.302C176.53 159.285 176.654 159.332 176.782 159.456C176.902 159.559 176.949 159.666 176.945 159.824C176.958 159.987 176.915 160.098 176.795 160.209C176.662 160.329 176.534 160.372 176.354 160.355" stroke="black" stroke-width="0.213941" stroke-miterlimit="10"/>
<path d="M166.123 157.108C166.123 156.847 166.054 156.642 165.887 156.436C165.669 156.167 165.344 156.021 165.001 156.025C164.651 156.025 164.347 156.175 164.133 156.449C163.97 156.654 163.906 156.86 163.91 157.121C163.91 157.382 163.987 157.583 164.15 157.788C164.372 158.062 164.676 158.203 165.031 158.199C165.387 158.199 165.678 158.049 165.891 157.776C166.054 157.57 166.123 157.369 166.123 157.108Z" stroke="black" stroke-width="0.213941" stroke-miterlimit="10"/>
<line x1="188.535" y1="187.859" x2="188.535" y2="335.09" stroke="#111111" stroke-width="0.5" stroke-linecap="square" stroke-dasharray="2.26 2.26"/>
<line x1="238.504" y1="187.859" x2="238.504" y2="335.09" stroke="#111111" stroke-width="0.5" stroke-linecap="square" stroke-dasharray="2.26 2.26"/>
<line x1="288.473" y1="187.859" x2="288.473" y2="335.09" stroke="#111111" stroke-width="0.5" stroke-linecap="square" stroke-dasharray="2.26 2.26"/>
<line x1="338.437" y1="187.859" x2="338.438" y2="335.09" stroke="#111111" stroke-width="0.5" stroke-linecap="square" stroke-dasharray="2.26 2.26"/>
</g>
<g filter="url(#filter3_d_87_90)">
<circle cx="108" cy="238" r="15" fill="#FAFAFA"/>
</g>
<g filter="url(#filter4_d_87_90)">
<circle cx="108" cy="238" r="12.1429" fill="white"/>
<path d="M102.002 235.667C103.696 234.099 105.831 233.24 108.036 233.24C110.241 233.24 112.376 234.099 114.071 235.667" stroke="#8E8E93" stroke-width="1.90476" stroke-linecap="round" stroke-linejoin="round"/>
<path d="M105.028 239.058C105.898 238.371 106.939 238.002 108.007 238.002C109.074 238.002 110.115 238.371 110.985 239.058" stroke="#8E8E93" stroke-width="1.90476" stroke-linecap="round" stroke-linejoin="round"/>
<path d="M108.002 242.762H108.011" stroke="#8E8E93" stroke-width="1.90476" stroke-linecap="round" stroke-linejoin="round"/>
</g>
<defs>
<filter id="filter0_d_87_90" x="159.779" y="31.4379" width="40.4421" height="40.4421" filterUnits="userSpaceOnUse" color-interpolation-filters="sRGB">
<feFlood flood-opacity="0" result="BackgroundImageFix"/>
<feColorMatrix in="SourceAlpha" type="matrix" values="0 0 0 0 0 0 0 0 0 0 0 0 0 0 0 0 0 0 127 0" result="hardAlpha"/>
<feOffset dy="1.65895"/>
<feGaussianBlur stdDeviation="3.11053"/>
<feComposite in2="hardAlpha" operator="out"/>
<feColorMatrix type="matrix" values="0 0 0 0 0.223529 0 0 0 0 0.760784 0 0 0 0 0.439216 0 0 0 0.2 0"/>
<feBlend mode="normal" in2="BackgroundImageFix" result="effect1_dropShadow_87_90"/>
<feBlend mode="normal" in="SourceGraphic" in2="effect1_dropShadow_87_90" result="shape"/>
</filter>
<filter id="filter1_d_87_90" x="153.558" y="23.5579" width="52.8842" height="52.8842" filterUnits="userSpaceOnUse" color-interpolation-filters="sRGB">
<feFlood flood-opacity="0" result="BackgroundImageFix"/>
<feColorMatrix in="SourceAlpha" type="matrix" values="0 0 0 0 0 0 0 0 0 0 0 0 0 0 0 0 0 0 127 0" result="hardAlpha"/>
<feOffset/>
<feGaussianBlur stdDeviation="6.22106"/>
<feComposite in2="hardAlpha" operator="out"/>
<feColorMatrix type="matrix" values="0 0 0 0 0.223529 0 0 0 0 0.760784 0 0 0 0 0.439216 0 0 0 0.3 0"/>
<feBlend mode="normal" in2="BackgroundImageFix" result="effect1_dropShadow_87_90"/>
<feBlend mode="normal" in="SourceGraphic" in2="effect1_dropShadow_87_90" result="shape"/>
</filter>
<filter id="filter2_f_87_90" x="164.59" y="34.0162" width="30.8173" height="29.327" filterUnits="userSpaceOnUse" color-interpolation-filters="sRGB">
<feFlood flood-opacity="0" result="BackgroundImageFix"/>
<feBlend mode="normal" in="SourceGraphic" in2="BackgroundImageFix" result="shape"/>
<feGaussianBlur stdDeviation="0.991916" result="effect1_foregroundBlur_87_90"/>
</filter>
<filter id="filter3_d_87_90" x="88.7143" y="219.429" width="38.5714" height="38.5714" filterUnits="userSpaceOnUse" color-interpolation-filters="sRGB">
<feFlood flood-opacity="0" result="BackgroundImageFix"/>
<feColorMatrix in="SourceAlpha" type="matrix" values="0 0 0 0 0 0 0 0 0 0 0 0 0 0 0 0 0 0 127 0" result="hardAlpha"/>
<feOffset dy="0.714286"/>
<feGaussianBlur stdDeviation="2.14286"/>
<feComposite in2="hardAlpha" operator="out"/>
<feColorMatrix type="matrix" values="0 0 0 0 0 0 0 0 0 0 0 0 0 0 0 0 0 0 0.05 0"/>
<feBlend mode="normal" in2="BackgroundImageFix" result="effect1_dropShadow_87_90"/>
<feBlend mode="normal" in="SourceGraphic" in2="effect1_dropShadow_87_90" result="shape"/>
</filter>
<filter id="filter4_d_87_90" x="91.5707" y="222.286" width="32.8585" height="32.8576" filterUnits="userSpaceOnUse" color-interpolation-filters="sRGB">
<feFlood flood-opacity="0" result="BackgroundImageFix"/>
<feColorMatrix in="SourceAlpha" type="matrix" values="0 0 0 0 0 0 0 0 0 0 0 0 0 0 0 0 0 0 127 0" result="hardAlpha"/>
<feOffset dy="0.714286"/>
<feGaussianBlur stdDeviation="2.14286"/>
<feComposite in2="hardAlpha" operator="out"/>
<feColorMatrix type="matrix" values="0 0 0 0 0 0 0 0 0 0 0 0 0 0 0 0 0 0 0.05 0"/>
<feBlend mode="normal" in2="BackgroundImageFix" result="effect1_dropShadow_87_90"/>
<feBlend mode="normal" in="SourceGraphic" in2="effect1_dropShadow_87_90" result="shape"/>
</filter>
<linearGradient id="paint0_linear_87_90" x1="180" y1="36" x2="180" y2="64" gradientUnits="userSpaceOnUse">
<stop stop-color="#39C270"/>
<stop offset="1" stop-color="#94E8B5"/>
</linearGradient>
<radialGradient id="paint1_radial_87_90" cx="0" cy="0" r="1" gradientUnits="userSpaceOnUse" gradientTransform="translate(176.881 164.753) rotate(-90) scale(12.344 49.9259)">
<stop stop-color="#D9D9D9"/>
<stop offset="1" stop-color="#F5F5F5"/>
</radialGradient>
<clipPath id="clip0_87_90">
<rect width="134" height="26" fill="white" transform="translate(0.251953 250)"/>
</clipPath>
<clipPath id="clip1_87_90">
<rect width="227" height="207" fill="white" transform="translate(134 152)"/>
</clipPath>
</defs>
</svg>
