<svg width="28" height="28" viewBox="0 0 28 28" fill="none" xmlns="http://www.w3.org/2000/svg">
<path d="M5 16.8889C5 15.7843 5.89543 14.8889 7 14.8889H8.4C9.50457 14.8889 10.4 15.7843 10.4 16.8889V20C10.4 21.1046 9.50457 22 8.4 22H7C5.89543 22 5 21.1046 5 20V16.8889ZM11.3 13.3333C11.3 12.2288 12.1954 11.3333 13.3 11.3333H14.7C15.8046 11.3333 16.7 12.2288 16.7 13.3333V20C16.7 21.1046 15.8046 22 14.7 22H13.3C12.1954 22 11.3 21.1046 11.3 20L11.3 13.3333ZM17.6 8C17.6 6.89543 18.4954 6 19.6 6H21C22.1046 6 23 6.89543 23 8L23 20C23 21.1046 22.1046 22 21 22H19.6C18.4954 22 17.6 21.1046 17.6 20L17.6 8Z" fill="#111111"/>
</svg>
