<svg width="39" height="39" viewBox="0 0 39 39" fill="none" xmlns="http://www.w3.org/2000/svg">
<rect width="38.1846" height="38.1758" rx="19.0879" fill="#FFF1BF"/>
<path d="M19.0879 28.1758C24.0713 28.1758 28.1846 24.0625 28.1846 19.0879C28.1846 14.1133 24.0625 10 19.0791 10C14.1045 10 10 14.1133 10 19.0879C10 24.0625 14.1133 28.1758 19.0879 28.1758ZM14.6582 20.1953C14.2627 20.1953 13.9551 19.8877 13.9551 19.4922C13.9551 19.0967 14.2627 18.7891 14.6582 18.7891H18.3848V13.7441C18.3848 13.3486 18.6924 13.041 19.0791 13.041C19.4834 13.041 19.791 13.3486 19.791 13.7441V19.4922C19.791 19.8877 19.4834 20.1953 19.0791 20.1953H14.6582Z" fill="#FFC700"/>
</svg>
