<svg width="361" height="383" viewBox="0 0 361 383" fill="none" xmlns="http://www.w3.org/2000/svg">
<g opacity="0.1">
<rect width="361" height="383" rx="15" fill="#FF4319"/>
</g>
<g filter="url(#filter0_d_514_2960)">
<circle cx="72.252" cy="254" r="15" fill="#FAFAFA"/>
</g>
<g filter="url(#filter1_d_514_2960)">
<circle cx="72.2522" cy="254" r="12.1429" fill="white"/>
<path d="M66.2539 251.666C67.9481 250.098 70.0833 249.24 72.2882 249.24C74.4931 249.24 76.6283 250.098 78.3225 251.666" stroke="#8E8E93" stroke-width="1.90476" stroke-linecap="round" stroke-linejoin="round"/>
<path d="M69.2803 255.057C70.1504 254.371 71.1914 254.001 72.2588 254.001C73.3263 254.001 74.3672 254.371 75.2374 255.057" stroke="#8E8E93" stroke-width="1.90476" stroke-linecap="round" stroke-linejoin="round"/>
<path d="M72.2539 258.762H72.2625" stroke="#8E8E93" stroke-width="1.90476" stroke-linecap="round" stroke-linejoin="round"/>
<path d="M78.2803 248.053L66.2539 260.079" stroke="#8E8E93" stroke-width="1.5" stroke-linecap="round"/>
</g>
<g clip-path="url(#clip0_514_2960)">
<path d="M134.083 261.372V192.56C134.078 190.258 134.083 187.96 134.096 185.658V185.312C134.108 185.187 134.113 185.063 134.117 184.939C134.147 184.426 134.194 183.921 134.258 183.412C134.322 182.907 134.404 182.402 134.502 181.901C134.879 180.01 135.473 178.247 136.325 176.519C136.796 175.556 137.335 174.64 137.942 173.754C139.333 171.735 140.946 170.058 142.914 168.594C144.275 167.584 145.7 166.754 147.253 166.078C148.994 165.321 150.766 164.807 152.644 164.517C152.978 164.474 153.307 164.431 153.641 164.384C153.975 164.354 154.313 164.328 154.647 164.298C154.814 164.29 154.981 164.281 155.147 164.273C155.297 164.273 155.443 164.273 155.592 164.268C164.437 164.256 173.277 164.251 182.121 164.256C190.918 164.256 199.715 164.256 208.517 164.256C545.474 164.256 882.426 164.256 1219.38 164.256H1257.72C1260.63 164.256 1263.55 164.256 1266.47 164.26C1266.6 164.26 1266.74 164.26 1266.87 164.26C1267.02 164.264 1267.17 164.273 1267.31 164.277C1268.29 164.324 1269.24 164.435 1270.2 164.611C1271.16 164.786 1272.09 165.021 1273.01 165.321C1274.1 165.676 1275.16 166.113 1276.18 166.635C1276.7 166.896 1277.2 167.178 1277.69 167.477C1278.12 167.743 1278.55 168.021 1278.96 168.316C1279.74 168.872 1280.48 169.471 1281.18 170.126C1281.78 170.687 1282.35 171.281 1282.88 171.906C1283.67 172.826 1284.37 173.793 1285 174.833C1285.62 175.868 1286.15 176.942 1286.6 178.068C1286.83 178.628 1287.03 179.197 1287.2 179.775C1287.3 180.126 1287.39 180.476 1287.49 180.827C1287.56 181.105 1287.62 181.384 1287.69 181.662C1287.8 182.218 1287.89 182.774 1287.97 183.335C1288.04 183.865 1288.09 184.396 1288.12 184.931C1288.13 185.213 1288.14 185.496 1288.15 185.782C1288.15 186.433 1288.15 187.079 1288.15 187.729C1288.15 235.844 1288.15 283.96 1288.15 332.075C1288.15 332.871 1288.15 333.662 1288.15 334.458C1288.17 335.28 1288.16 336.105 1288.14 336.927C1288.13 337.209 1288.12 337.492 1288.11 337.774C1288.09 338.044 1288.07 338.309 1288.05 338.579C1288.02 338.848 1287.99 339.118 1287.96 339.387C1287.92 339.665 1287.88 339.944 1287.84 340.222C1287.79 340.5 1287.74 340.778 1287.68 341.052C1287.62 341.33 1287.55 341.608 1287.49 341.886C1287.4 342.199 1287.32 342.507 1287.23 342.819C1287.06 343.401 1286.86 343.97 1286.65 344.535C1286.2 345.664 1285.68 346.738 1285.06 347.778C1284.44 348.818 1283.75 349.789 1282.97 350.713C1282.42 351.364 1281.84 351.98 1281.22 352.562C1280.51 353.221 1279.78 353.824 1278.99 354.385C1278.58 354.676 1278.17 354.954 1277.74 355.219C1277.25 355.523 1276.75 355.801 1276.24 356.066C1275.21 356.588 1274.16 357.029 1273.07 357.388C1271.19 358.009 1269.32 358.351 1267.34 358.445C1267.05 358.454 1266.76 358.462 1266.47 358.471C1265.41 358.479 1264.35 358.479 1263.29 358.479C911.697 358.479 560.103 358.479 208.513 358.479C199.715 358.479 190.918 358.479 182.117 358.479C173.272 358.484 164.428 358.479 155.588 358.467C155.438 358.467 155.293 358.467 155.143 358.462C154.976 358.454 154.809 358.445 154.638 358.437C154.3 358.407 153.966 358.381 153.628 358.351C153.295 358.308 152.965 358.265 152.631 358.218C150.753 357.927 148.986 357.414 147.244 356.657C145.691 355.981 144.262 355.155 142.906 354.145C140.937 352.682 139.324 351.004 137.934 348.985C137.326 348.103 136.791 347.188 136.316 346.225C135.465 344.492 134.866 342.725 134.494 340.834C134.395 340.333 134.314 339.832 134.25 339.327C134.181 338.818 134.134 338.313 134.108 337.8C134.104 337.676 134.096 337.552 134.091 337.428C134.091 337.308 134.087 337.188 134.083 337.064C134.083 311.832 134.074 286.6 134.074 261.367L134.083 261.372Z" fill="white" stroke="black" stroke-width="0.213941" stroke-miterlimit="10"/>
<path d="M198.063 164.378H198.168V164.273V154.885C198.168 154.227 197.635 153.694 196.977 153.694H156.785C156.128 153.694 155.594 154.227 155.594 154.885V164.273V164.378H155.699H198.063Z" fill="url(#paint0_radial_514_2960)" stroke="black" stroke-width="0.21"/>
<path d="M179.348 160.369C179.151 160.382 178.988 160.339 178.817 160.236C178.663 160.138 178.556 160.022 178.484 159.855C178.484 160.014 178.484 160.172 178.484 160.33H177.371V156.903C177.748 156.847 178.12 156.796 178.492 156.74V158.263C178.561 158.062 178.672 157.934 178.856 157.827C179.014 157.729 179.164 157.686 179.352 157.69C179.6 157.682 179.806 157.733 180.015 157.861C180.221 157.977 180.366 158.122 180.482 158.328C180.606 158.55 180.662 158.764 180.653 159.021C180.653 159.278 180.602 159.496 180.482 159.723C180.371 159.937 180.225 160.082 180.015 160.202C179.801 160.33 179.596 160.386 179.352 160.377L179.348 160.369Z" stroke="black" stroke-width="0.213941" stroke-miterlimit="10"/>
<path d="M181.957 158.818C182.236 158.762 182.514 158.703 182.787 158.647C182.787 158.54 182.749 158.467 182.672 158.399C182.599 158.335 182.531 158.313 182.432 158.317C182.287 158.309 182.193 158.352 182.094 158.463C182 158.57 181.957 158.677 181.953 158.818H181.957Z" stroke="black" stroke-width="0.213941" stroke-miterlimit="10"/>
<path d="M173.738 160.328V157.722H174.842V158.372C174.894 158.15 174.992 157.992 175.172 157.85C175.339 157.722 175.501 157.671 175.711 157.684C175.754 157.992 175.801 158.3 175.843 158.608C175.762 158.603 175.677 158.599 175.595 158.591C174.971 158.591 174.859 158.907 174.859 159.185V160.328C174.487 160.328 174.115 160.328 173.743 160.328H173.738Z" stroke="black" stroke-width="0.213941" stroke-miterlimit="10"/>
<path d="M186.359 160.328V157.722H187.463V158.372C187.515 158.15 187.613 157.992 187.793 157.85C187.96 157.722 188.122 157.671 188.332 157.684C188.375 157.992 188.422 158.3 188.465 158.608C188.383 158.603 188.298 158.599 188.216 158.591C187.592 158.591 187.48 158.907 187.48 159.185V160.328C187.108 160.328 186.736 160.328 186.364 160.328H186.359Z" stroke="black" stroke-width="0.213941" stroke-miterlimit="10"/>
<path d="M183.992 160.328V157.722H185.096V158.372C185.147 158.15 185.246 157.992 185.426 157.85C185.592 157.722 185.755 157.671 185.965 157.684C186.008 157.992 186.055 158.3 186.097 158.608C186.016 158.603 185.93 158.599 185.849 158.591C185.224 158.591 185.113 158.907 185.113 159.185V160.328C184.741 160.328 184.369 160.328 183.996 160.328H183.992Z" stroke="black" stroke-width="0.213941" stroke-miterlimit="10"/>
<path d="M1094.77 354.264C1090.73 354.264 1086.69 354.264 1082.64 354.264C1074.81 354.264 1066.97 354.264 1059.13 354.264C1051.3 354.264 1043.46 354.264 1035.62 354.264C1024.88 354.264 1014.13 354.277 1003.39 354.281C992.646 354.286 981.902 354.286 971.154 354.286C960.598 354.286 950.042 354.286 939.49 354.286C928.939 354.286 918.387 354.286 907.831 354.286C863.713 354.286 819.581 354.286 775.458 354.286C681.876 354.286 588.298 354.286 494.716 354.286C399.32 354.286 303.924 354.286 208.532 354.286C199.731 354.286 190.925 354.286 182.119 354.286C173.313 354.286 164.503 354.29 155.723 354.277C155.582 354.277 155.445 354.277 155.308 354.277C155.171 354.277 155.034 354.269 154.897 354.26C154.628 354.243 154.354 354.217 154.084 354.187C153.815 354.157 153.545 354.123 153.28 354.08C151.786 353.849 150.319 353.421 148.928 352.818C147.687 352.279 146.506 351.594 145.42 350.79C143.862 349.635 142.497 348.218 141.397 346.618C140.91 345.908 140.473 345.159 140.092 344.385C139.416 343.003 138.916 341.531 138.616 340.029C138.535 339.627 138.471 339.22 138.419 338.809C138.368 338.399 138.33 337.983 138.308 337.577C138.304 337.479 138.3 337.376 138.295 337.273C138.295 337.171 138.291 337.072 138.287 336.969C138.27 335.861 138.274 334.719 138.274 333.585C138.274 332.451 138.274 331.321 138.274 330.192C138.274 327.933 138.274 325.669 138.274 323.406C138.274 318.237 138.274 313.064 138.274 307.895C138.274 302.726 138.274 297.562 138.274 292.393C138.274 287.224 138.274 282.055 138.274 276.886V261.38C138.274 258.795 138.274 256.211 138.274 253.627C138.274 245.873 138.274 238.12 138.274 230.363C138.274 220.025 138.274 209.688 138.274 199.354C138.274 197.091 138.274 194.832 138.274 192.564C138.274 190.296 138.27 188.028 138.287 185.79C138.287 185.688 138.287 185.585 138.291 185.482C138.295 185.38 138.3 185.281 138.304 185.178C138.325 184.768 138.364 184.357 138.415 183.946C138.466 183.535 138.535 183.129 138.612 182.722C138.911 181.216 139.408 179.753 140.088 178.371C140.469 177.596 140.905 176.848 141.393 176.133C142.493 174.533 143.858 173.121 145.411 171.961C146.498 171.153 147.679 170.472 148.92 169.933C150.31 169.33 151.778 168.902 153.275 168.671C153.545 168.628 153.815 168.594 154.084 168.564C154.354 168.534 154.623 168.508 154.893 168.491C155.03 168.483 155.162 168.478 155.299 168.474C155.436 168.474 155.577 168.474 155.714 168.474C164.49 168.461 173.3 168.461 182.106 168.465C190.912 168.465 199.718 168.465 208.519 168.465C303.363 168.465 398.208 168.465 493.056 168.465C585.448 168.465 677.845 168.465 770.238 168.465C814.378 168.465 858.518 168.465 902.658 168.465C924.01 168.465 945.361 168.465 966.712 168.465C977.709 168.465 988.705 168.465 999.702 168.465C1010.08 168.465 1020.45 168.478 1030.83 168.483C1046.01 168.491 1061.19 168.491 1076.37 168.487C1082.5 168.487 1088.62 168.487 1094.75 168.487C1098.82 168.487 1102.9 168.487 1106.98 168.487C1109.17 168.487 1111.37 168.487 1113.57 168.487C1125.83 168.487 1138.09 168.487 1150.35 168.487C1163.47 168.487 1176.58 168.491 1189.7 168.491C1199.59 168.491 1209.48 168.491 1219.36 168.491C1229.25 168.491 1239.14 168.491 1249.02 168.491C1251.91 168.491 1254.8 168.491 1257.7 168.487C1260.59 168.487 1263.49 168.478 1266.36 168.487C1266.49 168.487 1266.61 168.487 1266.73 168.487C1266.86 168.487 1266.98 168.491 1267.1 168.5C1267.89 168.534 1268.66 168.624 1269.43 168.765C1270.2 168.906 1270.96 169.099 1271.7 169.343C1272.58 169.629 1273.43 169.98 1274.26 170.399C1274.68 170.609 1275.08 170.836 1275.48 171.076C1275.83 171.289 1276.17 171.516 1276.5 171.752C1277.14 172.201 1277.73 172.689 1278.3 173.219C1278.79 173.673 1279.25 174.152 1279.68 174.661C1280.32 175.401 1280.89 176.193 1281.39 177.027C1281.89 177.862 1282.33 178.735 1282.69 179.637C1282.87 180.091 1283.02 180.549 1283.17 181.015C1283.25 181.298 1283.34 181.58 1283.4 181.862C1283.46 182.085 1283.51 182.307 1283.56 182.534C1283.65 182.983 1283.73 183.433 1283.79 183.886C1283.85 184.314 1283.88 184.742 1283.91 185.17C1283.92 185.397 1283.93 185.623 1283.93 185.855C1283.94 186.163 1283.94 186.475 1283.94 186.787C1283.94 187.1 1283.94 187.412 1283.94 187.729C1283.94 199.166 1283.95 210.607 1283.95 222.045C1283.95 233.482 1283.95 244.919 1283.95 256.357C1283.95 268.975 1283.95 281.593 1283.95 294.211C1283.95 306.829 1283.94 319.448 1283.94 332.057C1283.94 332.857 1283.94 333.658 1283.94 334.458C1283.94 335.262 1283.94 336.067 1283.93 336.854C1283.93 337.085 1283.92 337.316 1283.91 337.543C1283.89 337.761 1283.88 337.975 1283.86 338.193C1283.84 338.411 1283.81 338.63 1283.79 338.844C1283.76 339.07 1283.72 339.293 1283.68 339.52C1283.64 339.746 1283.6 339.969 1283.55 340.191C1283.51 340.414 1283.46 340.641 1283.4 340.863C1283.34 341.116 1283.27 341.368 1283.19 341.616C1283.05 342.083 1282.9 342.545 1282.72 343.003C1282.36 343.91 1281.94 344.787 1281.44 345.621C1280.94 346.46 1280.38 347.251 1279.75 347.996C1279.31 348.522 1278.83 349.019 1278.33 349.489C1277.76 350.02 1277.16 350.512 1276.53 350.961C1276.2 351.196 1275.87 351.423 1275.52 351.637C1275.12 351.881 1274.72 352.108 1274.31 352.318C1273.48 352.737 1272.63 353.096 1271.75 353.383C1270.25 353.875 1268.69 354.17 1267.11 354.239C1266.87 354.247 1266.62 354.256 1266.38 354.26C1265.36 354.277 1264.33 354.269 1263.29 354.26C1262.25 354.252 1261.22 354.256 1260.18 354.252C1258.11 354.252 1256.05 354.252 1253.97 354.252C1249.01 354.252 1244.04 354.252 1239.08 354.252C1234.11 354.252 1229.14 354.252 1224.18 354.252C1219.21 354.252 1214.25 354.252 1209.28 354.252C1204.31 354.252 1199.35 354.252 1194.38 354.252C1181.74 354.252 1169.09 354.252 1156.45 354.256C1150.13 354.256 1143.81 354.256 1137.48 354.256C1131.16 354.256 1124.84 354.256 1118.52 354.256C1112.54 354.256 1106.56 354.256 1100.58 354.256C1100.28 354.256 1099.97 354.256 1099.67 354.256C1099.67 292.329 1099.67 230.397 1099.67 168.47C1100.48 168.47 1101.28 168.47 1102.09 168.47V354.256" stroke="black" stroke-width="0.213941" stroke-miterlimit="10"/>
<path d="M182.699 159.644C182.943 159.644 183.157 159.602 183.375 159.499C183.418 159.721 183.46 159.944 183.503 160.166C183.366 160.235 183.225 160.286 183.075 160.316C182.9 160.355 182.729 160.372 182.549 160.368C182.232 160.376 181.946 160.32 181.65 160.196C181.407 160.094 181.24 159.948 181.103 159.726C180.966 159.503 180.91 159.289 180.919 159.028C180.91 158.528 181.197 158.066 181.65 157.852C181.89 157.732 182.121 157.676 182.386 157.685C182.733 157.659 183.071 157.796 183.302 158.053C183.563 158.378 183.653 158.686 183.619 159.097C183.092 159.161 182.57 159.229 182.044 159.294C182.164 159.537 182.425 159.674 182.695 159.64L182.699 159.644Z" stroke="black" stroke-width="0.213941" stroke-miterlimit="10"/>
<path d="M169.801 160.329V156.748H171.067C171.521 156.735 171.94 156.803 172.364 156.97C172.698 157.094 172.92 157.282 173.1 157.591C173.271 157.886 173.344 158.172 173.335 158.515C173.365 159.024 173.151 159.52 172.762 159.85C172.347 160.201 171.726 160.325 171.016 160.325C170.609 160.325 170.207 160.325 169.801 160.325V160.329Z" stroke="black" stroke-width="0.213941" stroke-miterlimit="10"/>
<path d="M171.315 159.421C171.584 159.442 171.764 159.369 171.944 159.168C172.106 158.963 172.17 158.766 172.149 158.505C172.166 158.261 172.106 158.081 171.952 157.893C171.764 157.709 171.576 157.641 171.315 157.662H170.977V159.425H171.315V159.421Z" stroke="black" stroke-width="0.213941" stroke-miterlimit="10"/>
<path d="M190.127 161.339C190.003 161.33 189.874 161.322 189.75 161.313C189.66 161.292 189.566 161.27 189.476 161.249C189.506 160.996 189.532 160.748 189.562 160.496C189.63 160.509 189.699 160.517 189.767 160.53C189.84 160.534 189.913 160.538 189.985 160.543C190.187 160.568 190.336 160.526 190.499 160.397C190.636 160.265 190.683 160.141 190.653 159.952V159.657C190.584 159.867 190.477 160.004 190.294 160.115C190.118 160.222 189.947 160.265 189.742 160.256C189.446 160.273 189.16 160.141 188.98 159.905C188.77 159.593 188.689 159.293 188.71 158.917V157.719H189.827V158.977C189.827 159.067 189.831 159.156 189.87 159.251C189.904 159.332 189.973 159.443 190.161 159.443C190.311 159.443 190.405 159.4 190.49 159.276C190.589 159.139 190.627 159.007 190.614 158.84V157.723H191.731V159.721C191.765 160.171 191.616 160.611 191.312 160.945C190.982 161.227 190.559 161.369 190.127 161.339Z" stroke="black" stroke-width="0.213941" stroke-miterlimit="10"/>
<path d="M165.018 159.465C165.677 158.814 166.34 158.164 166.999 157.514C167.243 157.753 167.487 157.997 167.731 158.237C168.188 158.686 168.188 159.426 167.731 159.871C167.102 160.483 166.477 161.099 165.848 161.711C165.386 162.165 164.646 162.165 164.179 161.711C163.55 161.099 162.925 160.483 162.296 159.871C161.839 159.422 161.839 158.686 162.296 158.237C162.54 157.997 162.784 157.753 163.028 157.514C163.931 158.404 164.838 159.294 165.741 160.179C166.207 160.629 166.943 160.629 167.41 160.179" stroke="black" stroke-width="0.213941" stroke-miterlimit="10"/>
<path d="M179.008 159.551C179.166 159.551 179.277 159.513 179.389 159.402C179.504 159.295 179.547 159.188 179.543 159.034C179.547 158.875 179.504 158.768 179.389 158.666C179.277 158.554 179.166 158.512 179.008 158.516C178.85 158.503 178.747 158.546 178.636 158.661C178.516 158.764 178.473 158.871 178.482 159.029C178.473 159.188 178.52 159.299 178.636 159.406C178.743 159.517 178.85 159.564 179.008 159.56V159.551Z" stroke="black" stroke-width="0.213941" stroke-miterlimit="10"/>
<path d="M176.35 160.359C176.166 160.376 176.038 160.333 175.905 160.205C175.789 160.098 175.747 159.987 175.751 159.829C175.742 159.666 175.789 159.559 175.914 159.452C176.046 159.332 176.17 159.289 176.35 159.302C176.53 159.285 176.654 159.332 176.782 159.456C176.902 159.559 176.949 159.666 176.945 159.824C176.958 159.987 176.915 160.098 176.795 160.209C176.662 160.329 176.534 160.372 176.354 160.355" stroke="black" stroke-width="0.213941" stroke-miterlimit="10"/>
<path d="M166.123 157.108C166.123 156.847 166.054 156.642 165.887 156.436C165.669 156.167 165.344 156.021 165.001 156.025C164.651 156.025 164.347 156.175 164.133 156.449C163.97 156.654 163.906 156.86 163.91 157.121C163.91 157.382 163.987 157.583 164.15 157.788C164.372 158.062 164.676 158.203 165.031 158.199C165.387 158.199 165.678 158.049 165.891 157.776C166.054 157.57 166.123 157.369 166.123 157.108Z" stroke="black" stroke-width="0.213941" stroke-miterlimit="10"/>
<line x1="188.535" y1="187.859" x2="188.535" y2="335.09" stroke="#111111" stroke-width="0.5" stroke-linecap="square" stroke-dasharray="2.26 2.26"/>
<line x1="238.504" y1="187.859" x2="238.504" y2="335.09" stroke="#111111" stroke-width="0.5" stroke-linecap="square" stroke-dasharray="2.26 2.26"/>
<line x1="288.473" y1="187.859" x2="288.473" y2="335.09" stroke="#111111" stroke-width="0.5" stroke-linecap="square" stroke-dasharray="2.26 2.26"/>
<line x1="338.437" y1="187.859" x2="338.438" y2="335.09" stroke="#111111" stroke-width="0.5" stroke-linecap="square" stroke-dasharray="2.26 2.26"/>
</g>
<g filter="url(#filter2_d_514_2960)">
<g filter="url(#filter3_d_514_2960)">
<circle cx="180.5" cy="50" r="14" fill="url(#paint1_linear_514_2960)"/>
</g>
<g filter="url(#filter4_f_514_2960)">
<ellipse cx="180.5" cy="48.6795" rx="13.425" ry="12.6795" fill="#FF4319"/>
</g>
</g>
<path d="M184.5 46L176.5 54" stroke="white" stroke-width="1.33333" stroke-linecap="round" stroke-linejoin="round"/>
<path d="M176.5 46L184.5 54" stroke="white" stroke-width="1.33333" stroke-linecap="round" stroke-linejoin="round"/>
<path d="M124.732 86V74.7266H126.482L132.022 82.4922H132.147V74.7266H134.084V86H132.342L126.803 78.2344H126.678V86H124.732ZM140.037 86.1719C137.475 86.1719 135.928 84.5 135.928 81.7344V81.7188C135.928 78.9766 137.498 77.2969 140.037 77.2969C142.584 77.2969 144.147 78.9688 144.147 81.7188V81.7344C144.147 84.5 142.592 86.1719 140.037 86.1719ZM140.037 84.5938C141.389 84.5938 142.155 83.5391 142.155 81.7422V81.7266C142.155 79.9297 141.381 78.8672 140.037 78.8672C138.686 78.8672 137.912 79.9297 137.912 81.7266V81.7422C137.912 83.5391 138.686 84.5938 140.037 84.5938ZM149.139 86.0391C147.178 86.0391 146.374 85.3828 146.374 83.7344V78.9688H145.046V77.4609H146.374V75.3672H148.35V77.4609H150.155V78.9688H148.35V83.2734C148.35 84.125 148.686 84.4844 149.499 84.4844C149.772 84.4844 149.921 84.4766 150.155 84.4531V85.9531C149.874 86.0078 149.514 86.0391 149.139 86.0391ZM160.624 86.2812C157.429 86.2812 155.445 84.0156 155.445 80.375V80.3594C155.445 76.7031 157.421 74.4453 160.617 74.4453C163.179 74.4453 165.124 76.0703 165.39 78.375V78.4375H163.413L163.406 78.4062C163.117 77.0703 162.038 76.1875 160.617 76.1875C158.702 76.1875 157.507 77.7891 157.507 80.3516V80.3672C157.507 82.9375 158.702 84.5391 160.624 84.5391C162.054 84.5391 163.117 83.7422 163.406 82.5L163.413 82.4609H165.39V82.5156C165.093 84.7734 163.226 86.2812 160.624 86.2812ZM170.804 86.1719C168.242 86.1719 166.695 84.5 166.695 81.7344V81.7188C166.695 78.9766 168.265 77.2969 170.804 77.2969C173.351 77.2969 174.914 78.9688 174.914 81.7188V81.7344C174.914 84.5 173.359 86.1719 170.804 86.1719ZM170.804 84.5938C172.156 84.5938 172.922 83.5391 172.922 81.7422V81.7266C172.922 79.9297 172.148 78.8672 170.804 78.8672C169.453 78.8672 168.679 79.9297 168.679 81.7266V81.7422C168.679 83.5391 169.453 84.5938 170.804 84.5938ZM176.547 86V77.4609H178.492V78.7656H178.625C179.031 77.8516 179.852 77.2969 181.086 77.2969C182.992 77.2969 184.031 78.4453 184.031 80.4766V86H182.086V80.9297C182.086 79.6016 181.547 78.9297 180.367 78.9297C179.211 78.9297 178.492 79.7422 178.492 81.0234V86H176.547ZM186.008 86V77.4609H187.953V78.7656H188.086C188.492 77.8516 189.313 77.2969 190.547 77.2969C192.453 77.2969 193.492 78.4453 193.492 80.4766V86H191.547V80.9297C191.547 79.6016 191.008 78.9297 189.828 78.9297C188.672 78.9297 187.953 79.7422 187.953 81.0234V86H186.008ZM199.126 86.1719C196.587 86.1719 195.048 84.4688 195.048 81.75V81.7422C195.048 79.0547 196.602 77.2969 199.032 77.2969C201.462 77.2969 202.962 79 202.962 81.5781V82.2188H196.993C197.016 83.75 197.844 84.6406 199.165 84.6406C200.219 84.6406 200.821 84.1094 201.008 83.7188L201.032 83.6641H202.883L202.86 83.7344C202.587 84.8359 201.446 86.1719 199.126 86.1719ZM199.055 78.8203C197.969 78.8203 197.157 79.5547 197.008 80.9141H201.063C200.93 79.5156 200.141 78.8203 199.055 78.8203ZM208.251 86.1719C205.681 86.1719 204.165 84.5078 204.165 81.7188V81.7031C204.165 78.9453 205.673 77.2969 208.243 77.2969C210.438 77.2969 211.751 78.5156 211.97 80.2812V80.3125H210.134L210.126 80.2891C209.946 79.4609 209.313 78.8672 208.251 78.8672C206.923 78.8672 206.142 79.9141 206.142 81.7031V81.7188C206.142 83.5312 206.931 84.5938 208.251 84.5938C209.259 84.5938 209.876 84.1328 210.118 83.2344L210.134 83.2031L211.97 83.1953L211.954 83.2578C211.673 85.0078 210.415 86.1719 208.251 86.1719ZM216.97 86.0391C215.009 86.0391 214.204 85.3828 214.204 83.7344V78.9688H212.876V77.4609H214.204V75.3672H216.181V77.4609H217.986V78.9688H216.181V83.2734C216.181 84.125 216.517 84.4844 217.329 84.4844C217.603 84.4844 217.751 84.4766 217.986 84.4531V85.9531C217.704 86.0078 217.345 86.0391 216.97 86.0391ZM223.181 86.1719C220.642 86.1719 219.103 84.4688 219.103 81.75V81.7422C219.103 79.0547 220.658 77.2969 223.088 77.2969C225.517 77.2969 227.017 79 227.017 81.5781V82.2188H221.048C221.072 83.75 221.9 84.6406 223.22 84.6406C224.275 84.6406 224.877 84.1094 225.064 83.7188L225.088 83.6641H226.939L226.916 83.7344C226.642 84.8359 225.502 86.1719 223.181 86.1719ZM223.111 78.8203C222.025 78.8203 221.213 79.5547 221.064 80.9141H225.119C224.986 79.5156 224.197 78.8203 223.111 78.8203ZM231.721 86.1406C229.58 86.1406 228.221 84.4453 228.221 81.7422V81.7266C228.221 79.0078 229.557 77.3203 231.721 77.3203C232.893 77.3203 233.869 77.8984 234.314 78.8203H234.447V74.1562H236.4V86H234.447V84.6641H234.314C233.846 85.5938 232.924 86.1406 231.721 86.1406ZM232.33 84.5C233.658 84.5 234.478 83.4531 234.478 81.7422V81.7266C234.478 80.0156 233.65 78.9609 232.33 78.9609C231.01 78.9609 230.197 80.0078 230.197 81.7266V81.7422C230.197 83.4609 231.002 84.5 232.33 84.5Z" fill="#111111"/>
<path d="M49.9108 109L47.9938 102.157H49.0983L50.444 107.629H50.5455L52.0753 102.157H53.1227L54.6525 107.629H54.754L56.0997 102.157H57.1979L55.2809 109H54.1701L52.6403 103.706H52.5387L51.0153 109H49.9108ZM59.1638 100.837C58.7449 100.837 58.4021 100.494 58.4021 100.075C58.4021 99.6562 58.7449 99.3135 59.1638 99.3135C59.5828 99.3135 59.9256 99.6562 59.9256 100.075C59.9256 100.494 59.5828 100.837 59.1638 100.837ZM58.6052 109V102.157H59.7097V109H58.6052ZM61.6186 105.826V104.798H65.8842V105.826H61.6186ZM67.9707 109V103.071H66.8345V102.157H67.9707V101.396C67.9707 100.031 68.6563 99.377 69.9575 99.377C70.2241 99.377 70.4654 99.396 70.6939 99.4404V100.323C70.5606 100.297 70.3765 100.291 70.1797 100.291C69.3926 100.291 69.0752 100.678 69.0752 101.427V102.157H70.6304V103.071H69.0752V109H67.9707ZM72.7296 100.837C72.3107 100.837 71.9679 100.494 71.9679 100.075C71.9679 99.6562 72.3107 99.3135 72.7296 99.3135C73.1486 99.3135 73.4914 99.6562 73.4914 100.075C73.4914 100.494 73.1486 100.837 72.7296 100.837ZM72.171 109V102.157H73.2755V109H72.171ZM83.9135 100.095H87.4495V100.979H83.9135V100.095ZM83.9135 102.916H87.4495V103.8H83.9135V102.916ZM87.0595 98.275H88.1385V106.959H87.0595V98.275ZM80.6375 108.87H88.4635V109.754H80.6375V108.87ZM80.6375 106.062H81.7165V109.26H80.6375V106.062ZM81.6775 99.016C83.4065 99.016 84.7065 100.225 84.7065 101.954C84.7065 103.683 83.4065 104.892 81.6775 104.892C79.9485 104.892 78.6485 103.683 78.6485 101.954C78.6485 100.225 79.9485 99.016 81.6775 99.016ZM81.6775 99.965C80.5335 99.965 79.6885 100.797 79.6885 101.954C79.6885 103.124 80.5335 103.956 81.6775 103.956C82.8215 103.956 83.6795 103.124 83.6795 101.954C83.6795 100.797 82.8215 99.965 81.6775 99.965ZM98.9405 98.262H100.019V104.255H98.9405V98.262ZM95.2225 98.834H96.3925C96.3925 101.798 94.3515 103.696 90.9195 104.528L90.5425 103.644C93.5845 102.942 95.2225 101.395 95.2225 99.367V98.834ZM91.1535 98.834H95.7165V99.718H91.1535V98.834ZM95.9765 99.952H99.1225V100.81H95.9765V99.952ZM95.8725 102.201H99.0575V103.046H95.8725V102.201ZM92.4535 104.801H100.019V107.687H93.5585V109.559H92.4925V106.855H98.9535V105.672H92.4535V104.801ZM92.4925 109.039H100.409V109.897H92.4925V109.039ZM107.545 98.457C110.132 98.457 111.679 99.185 111.679 100.498C111.679 101.811 110.132 102.539 107.545 102.539C104.945 102.539 103.411 101.811 103.411 100.498C103.411 99.185 104.945 98.457 107.545 98.457ZM107.545 99.276C105.621 99.276 104.516 99.718 104.516 100.498C104.516 101.278 105.621 101.72 107.545 101.72C109.456 101.72 110.561 101.278 110.561 100.498C110.561 99.718 109.456 99.276 107.545 99.276ZM102.228 103.319H112.849V104.19H102.228V103.319ZM103.515 105.191H111.497V107.843H104.607V109.273H103.541V107.063H110.431V106.023H103.515V105.191ZM103.541 109.039H111.848V109.884H103.541V109.039ZM120.769 103.774H121.848V105.282H120.769V103.774ZM125.722 98.275H126.801V106.153H125.722V98.275ZM126.346 101.824H128.517V102.721H126.346V101.824ZM117.766 105.815L117.623 104.931C119.729 104.931 122.589 104.931 125.02 104.58L125.111 105.347C122.602 105.789 119.82 105.802 117.766 105.815ZM119.079 106.738H126.801V110.014H125.722V107.596H119.079V106.738ZM117.922 99.328H124.669V100.134H117.922V99.328ZM121.302 100.589C122.953 100.589 124.032 101.252 124.032 102.331C124.032 103.41 122.953 104.073 121.302 104.073C119.638 104.073 118.559 103.41 118.559 102.331C118.559 101.252 119.638 100.589 121.302 100.589ZM121.302 101.33C120.249 101.33 119.573 101.707 119.573 102.331C119.573 102.929 120.249 103.319 121.302 103.319C122.342 103.319 123.018 102.929 123.018 102.331C123.018 101.707 122.342 101.33 121.302 101.33ZM120.769 98.171H121.848V99.718H120.769V98.171ZM138.123 98.275H139.215V106.855H138.123V98.275ZM131.662 108.87H139.566V109.754H131.662V108.87ZM131.662 105.971H132.728V109.169H131.662V105.971ZM132.91 99.081C134.665 99.081 135.965 100.277 135.965 101.98C135.965 103.67 134.665 104.879 132.91 104.879C131.155 104.879 129.842 103.67 129.842 101.98C129.842 100.277 131.155 99.081 132.91 99.081ZM132.91 100.017C131.766 100.017 130.895 100.823 130.895 101.98C130.895 103.124 131.766 103.93 132.91 103.93C134.054 103.93 134.925 103.124 134.925 101.98C134.925 100.823 134.054 100.017 132.91 100.017ZM141.437 100.264H147.261V101.148H141.437V100.264ZM144.349 101.928C145.818 101.928 146.884 103.033 146.884 104.619C146.884 106.192 145.818 107.297 144.349 107.297C142.893 107.297 141.827 106.192 141.827 104.619C141.827 103.033 142.893 101.928 144.349 101.928ZM144.349 102.851C143.452 102.851 142.802 103.579 142.802 104.619C142.802 105.659 143.452 106.387 144.349 106.387C145.259 106.387 145.922 105.659 145.922 104.619C145.922 103.579 145.259 102.851 144.349 102.851ZM150.368 98.262H151.408V110.014H150.368V98.262ZM148.496 103.202H150.719V104.099H148.496V103.202ZM147.859 98.522H148.873V109.442H147.859V98.522ZM143.829 98.6H144.895V100.81H143.829V98.6ZM158.05 99.419H158.986V99.913C158.986 102.019 156.75 103.566 154.384 103.969L153.968 103.111C156.035 102.812 158.05 101.46 158.05 99.913V99.419ZM158.323 99.419H159.246V99.913C159.246 101.46 161.274 102.812 163.328 103.111L162.925 103.969C160.546 103.566 158.323 102.019 158.323 99.913V99.419ZM158.089 105.529H159.155V110.014H158.089V105.529ZM153.344 104.957H163.965V105.841H153.344V104.957ZM154.332 98.99H162.938V99.861H154.332V98.99ZM169.853 102.461H172.102V103.358H169.853V102.461ZM167.656 99.367H168.501V101.603C168.501 104.06 167.474 106.439 165.758 107.492L165.082 106.673C166.694 105.724 167.656 103.618 167.656 101.603V99.367ZM167.864 99.367H168.696V101.564C168.696 103.449 169.58 105.451 171.127 106.387L170.503 107.232C168.813 106.192 167.864 103.852 167.864 101.564V99.367ZM174.169 98.262H175.209V110.014H174.169V98.262ZM171.79 98.509H172.804V109.429H171.79V98.509ZM179.706 104.307H180.772V107.83H179.706V104.307ZM184.048 104.307H185.127V107.83H184.048V104.307ZM177.106 107.622H187.753V108.519H177.106V107.622ZM182.41 99.003C184.893 99.003 186.674 100.186 186.674 102.032C186.674 103.865 184.893 105.048 182.41 105.048C179.914 105.048 178.133 103.865 178.133 102.032C178.133 100.186 179.914 99.003 182.41 99.003ZM182.41 99.861C180.525 99.861 179.173 100.719 179.173 102.032C179.173 103.332 180.525 104.19 182.41 104.19C184.295 104.19 185.634 103.332 185.634 102.032C185.634 100.719 184.295 99.861 182.41 99.861ZM190.266 109.063C189.816 109.063 189.441 108.689 189.441 108.238C189.441 107.781 189.816 107.413 190.266 107.413C190.723 107.413 191.091 107.781 191.091 108.238C191.091 108.689 190.723 109.063 190.266 109.063ZM202.573 101.499H205.537V102.383H202.573V101.499ZM204.926 98.275H206.005V106.881H204.926V98.275ZM198.504 108.87H206.33V109.754H198.504V108.87ZM198.504 106.127H199.583V109.325H198.504V106.127ZM199.336 99.731H200.22V100.68C200.22 102.812 198.894 104.658 196.931 105.386L196.372 104.528C198.127 103.904 199.336 102.344 199.336 100.68V99.731ZM199.544 99.731H200.415V100.667C200.415 102.188 201.559 103.67 203.262 104.268L202.716 105.113C200.805 104.424 199.544 102.656 199.544 100.667V99.731ZM196.71 99.224H202.989V100.095H196.71V99.224ZM211.555 104.177H212.634V106.79H211.555V104.177ZM216.768 98.262H217.847V107.206H216.768V98.262ZM209.826 108.87H218.133V109.754H209.826V108.87ZM209.826 106.335H210.905V109.117H209.826V106.335ZM208.305 104.58L208.162 103.696C210.333 103.696 213.245 103.67 215.741 103.345L215.819 104.138C213.284 104.541 210.437 104.58 208.305 104.58ZM214.376 105.204H217.041V105.997H214.376V105.204ZM211.984 98.743C213.7 98.743 214.87 99.549 214.87 100.784C214.87 102.032 213.7 102.838 211.984 102.838C210.255 102.838 209.085 102.032 209.085 100.784C209.085 99.549 210.255 98.743 211.984 98.743ZM211.984 99.549C210.879 99.549 210.112 100.03 210.112 100.784C210.112 101.538 210.879 102.019 211.984 102.019C213.076 102.019 213.843 101.538 213.843 100.784C213.843 100.03 213.076 99.549 211.984 99.549ZM226.819 99.159C228.522 99.159 229.744 100.758 229.744 103.254C229.744 105.763 228.522 107.362 226.819 107.362C225.103 107.362 223.894 105.763 223.894 103.254C223.894 100.758 225.103 99.159 226.819 99.159ZM226.819 100.134C225.688 100.134 224.921 101.356 224.921 103.254C224.921 105.165 225.688 106.413 226.819 106.413C227.95 106.413 228.717 105.165 228.717 103.254C228.717 101.356 227.95 100.134 226.819 100.134ZM232.292 98.249H233.358V110.027H232.292V98.249ZM229.393 102.734H232.76V103.618H229.393V102.734ZM244.433 98.262H245.46V104.684H244.433V98.262ZM242.535 101.057H244.758V101.941H242.535V101.057ZM241.846 98.483H242.86V104.58H241.846V98.483ZM236.087 103.345H236.828C238.544 103.345 239.714 103.293 241.118 103.007L241.209 103.878C239.766 104.177 238.583 104.229 236.828 104.229H236.087V103.345ZM236.087 99.12H240.559V99.991H237.14V103.93H236.087V99.12ZM237.764 105.23H238.83V106.621H244.42V105.23H245.46V109.845H237.764V105.23ZM238.83 107.466V108.961H244.42V107.466H238.83ZM256.054 98.249H257.12V110.027H256.054V98.249ZM253.61 102.682H256.21V103.579H253.61V102.682ZM247.981 106.309H248.878C251.088 106.309 252.479 106.27 254.13 105.958L254.234 106.842C252.544 107.141 251.114 107.206 248.878 107.206H247.981V106.309ZM247.981 99.328H253.415V100.225H249.047V106.621H247.981V99.328ZM248.774 102.63H252.908V103.501H248.774V102.63ZM263.138 99.107C264.971 99.107 266.284 100.238 266.284 101.876C266.284 103.527 264.971 104.658 263.138 104.658C261.305 104.658 259.979 103.527 259.979 101.876C259.979 100.238 261.305 99.107 263.138 99.107ZM263.138 100.043C261.916 100.043 261.032 100.784 261.032 101.876C261.032 102.968 261.916 103.722 263.138 103.722C264.347 103.722 265.231 102.968 265.231 101.876C265.231 100.784 264.347 100.043 263.138 100.043ZM267.818 98.249H268.897V110.027H267.818V98.249ZM259.537 107.453L259.381 106.556C261.526 106.556 264.49 106.543 267.051 106.14L267.142 106.933C264.503 107.44 261.63 107.453 259.537 107.453ZM280.223 100.095H283.759V100.979H280.223V100.095ZM280.223 102.916H283.759V103.8H280.223V102.916ZM283.369 98.275H284.448V106.959H283.369V98.275ZM276.947 108.87H284.773V109.754H276.947V108.87ZM276.947 106.062H278.026V109.26H276.947V106.062ZM277.987 99.016C279.716 99.016 281.016 100.225 281.016 101.954C281.016 103.683 279.716 104.892 277.987 104.892C276.258 104.892 274.958 103.683 274.958 101.954C274.958 100.225 276.258 99.016 277.987 99.016ZM277.987 99.965C276.843 99.965 275.998 100.797 275.998 101.954C275.998 103.124 276.843 103.956 277.987 103.956C279.131 103.956 279.989 103.124 279.989 101.954C279.989 100.797 279.131 99.965 277.987 99.965ZM295.25 98.262H296.329V104.255H295.25V98.262ZM291.532 98.834H292.702C292.702 101.798 290.661 103.696 287.229 104.528L286.852 103.644C289.894 102.942 291.532 101.395 291.532 99.367V98.834ZM287.463 98.834H292.026V99.718H287.463V98.834ZM292.286 99.952H295.432V100.81H292.286V99.952ZM292.182 102.201H295.367V103.046H292.182V102.201ZM288.763 104.801H296.329V107.687H289.868V109.559H288.802V106.855H295.263V105.672H288.763V104.801ZM288.802 109.039H296.719V109.897H288.802V109.039ZM307.079 98.249H308.158V110.027H307.079V98.249ZM301.957 99.159C303.699 99.159 304.947 100.758 304.947 103.254C304.947 105.763 303.699 107.362 301.957 107.362C300.228 107.362 298.98 105.763 298.98 103.254C298.98 100.758 300.228 99.159 301.957 99.159ZM301.957 100.134C300.813 100.134 300.007 101.356 300.007 103.254C300.007 105.165 300.813 106.413 301.957 106.413C303.114 106.413 303.907 105.165 303.907 103.254C303.907 101.356 303.114 100.134 301.957 100.134ZM75.2138 120.994H85.8738V121.865H75.2138V120.994ZM76.2018 116.795H79.3218V117.692H76.2018V116.795ZM78.9578 116.795H80.0108V117.237C80.0108 117.991 80.0108 119.447 79.4778 121.423L78.4248 121.215C78.9578 119.291 78.9578 117.991 78.9578 117.237V116.795ZM80.8168 116.795H83.9758V117.692H80.8168V116.795ZM83.5208 116.795H84.5608V117.302C84.5608 118.121 84.5608 119.512 84.0798 121.462L83.0398 121.28C83.5208 119.382 83.5208 118.095 83.5208 117.302V116.795ZM79.8548 123.49H85.1588V124.309H79.8548V123.49ZM82.5328 124.816C83.7418 124.816 84.5998 125.427 84.5998 126.402C84.5998 127.39 83.7418 128.001 82.5328 128.001C81.3368 128.001 80.4788 127.39 80.4788 126.402C80.4788 125.427 81.3368 124.816 82.5328 124.816ZM82.5328 125.57C81.8568 125.57 81.4018 125.882 81.4018 126.402C81.4018 126.935 81.8568 127.247 82.5328 127.247C83.2088 127.247 83.6638 126.935 83.6638 126.402C83.6638 125.882 83.2088 125.57 82.5328 125.57ZM82.0128 122.489H83.0658V124.088H82.0128V122.489ZM76.4618 126.818H77.0468C77.7488 126.818 78.8408 126.766 79.9978 126.454L80.1408 127.338C78.9058 127.663 77.8398 127.702 77.0468 127.702H76.4618V126.818ZM76.4618 123.386H77.5148V127.143H76.4618V123.386ZM92.7238 118.212H95.8568V119.096H92.7238V118.212ZM92.6328 120.656H95.8048V121.553H92.6328V120.656ZM92.0218 117.016H93.1658C93.1658 119.98 91.0598 122.112 87.6668 123.048L87.2508 122.203C90.2278 121.371 92.0218 119.655 92.0218 117.484V117.016ZM87.8878 117.016H92.7628V117.887H87.8878V117.016ZM95.6878 116.262H96.7668V122.97H95.6878V116.262ZM90.0588 123.295H90.8908V124.127C90.8908 125.687 89.9418 127.247 88.2388 127.897L87.6928 127.091C89.1748 126.545 90.0588 125.271 90.0588 124.127V123.295ZM90.2928 123.295H91.0988V124.127C91.0988 125.323 91.8008 126.61 93.2048 127.182L92.7498 127.988C91.0598 127.325 90.2928 125.7 90.2928 124.127V123.295ZM94.4008 123.295H95.2068V124.127C95.2068 125.518 94.4268 127.286 92.7498 127.988L92.2948 127.182C93.6858 126.532 94.4008 125.154 94.4008 124.127V123.295ZM94.6088 123.295H95.4538V124.127C95.4538 125.362 96.3118 126.584 97.8198 127.091L97.2738 127.897C95.5578 127.273 94.6088 125.765 94.6088 124.127V123.295ZM104.293 116.457C106.88 116.457 108.427 117.185 108.427 118.498C108.427 119.811 106.88 120.539 104.293 120.539C101.693 120.539 100.159 119.811 100.159 118.498C100.159 117.185 101.693 116.457 104.293 116.457ZM104.293 117.276C102.369 117.276 101.264 117.718 101.264 118.498C101.264 119.278 102.369 119.72 104.293 119.72C106.204 119.72 107.309 119.278 107.309 118.498C107.309 117.718 106.204 117.276 104.293 117.276ZM98.9758 121.319H109.597V122.19H98.9758V121.319ZM100.263 123.191H108.245V125.843H101.355V127.273H100.289V125.063H107.179V124.023H100.263V123.191ZM100.289 127.039H108.596V127.884H100.289V127.039ZM117.542 117.276H118.426V119.382C118.426 122.086 116.97 124.595 115.046 125.57L114.383 124.686C116.125 123.854 117.542 121.605 117.542 119.382V117.276ZM117.724 117.276H118.608V119.382C118.608 121.527 120.012 123.685 121.754 124.491L121.104 125.349C119.193 124.413 117.724 121.995 117.724 119.382V117.276ZM122.976 116.249H124.055V128.027H122.976V116.249ZM131.087 120.825H133.31V121.722H131.087V120.825ZM135.273 116.262H136.313V128.014H135.273V116.262ZM132.946 116.509H133.973V127.429H132.946V116.509ZM128.968 117.237C130.489 117.237 131.477 118.81 131.477 121.332C131.477 123.854 130.489 125.427 128.968 125.427C127.447 125.427 126.472 123.854 126.472 121.332C126.472 118.81 127.447 117.237 128.968 117.237ZM128.968 118.238C128.045 118.238 127.46 119.434 127.46 121.332C127.46 123.23 128.045 124.426 128.968 124.426C129.904 124.426 130.489 123.23 130.489 121.332C130.489 119.434 129.904 118.238 128.968 118.238ZM139.549 121.748H147.622V122.632H139.549V121.748ZM138.21 125.635H148.857V126.545H138.21V125.635ZM142.968 122.125H144.047V125.999H142.968V122.125ZM139.549 117.198H147.505V118.082H140.628V122.138H139.549V117.198ZM159.103 118.095H162.639V118.979H159.103V118.095ZM159.103 120.916H162.639V121.8H159.103V120.916ZM162.249 116.275H163.328V124.959H162.249V116.275ZM155.827 126.87H163.653V127.754H155.827V126.87ZM155.827 124.062H156.906V127.26H155.827V124.062ZM156.867 117.016C158.596 117.016 159.896 118.225 159.896 119.954C159.896 121.683 158.596 122.892 156.867 122.892C155.138 122.892 153.838 121.683 153.838 119.954C153.838 118.225 155.138 117.016 156.867 117.016ZM156.867 117.965C155.723 117.965 154.878 118.797 154.878 119.954C154.878 121.124 155.723 121.956 156.867 121.956C158.011 121.956 158.869 121.124 158.869 119.954C158.869 118.797 158.011 117.965 156.867 117.965ZM174.13 116.262H175.209V122.255H174.13V116.262ZM170.412 116.834H171.582C171.582 119.798 169.541 121.696 166.109 122.528L165.732 121.644C168.774 120.942 170.412 119.395 170.412 117.367V116.834ZM166.343 116.834H170.906V117.718H166.343V116.834ZM171.166 117.952H174.312V118.81H171.166V117.952ZM171.062 120.201H174.247V121.046H171.062V120.201ZM167.643 122.801H175.209V125.687H168.748V127.559H167.682V124.855H174.143V123.672H167.643V122.801ZM167.682 127.039H175.599V127.897H167.682V127.039ZM185.959 116.249H187.038V128.027H185.959V116.249ZM180.837 117.159C182.579 117.159 183.827 118.758 183.827 121.254C183.827 123.763 182.579 125.362 180.837 125.362C179.108 125.362 177.86 123.763 177.86 121.254C177.86 118.758 179.108 117.159 180.837 117.159ZM180.837 118.134C179.693 118.134 178.887 119.356 178.887 121.254C178.887 123.165 179.693 124.413 180.837 124.413C181.994 124.413 182.787 123.165 182.787 121.254C182.787 119.356 181.994 118.134 180.837 118.134ZM200.924 116.249H202.003V124.907H200.924V116.249ZM201.665 119.824H203.745V120.721H201.665V119.824ZM194.684 126.87H202.536V127.754H194.684V126.87ZM194.684 124.023H195.763V127.221H194.684V124.023ZM196.166 117.081C197.921 117.081 199.234 118.29 199.234 119.98C199.234 121.683 197.921 122.879 196.166 122.879C194.411 122.879 193.098 121.683 193.098 119.98C193.098 118.29 194.411 117.081 196.166 117.081ZM196.166 118.03C195.022 118.03 194.151 118.836 194.151 119.98C194.151 121.137 195.022 121.93 196.166 121.93C197.31 121.93 198.181 121.137 198.181 119.98C198.181 118.836 197.31 118.03 196.166 118.03ZM205.889 119.343H211.531V120.175H205.889V119.343ZM205.889 116.756H211.401V117.601H206.994V119.72H205.889V116.756ZM208.138 119.811H209.217V121.774H208.138V119.811ZM213.325 116.262H214.404V122.58H213.325V116.262ZM204.979 122.307L204.836 121.449C207.111 121.436 209.984 121.384 212.415 121.111L212.48 121.865C209.984 122.229 207.189 122.307 204.979 122.307ZM206.656 123.113H214.404V125.856H207.735V127.364H206.669V125.037H213.351V123.971H206.656V123.113ZM206.669 127.026H214.807V127.884H206.669V127.026ZM224.976 116.678H225.925V117.328C225.925 119.577 223.637 121.189 221.193 121.605L220.764 120.734C222.909 120.409 224.976 119.005 224.976 117.328V116.678ZM225.171 116.678H226.107V117.328C226.107 118.966 228.2 120.409 230.319 120.734L229.89 121.605C227.472 121.189 225.171 119.551 225.171 117.328V116.678ZM224.976 123.542H226.042V128.014H224.976V123.542ZM220.231 122.879H230.852V123.776H220.231V122.879ZM238.615 123.49H239.447V124.127C239.447 125.661 238.485 127.208 236.795 127.858L236.249 127.052C237.731 126.519 238.615 125.258 238.615 124.127V123.49ZM238.849 123.49H239.655V124.127C239.655 125.31 240.357 126.571 241.761 127.143L241.306 127.962C239.616 127.299 238.849 125.687 238.849 124.127V123.49ZM242.957 123.49H243.763V124.127C243.763 125.505 242.983 127.247 241.306 127.962L240.851 127.143C242.242 126.506 242.957 125.141 242.957 124.127V123.49ZM243.178 123.49H244.01V124.127C244.01 125.336 244.881 126.545 246.376 127.052L245.83 127.858C244.114 127.234 243.178 125.752 243.178 124.127V123.49ZM244.231 116.275H245.323V122.983H244.231V116.275ZM239.018 116.951C240.799 116.951 242.073 118.069 242.073 119.694C242.073 121.319 240.799 122.424 239.018 122.424C237.237 122.424 235.95 121.319 235.95 119.694C235.95 118.069 237.237 116.951 239.018 116.951ZM239.018 117.848C237.848 117.848 237.003 118.602 237.003 119.694C237.003 120.786 237.848 121.527 239.018 121.527C240.188 121.527 241.033 120.786 241.033 119.694C241.033 118.602 240.188 117.848 239.018 117.848ZM248.91 123.308H249.976V124.673H255.722V123.308H256.801V127.858H248.91V123.308ZM249.976 125.505V126.987H255.722V125.505H249.976ZM247.558 121.618H258.179V122.489H247.558V121.618ZM252.329 116.392H253.252V116.912C253.252 118.953 250.977 120.422 248.559 120.786L248.169 119.941C250.288 119.655 252.329 118.394 252.329 116.912V116.392ZM252.498 116.392H253.421V116.912C253.421 118.368 255.488 119.655 257.581 119.941L257.178 120.786C254.786 120.422 252.498 118.927 252.498 116.912V116.392ZM267.993 116.262H269.072V128.014H267.993V116.262ZM260.193 117.406H261.259V124.686H260.193V117.406ZM260.193 124.049H261.155C262.936 124.049 264.795 123.919 266.784 123.503L266.914 124.426C264.873 124.842 263.014 124.985 261.155 124.985H260.193V124.049ZM279.276 116.249H280.368V128.027H279.276V116.249ZM280.108 120.89H282.292V121.8H280.108V120.89ZM271.827 124.192H272.75C274.921 124.192 276.442 124.114 278.197 123.789L278.314 124.699C276.507 125.037 274.96 125.102 272.75 125.102H271.827V124.192ZM271.827 117.393H277.287V118.277H272.893V124.595H271.827V117.393ZM284.493 127.063C284.043 127.063 283.668 126.689 283.668 126.238C283.668 125.781 284.043 125.413 284.493 125.413C284.951 125.413 285.319 125.781 285.319 126.238C285.319 126.689 284.951 127.063 284.493 127.063Z" fill="#8E8E93"/>
<defs>
<filter id="filter0_d_514_2960" x="52.9662" y="235.429" width="38.5714" height="38.5714" filterUnits="userSpaceOnUse" color-interpolation-filters="sRGB">
<feFlood flood-opacity="0" result="BackgroundImageFix"/>
<feColorMatrix in="SourceAlpha" type="matrix" values="0 0 0 0 0 0 0 0 0 0 0 0 0 0 0 0 0 0 127 0" result="hardAlpha"/>
<feOffset dy="0.714286"/>
<feGaussianBlur stdDeviation="2.14286"/>
<feComposite in2="hardAlpha" operator="out"/>
<feColorMatrix type="matrix" values="0 0 0 0 0 0 0 0 0 0 0 0 0 0 0 0 0 0 0.05 0"/>
<feBlend mode="normal" in2="BackgroundImageFix" result="effect1_dropShadow_514_2960"/>
<feBlend mode="normal" in="SourceGraphic" in2="effect1_dropShadow_514_2960" result="shape"/>
</filter>
<filter id="filter1_d_514_2960" x="55.8227" y="238.286" width="32.8585" height="32.8571" filterUnits="userSpaceOnUse" color-interpolation-filters="sRGB">
<feFlood flood-opacity="0" result="BackgroundImageFix"/>
<feColorMatrix in="SourceAlpha" type="matrix" values="0 0 0 0 0 0 0 0 0 0 0 0 0 0 0 0 0 0 127 0" result="hardAlpha"/>
<feOffset dy="0.714286"/>
<feGaussianBlur stdDeviation="2.14286"/>
<feComposite in2="hardAlpha" operator="out"/>
<feColorMatrix type="matrix" values="0 0 0 0 0 0 0 0 0 0 0 0 0 0 0 0 0 0 0.05 0"/>
<feBlend mode="normal" in2="BackgroundImageFix" result="effect1_dropShadow_514_2960"/>
<feBlend mode="normal" in="SourceGraphic" in2="effect1_dropShadow_514_2960" result="shape"/>
</filter>
<filter id="filter2_d_514_2960" x="150.947" y="24.5947" width="59.1053" height="59.1053" filterUnits="userSpaceOnUse" color-interpolation-filters="sRGB">
<feFlood flood-opacity="0" result="BackgroundImageFix"/>
<feColorMatrix in="SourceAlpha" type="matrix" values="0 0 0 0 0 0 0 0 0 0 0 0 0 0 0 0 0 0 127 0" result="hardAlpha"/>
<feOffset dy="4.14737"/>
<feGaussianBlur stdDeviation="7.77632"/>
<feComposite in2="hardAlpha" operator="out"/>
<feColorMatrix type="matrix" values="0 0 0 0 1 0 0 0 0 0.262745 0 0 0 0 0.0980392 0 0 0 0.04 0"/>
<feBlend mode="normal" in2="BackgroundImageFix" result="effect1_dropShadow_514_2960"/>
<feBlend mode="normal" in="SourceGraphic" in2="effect1_dropShadow_514_2960" result="shape"/>
</filter>
<filter id="filter3_d_514_2960" x="135.395" y="4.8947" width="90.2106" height="90.2106" filterUnits="userSpaceOnUse" color-interpolation-filters="sRGB">
<feFlood flood-opacity="0" result="BackgroundImageFix"/>
<feColorMatrix in="SourceAlpha" type="matrix" values="0 0 0 0 0 0 0 0 0 0 0 0 0 0 0 0 0 0 127 0" result="hardAlpha"/>
<feOffset/>
<feGaussianBlur stdDeviation="15.5526"/>
<feComposite in2="hardAlpha" operator="out"/>
<feColorMatrix type="matrix" values="0 0 0 0 1 0 0 0 0 0.262745 0 0 0 0 0.0980392 0 0 0 0.3 0"/>
<feBlend mode="normal" in2="BackgroundImageFix" result="effect1_dropShadow_514_2960"/>
<feBlend mode="normal" in="SourceGraphic" in2="effect1_dropShadow_514_2960" result="shape"/>
</filter>
<filter id="filter4_f_514_2960" x="162.116" y="31.0404" width="36.7688" height="35.278" filterUnits="userSpaceOnUse" color-interpolation-filters="sRGB">
<feFlood flood-opacity="0" result="BackgroundImageFix"/>
<feBlend mode="normal" in="SourceGraphic" in2="BackgroundImageFix" result="shape"/>
<feGaussianBlur stdDeviation="2.47979" result="effect1_foregroundBlur_514_2960"/>
</filter>
<radialGradient id="paint0_radial_514_2960" cx="0" cy="0" r="1" gradientUnits="userSpaceOnUse" gradientTransform="translate(176.881 164.753) rotate(-90) scale(12.344 49.9259)">
<stop stop-color="#D9D9D9"/>
<stop offset="1" stop-color="#F5F5F5"/>
</radialGradient>
<linearGradient id="paint1_linear_514_2960" x1="180.5" y1="36" x2="180.5" y2="76.6967" gradientUnits="userSpaceOnUse">
<stop stop-color="#FF4319"/>
<stop offset="1" stop-color="#FFE0D9"/>
</linearGradient>
<clipPath id="clip0_514_2960">
<rect width="227" height="207" fill="white" transform="translate(134 152)"/>
</clipPath>
</defs>
</svg>
