<svg width="361" height="383" viewBox="0 0 361 383" fill="none" xmlns="http://www.w3.org/2000/svg">
<g opacity="0.1">
<rect width="361" height="383" rx="15" fill="#FF4319"/>
</g>
<g clip-path="url(#clip0_425_460)">
<rect x="-63.895" y="258.105" width="97.79" height="5.79" fill="white" stroke="black" stroke-width="0.21"/>
<path d="M30.7852 255.39H38.1411V266.611H30.7852C30.2909 266.611 29.8902 266.211 29.8902 265.716V256.285C29.8902 255.791 30.2909 255.39 30.7852 255.39Z" fill="white" stroke="black" stroke-width="0.21"/>
<path d="M71.8511 253.402H79.0512V269.014H71.8511V253.402Z" fill="white" stroke="black" stroke-width="0.21"/>
<path d="M41 248.769H71.938V273.231H41C39.4011 273.231 38.105 271.935 38.105 270.336V251.664C38.105 250.065 39.4011 248.769 41 248.769Z" fill="white" stroke="black" stroke-width="0.21"/>
<g clip-path="url(#clip1_425_460)">
<path d="M64.207 261L60.2487 263.25L60.2487 261.75L54.4054 261.75L55.5921 264L56.2904 263.999L56.2904 263.25L59.457 263.25L59.457 266.25L56.2904 266.25L56.2904 265.499L54.6136 265.5L52.6344 261.75L51.405 261.751C51.0787 262.624 50.1992 263.25 49.1654 263.25C47.8537 263.25 46.7904 262.243 46.7904 261C46.7904 259.757 47.8537 258.75 49.1654 258.75C50.1051 258.75 50.9172 259.267 51.3024 260.017L53.9154 256.5L55.711 256.499C55.9849 256.051 56.4964 255.75 57.082 255.75C57.9565 255.75 58.6654 256.422 58.6654 257.25C58.6654 258.078 57.9565 258.75 57.082 258.75C56.496 258.75 55.9843 258.448 55.7105 258L54.707 258L53.0556 260.25L60.2487 260.25L60.2487 258.75L64.207 261ZM49.957 261C49.957 260.586 49.6026 260.25 49.1654 260.25C48.7281 260.25 48.3737 260.586 48.3737 261C48.3737 261.414 48.7281 261.75 49.1654 261.75C49.6026 261.75 49.957 261.414 49.957 261Z" fill="#D0D0D0"/>
</g>
<rect x="74.105" y="256.158" width="2.69625" height="2.69625" fill="white" stroke="black" stroke-width="0.21"/>
<rect x="74.105" y="263.562" width="2.69625" height="2.69625" fill="white" stroke="black" stroke-width="0.21"/>
</g>
<g clip-path="url(#clip2_425_460)">
<path d="M134.083 261.372V192.56C134.078 190.258 134.083 187.96 134.096 185.658V185.312C134.108 185.187 134.113 185.063 134.117 184.939C134.147 184.426 134.194 183.921 134.258 183.412C134.322 182.907 134.404 182.402 134.502 181.901C134.879 180.01 135.473 178.247 136.325 176.519C136.796 175.556 137.335 174.64 137.942 173.754C139.333 171.735 140.946 170.058 142.914 168.594C144.275 167.584 145.7 166.754 147.253 166.078C148.994 165.321 150.766 164.807 152.644 164.517C152.978 164.474 153.307 164.431 153.641 164.384C153.975 164.354 154.313 164.328 154.647 164.298C154.814 164.29 154.981 164.281 155.147 164.273C155.297 164.273 155.443 164.273 155.592 164.268C164.437 164.256 173.277 164.251 182.121 164.256C190.918 164.256 199.715 164.256 208.517 164.256C545.474 164.256 882.426 164.256 1219.38 164.256H1257.72C1260.63 164.256 1263.55 164.256 1266.47 164.26C1266.6 164.26 1266.74 164.26 1266.87 164.26C1267.02 164.264 1267.17 164.273 1267.31 164.277C1268.29 164.324 1269.24 164.435 1270.2 164.611C1271.16 164.786 1272.09 165.021 1273.01 165.321C1274.1 165.676 1275.16 166.113 1276.18 166.635C1276.7 166.896 1277.2 167.178 1277.69 167.477C1278.12 167.743 1278.55 168.021 1278.96 168.316C1279.74 168.872 1280.48 169.471 1281.18 170.126C1281.78 170.687 1282.35 171.281 1282.88 171.906C1283.67 172.826 1284.37 173.793 1285 174.833C1285.62 175.868 1286.15 176.942 1286.6 178.068C1286.83 178.628 1287.03 179.197 1287.2 179.775C1287.3 180.126 1287.39 180.476 1287.49 180.827C1287.56 181.105 1287.62 181.384 1287.69 181.662C1287.8 182.218 1287.89 182.774 1287.97 183.335C1288.04 183.865 1288.09 184.396 1288.12 184.931C1288.13 185.213 1288.14 185.496 1288.15 185.782C1288.15 186.433 1288.15 187.079 1288.15 187.729C1288.15 235.844 1288.15 283.96 1288.15 332.075C1288.15 332.871 1288.15 333.662 1288.15 334.458C1288.17 335.28 1288.16 336.105 1288.14 336.927C1288.13 337.209 1288.12 337.492 1288.11 337.774C1288.09 338.044 1288.07 338.309 1288.05 338.579C1288.02 338.848 1287.99 339.118 1287.96 339.387C1287.92 339.665 1287.88 339.944 1287.84 340.222C1287.79 340.5 1287.74 340.778 1287.68 341.052C1287.62 341.33 1287.55 341.608 1287.49 341.886C1287.4 342.199 1287.32 342.507 1287.23 342.819C1287.06 343.401 1286.86 343.97 1286.65 344.535C1286.2 345.664 1285.68 346.738 1285.06 347.778C1284.44 348.818 1283.75 349.789 1282.97 350.713C1282.42 351.364 1281.84 351.98 1281.22 352.562C1280.51 353.221 1279.78 353.824 1278.99 354.385C1278.58 354.676 1278.17 354.954 1277.74 355.219C1277.25 355.523 1276.75 355.801 1276.24 356.066C1275.21 356.588 1274.16 357.029 1273.07 357.388C1271.19 358.009 1269.32 358.351 1267.34 358.445C1267.05 358.454 1266.76 358.462 1266.47 358.471C1265.41 358.479 1264.35 358.479 1263.29 358.479C911.697 358.479 560.103 358.479 208.513 358.479C199.715 358.479 190.918 358.479 182.117 358.479C173.272 358.484 164.428 358.479 155.588 358.467C155.438 358.467 155.293 358.467 155.143 358.462C154.976 358.454 154.809 358.445 154.638 358.437C154.3 358.407 153.966 358.381 153.628 358.351C153.295 358.308 152.965 358.265 152.631 358.218C150.753 357.927 148.986 357.414 147.244 356.657C145.691 355.981 144.262 355.155 142.906 354.145C140.937 352.682 139.324 351.004 137.934 348.985C137.326 348.103 136.791 347.188 136.316 346.225C135.465 344.492 134.866 342.725 134.494 340.834C134.395 340.333 134.314 339.832 134.25 339.327C134.181 338.818 134.134 338.313 134.108 337.8C134.104 337.676 134.096 337.552 134.091 337.428C134.091 337.308 134.087 337.188 134.083 337.064C134.083 311.832 134.074 286.6 134.074 261.367L134.083 261.372Z" fill="white" stroke="black" stroke-width="0.213941" stroke-miterlimit="10"/>
<path d="M198.063 164.378H198.168V164.273V154.885C198.168 154.227 197.635 153.694 196.977 153.694H156.785C156.128 153.694 155.594 154.227 155.594 154.885V164.273V164.378H155.699H198.063Z" fill="url(#paint0_radial_425_460)" stroke="black" stroke-width="0.21"/>
<path d="M179.348 160.369C179.151 160.382 178.988 160.339 178.817 160.236C178.663 160.138 178.556 160.022 178.484 159.855C178.484 160.014 178.484 160.172 178.484 160.33H177.371V156.903C177.748 156.847 178.12 156.796 178.492 156.74V158.263C178.561 158.062 178.672 157.934 178.856 157.827C179.014 157.729 179.164 157.686 179.352 157.69C179.6 157.682 179.806 157.733 180.015 157.861C180.221 157.977 180.366 158.122 180.482 158.328C180.606 158.55 180.662 158.764 180.653 159.021C180.653 159.278 180.602 159.496 180.482 159.723C180.371 159.937 180.225 160.082 180.015 160.202C179.801 160.33 179.596 160.386 179.352 160.377L179.348 160.369Z" stroke="black" stroke-width="0.213941" stroke-miterlimit="10"/>
<path d="M181.957 158.818C182.236 158.762 182.514 158.703 182.787 158.647C182.787 158.54 182.749 158.467 182.672 158.399C182.599 158.335 182.531 158.313 182.432 158.317C182.287 158.309 182.193 158.352 182.094 158.463C182 158.57 181.957 158.677 181.953 158.818H181.957Z" stroke="black" stroke-width="0.213941" stroke-miterlimit="10"/>
<path d="M173.738 160.328V157.722H174.842V158.372C174.894 158.15 174.992 157.992 175.172 157.85C175.339 157.722 175.501 157.671 175.711 157.684C175.754 157.992 175.801 158.3 175.843 158.608C175.762 158.603 175.677 158.599 175.595 158.591C174.971 158.591 174.859 158.907 174.859 159.185V160.328C174.487 160.328 174.115 160.328 173.743 160.328H173.738Z" stroke="black" stroke-width="0.213941" stroke-miterlimit="10"/>
<path d="M186.359 160.328V157.722H187.463V158.372C187.515 158.15 187.613 157.992 187.793 157.85C187.96 157.722 188.122 157.671 188.332 157.684C188.375 157.992 188.422 158.3 188.465 158.608C188.383 158.603 188.298 158.599 188.216 158.591C187.592 158.591 187.48 158.907 187.48 159.185V160.328C187.108 160.328 186.736 160.328 186.364 160.328H186.359Z" stroke="black" stroke-width="0.213941" stroke-miterlimit="10"/>
<path d="M183.992 160.328V157.722H185.096V158.372C185.147 158.15 185.246 157.992 185.426 157.85C185.592 157.722 185.755 157.671 185.965 157.684C186.008 157.992 186.055 158.3 186.097 158.608C186.016 158.603 185.93 158.599 185.849 158.591C185.224 158.591 185.113 158.907 185.113 159.185V160.328C184.741 160.328 184.369 160.328 183.996 160.328H183.992Z" stroke="black" stroke-width="0.213941" stroke-miterlimit="10"/>
<path d="M1094.77 354.264C1090.73 354.264 1086.69 354.264 1082.64 354.264C1074.81 354.264 1066.97 354.264 1059.13 354.264C1051.3 354.264 1043.46 354.264 1035.62 354.264C1024.88 354.264 1014.13 354.277 1003.39 354.281C992.646 354.286 981.902 354.286 971.154 354.286C960.598 354.286 950.042 354.286 939.49 354.286C928.939 354.286 918.387 354.286 907.831 354.286C863.713 354.286 819.581 354.286 775.458 354.286C681.876 354.286 588.298 354.286 494.716 354.286C399.32 354.286 303.924 354.286 208.532 354.286C199.731 354.286 190.925 354.286 182.119 354.286C173.313 354.286 164.503 354.29 155.723 354.277C155.582 354.277 155.445 354.277 155.308 354.277C155.171 354.277 155.034 354.269 154.897 354.26C154.628 354.243 154.354 354.217 154.084 354.187C153.815 354.157 153.545 354.123 153.28 354.08C151.786 353.849 150.319 353.421 148.928 352.818C147.687 352.279 146.506 351.594 145.42 350.79C143.862 349.635 142.497 348.218 141.397 346.618C140.91 345.908 140.473 345.159 140.092 344.385C139.416 343.003 138.916 341.531 138.616 340.029C138.535 339.627 138.471 339.22 138.419 338.809C138.368 338.399 138.33 337.983 138.308 337.577C138.304 337.479 138.3 337.376 138.295 337.273C138.295 337.171 138.291 337.072 138.287 336.969C138.27 335.861 138.274 334.719 138.274 333.585C138.274 332.451 138.274 331.321 138.274 330.192C138.274 327.933 138.274 325.669 138.274 323.406C138.274 318.237 138.274 313.064 138.274 307.895C138.274 302.726 138.274 297.562 138.274 292.393C138.274 287.224 138.274 282.055 138.274 276.886V261.38C138.274 258.795 138.274 256.211 138.274 253.627C138.274 245.873 138.274 238.12 138.274 230.363C138.274 220.025 138.274 209.688 138.274 199.354C138.274 197.091 138.274 194.832 138.274 192.564C138.274 190.296 138.27 188.028 138.287 185.79C138.287 185.688 138.287 185.585 138.291 185.482C138.295 185.38 138.3 185.281 138.304 185.178C138.325 184.768 138.364 184.357 138.415 183.946C138.466 183.535 138.535 183.129 138.612 182.722C138.911 181.216 139.408 179.753 140.088 178.371C140.469 177.596 140.905 176.848 141.393 176.133C142.493 174.533 143.858 173.121 145.411 171.961C146.498 171.153 147.679 170.472 148.92 169.933C150.31 169.33 151.778 168.902 153.275 168.671C153.545 168.628 153.815 168.594 154.084 168.564C154.354 168.534 154.623 168.508 154.893 168.491C155.03 168.483 155.162 168.478 155.299 168.474C155.436 168.474 155.577 168.474 155.714 168.474C164.49 168.461 173.3 168.461 182.106 168.465C190.912 168.465 199.718 168.465 208.519 168.465C303.363 168.465 398.208 168.465 493.056 168.465C585.448 168.465 677.845 168.465 770.238 168.465C814.378 168.465 858.518 168.465 902.658 168.465C924.01 168.465 945.361 168.465 966.712 168.465C977.709 168.465 988.705 168.465 999.702 168.465C1010.08 168.465 1020.45 168.478 1030.83 168.483C1046.01 168.491 1061.19 168.491 1076.37 168.487C1082.5 168.487 1088.62 168.487 1094.75 168.487C1098.82 168.487 1102.9 168.487 1106.98 168.487C1109.17 168.487 1111.37 168.487 1113.57 168.487C1125.83 168.487 1138.09 168.487 1150.35 168.487C1163.47 168.487 1176.58 168.491 1189.7 168.491C1199.59 168.491 1209.48 168.491 1219.36 168.491C1229.25 168.491 1239.14 168.491 1249.02 168.491C1251.91 168.491 1254.8 168.491 1257.7 168.487C1260.59 168.487 1263.49 168.478 1266.36 168.487C1266.49 168.487 1266.61 168.487 1266.73 168.487C1266.86 168.487 1266.98 168.491 1267.1 168.5C1267.89 168.534 1268.66 168.624 1269.43 168.765C1270.2 168.906 1270.96 169.099 1271.7 169.343C1272.58 169.629 1273.43 169.98 1274.26 170.399C1274.68 170.609 1275.08 170.836 1275.48 171.076C1275.83 171.289 1276.17 171.516 1276.5 171.752C1277.14 172.201 1277.73 172.689 1278.3 173.219C1278.79 173.673 1279.25 174.152 1279.68 174.661C1280.32 175.401 1280.89 176.193 1281.39 177.027C1281.89 177.862 1282.33 178.735 1282.69 179.637C1282.87 180.091 1283.02 180.549 1283.17 181.015C1283.25 181.298 1283.34 181.58 1283.4 181.862C1283.46 182.085 1283.51 182.307 1283.56 182.534C1283.65 182.983 1283.73 183.433 1283.79 183.886C1283.85 184.314 1283.88 184.742 1283.91 185.17C1283.92 185.397 1283.93 185.623 1283.93 185.855C1283.94 186.163 1283.94 186.475 1283.94 186.787C1283.94 187.1 1283.94 187.412 1283.94 187.729C1283.94 199.166 1283.95 210.607 1283.95 222.045C1283.95 233.482 1283.95 244.919 1283.95 256.357C1283.95 268.975 1283.95 281.593 1283.95 294.211C1283.95 306.829 1283.94 319.448 1283.94 332.057C1283.94 332.857 1283.94 333.658 1283.94 334.458C1283.94 335.262 1283.94 336.067 1283.93 336.854C1283.93 337.085 1283.92 337.316 1283.91 337.543C1283.89 337.761 1283.88 337.975 1283.86 338.193C1283.84 338.411 1283.81 338.63 1283.79 338.844C1283.76 339.07 1283.72 339.293 1283.68 339.52C1283.64 339.746 1283.6 339.969 1283.55 340.191C1283.51 340.414 1283.46 340.641 1283.4 340.863C1283.34 341.116 1283.27 341.368 1283.19 341.616C1283.05 342.083 1282.9 342.545 1282.72 343.003C1282.36 343.91 1281.94 344.787 1281.44 345.621C1280.94 346.46 1280.38 347.251 1279.75 347.996C1279.31 348.522 1278.83 349.019 1278.33 349.489C1277.76 350.02 1277.16 350.512 1276.53 350.961C1276.2 351.196 1275.87 351.423 1275.52 351.637C1275.12 351.881 1274.72 352.108 1274.31 352.318C1273.48 352.737 1272.63 353.096 1271.75 353.383C1270.25 353.875 1268.69 354.17 1267.11 354.239C1266.87 354.247 1266.62 354.256 1266.38 354.26C1265.36 354.277 1264.33 354.269 1263.29 354.26C1262.25 354.252 1261.22 354.256 1260.18 354.252C1258.11 354.252 1256.05 354.252 1253.97 354.252C1249.01 354.252 1244.04 354.252 1239.08 354.252C1234.11 354.252 1229.14 354.252 1224.18 354.252C1219.21 354.252 1214.25 354.252 1209.28 354.252C1204.31 354.252 1199.35 354.252 1194.38 354.252C1181.74 354.252 1169.09 354.252 1156.45 354.256C1150.13 354.256 1143.81 354.256 1137.48 354.256C1131.16 354.256 1124.84 354.256 1118.52 354.256C1112.54 354.256 1106.56 354.256 1100.58 354.256C1100.28 354.256 1099.97 354.256 1099.67 354.256C1099.67 292.329 1099.67 230.397 1099.67 168.47C1100.48 168.47 1101.28 168.47 1102.09 168.47V354.256" stroke="black" stroke-width="0.213941" stroke-miterlimit="10"/>
<path d="M182.699 159.644C182.943 159.644 183.157 159.602 183.375 159.499C183.418 159.721 183.46 159.944 183.503 160.166C183.366 160.235 183.225 160.286 183.075 160.316C182.9 160.355 182.729 160.372 182.549 160.368C182.232 160.376 181.946 160.32 181.65 160.196C181.407 160.094 181.24 159.948 181.103 159.726C180.966 159.503 180.91 159.289 180.919 159.028C180.91 158.528 181.197 158.066 181.65 157.852C181.89 157.732 182.121 157.676 182.386 157.685C182.733 157.659 183.071 157.796 183.302 158.053C183.563 158.378 183.653 158.686 183.619 159.097C183.092 159.161 182.57 159.229 182.044 159.294C182.164 159.537 182.425 159.674 182.695 159.64L182.699 159.644Z" stroke="black" stroke-width="0.213941" stroke-miterlimit="10"/>
<path d="M169.801 160.329V156.748H171.067C171.521 156.735 171.94 156.803 172.364 156.97C172.698 157.094 172.92 157.282 173.1 157.591C173.271 157.886 173.344 158.172 173.335 158.515C173.365 159.024 173.151 159.52 172.762 159.85C172.347 160.201 171.726 160.325 171.016 160.325C170.609 160.325 170.207 160.325 169.801 160.325V160.329Z" stroke="black" stroke-width="0.213941" stroke-miterlimit="10"/>
<path d="M171.315 159.421C171.584 159.442 171.764 159.369 171.944 159.168C172.106 158.963 172.17 158.766 172.149 158.505C172.166 158.261 172.106 158.081 171.952 157.893C171.764 157.709 171.576 157.641 171.315 157.662H170.977V159.425H171.315V159.421Z" stroke="black" stroke-width="0.213941" stroke-miterlimit="10"/>
<path d="M190.127 161.339C190.003 161.33 189.874 161.322 189.75 161.313C189.66 161.292 189.566 161.27 189.476 161.249C189.506 160.996 189.532 160.748 189.562 160.496C189.63 160.509 189.699 160.517 189.767 160.53C189.84 160.534 189.913 160.538 189.985 160.543C190.187 160.568 190.336 160.526 190.499 160.397C190.636 160.265 190.683 160.141 190.653 159.952V159.657C190.584 159.867 190.477 160.004 190.294 160.115C190.118 160.222 189.947 160.265 189.742 160.256C189.446 160.273 189.16 160.141 188.98 159.905C188.77 159.593 188.689 159.293 188.71 158.917V157.719H189.827V158.977C189.827 159.067 189.831 159.156 189.87 159.251C189.904 159.332 189.973 159.443 190.161 159.443C190.311 159.443 190.405 159.4 190.49 159.276C190.589 159.139 190.627 159.007 190.614 158.84V157.723H191.731V159.721C191.765 160.171 191.616 160.611 191.312 160.945C190.982 161.227 190.559 161.369 190.127 161.339Z" stroke="black" stroke-width="0.213941" stroke-miterlimit="10"/>
<path d="M165.018 159.465C165.677 158.814 166.34 158.164 166.999 157.514C167.243 157.753 167.487 157.997 167.731 158.237C168.188 158.686 168.188 159.426 167.731 159.871C167.102 160.483 166.477 161.099 165.848 161.711C165.386 162.165 164.646 162.165 164.179 161.711C163.55 161.099 162.925 160.483 162.296 159.871C161.839 159.422 161.839 158.686 162.296 158.237C162.54 157.997 162.784 157.753 163.028 157.514C163.931 158.404 164.838 159.294 165.741 160.179C166.207 160.629 166.943 160.629 167.41 160.179" stroke="black" stroke-width="0.213941" stroke-miterlimit="10"/>
<path d="M179.008 159.551C179.166 159.551 179.277 159.513 179.389 159.402C179.504 159.295 179.547 159.188 179.543 159.034C179.547 158.875 179.504 158.768 179.389 158.666C179.277 158.554 179.166 158.512 179.008 158.516C178.85 158.503 178.747 158.546 178.636 158.661C178.516 158.764 178.473 158.871 178.482 159.029C178.473 159.188 178.52 159.299 178.636 159.406C178.743 159.517 178.85 159.564 179.008 159.56V159.551Z" stroke="black" stroke-width="0.213941" stroke-miterlimit="10"/>
<path d="M176.35 160.359C176.166 160.376 176.038 160.333 175.905 160.205C175.789 160.098 175.747 159.987 175.751 159.829C175.742 159.666 175.789 159.559 175.914 159.452C176.046 159.332 176.17 159.289 176.35 159.302C176.53 159.285 176.654 159.332 176.782 159.456C176.902 159.559 176.949 159.666 176.945 159.824C176.958 159.987 176.915 160.098 176.795 160.209C176.662 160.329 176.534 160.372 176.354 160.355" stroke="black" stroke-width="0.213941" stroke-miterlimit="10"/>
<path d="M166.123 157.108C166.123 156.847 166.054 156.642 165.887 156.436C165.669 156.167 165.344 156.021 165.001 156.025C164.651 156.025 164.347 156.175 164.133 156.449C163.97 156.654 163.906 156.86 163.91 157.121C163.91 157.382 163.987 157.583 164.15 157.788C164.372 158.062 164.676 158.203 165.031 158.199C165.387 158.199 165.678 158.049 165.891 157.776C166.054 157.57 166.123 157.369 166.123 157.108Z" stroke="black" stroke-width="0.213941" stroke-miterlimit="10"/>
<line x1="188.535" y1="187.859" x2="188.535" y2="335.09" stroke="#111111" stroke-width="0.5" stroke-linecap="square" stroke-dasharray="2.26 2.26"/>
<line x1="238.504" y1="187.859" x2="238.504" y2="335.09" stroke="#111111" stroke-width="0.5" stroke-linecap="square" stroke-dasharray="2.26 2.26"/>
<line x1="288.473" y1="187.859" x2="288.473" y2="335.09" stroke="#111111" stroke-width="0.5" stroke-linecap="square" stroke-dasharray="2.26 2.26"/>
<line x1="338.437" y1="187.859" x2="338.438" y2="335.09" stroke="#111111" stroke-width="0.5" stroke-linecap="square" stroke-dasharray="2.26 2.26"/>
</g>
<g filter="url(#filter0_d_425_460)">
<circle cx="56.252" cy="225" r="15" fill="#FAFAFA"/>
</g>
<g filter="url(#filter1_d_425_460)">
<circle cx="56.2522" cy="225" r="12.1429" fill="white"/>
<path d="M50.2542 222.666C51.9483 221.098 54.0835 220.24 56.2884 220.24C58.4933 220.24 60.6285 221.098 62.3227 222.666" stroke="#8E8E93" stroke-width="1.90476" stroke-linecap="round" stroke-linejoin="round"/>
<path d="M53.2802 226.057C54.1503 225.371 55.1913 225.001 56.2587 225.001C57.3261 225.001 58.3671 225.371 59.2373 226.057" stroke="#8E8E93" stroke-width="1.90476" stroke-linecap="round" stroke-linejoin="round"/>
<path d="M56.2538 229.762H56.2624" stroke="#8E8E93" stroke-width="1.90476" stroke-linecap="round" stroke-linejoin="round"/>
</g>
<g filter="url(#filter2_d_425_460)">
<g filter="url(#filter3_d_425_460)">
<circle cx="183.5" cy="50" r="14" fill="url(#paint1_linear_425_460)"/>
</g>
<g filter="url(#filter4_f_425_460)">
<ellipse cx="183.5" cy="48.6795" rx="13.425" ry="12.6795" fill="#FF4319"/>
</g>
</g>
<path d="M187.5 46L179.5 54" stroke="white" stroke-width="1.33333" stroke-linecap="round" stroke-linejoin="round"/>
<path d="M179.5 46L187.5 54" stroke="white" stroke-width="1.33333" stroke-linecap="round" stroke-linejoin="round"/>
<path d="M127.732 86V74.7266H129.482L135.022 82.4922H135.147V74.7266H137.084V86H135.342L129.803 78.2344H129.678V86H127.732ZM143.037 86.1719C140.475 86.1719 138.928 84.5 138.928 81.7344V81.7188C138.928 78.9766 140.498 77.2969 143.037 77.2969C145.584 77.2969 147.147 78.9688 147.147 81.7188V81.7344C147.147 84.5 145.592 86.1719 143.037 86.1719ZM143.037 84.5938C144.389 84.5938 145.155 83.5391 145.155 81.7422V81.7266C145.155 79.9297 144.381 78.8672 143.037 78.8672C141.686 78.8672 140.912 79.9297 140.912 81.7266V81.7422C140.912 83.5391 141.686 84.5938 143.037 84.5938ZM152.139 86.0391C150.178 86.0391 149.374 85.3828 149.374 83.7344V78.9688H148.046V77.4609H149.374V75.3672H151.35V77.4609H153.155V78.9688H151.35V83.2734C151.35 84.125 151.686 84.4844 152.499 84.4844C152.772 84.4844 152.921 84.4766 153.155 84.4531V85.9531C152.874 86.0078 152.514 86.0391 152.139 86.0391ZM163.624 86.2812C160.429 86.2812 158.445 84.0156 158.445 80.375V80.3594C158.445 76.7031 160.421 74.4453 163.617 74.4453C166.179 74.4453 168.124 76.0703 168.39 78.375V78.4375H166.413L166.406 78.4062C166.117 77.0703 165.038 76.1875 163.617 76.1875C161.702 76.1875 160.507 77.7891 160.507 80.3516V80.3672C160.507 82.9375 161.702 84.5391 163.624 84.5391C165.054 84.5391 166.117 83.7422 166.406 82.5L166.413 82.4609H168.39V82.5156C168.093 84.7734 166.226 86.2812 163.624 86.2812ZM173.804 86.1719C171.242 86.1719 169.695 84.5 169.695 81.7344V81.7188C169.695 78.9766 171.265 77.2969 173.804 77.2969C176.351 77.2969 177.914 78.9688 177.914 81.7188V81.7344C177.914 84.5 176.359 86.1719 173.804 86.1719ZM173.804 84.5938C175.156 84.5938 175.922 83.5391 175.922 81.7422V81.7266C175.922 79.9297 175.148 78.8672 173.804 78.8672C172.453 78.8672 171.679 79.9297 171.679 81.7266V81.7422C171.679 83.5391 172.453 84.5938 173.804 84.5938ZM179.547 86V77.4609H181.492V78.7656H181.625C182.031 77.8516 182.852 77.2969 184.086 77.2969C185.992 77.2969 187.031 78.4453 187.031 80.4766V86H185.086V80.9297C185.086 79.6016 184.547 78.9297 183.367 78.9297C182.211 78.9297 181.492 79.7422 181.492 81.0234V86H179.547ZM189.008 86V77.4609H190.953V78.7656H191.086C191.492 77.8516 192.313 77.2969 193.547 77.2969C195.453 77.2969 196.492 78.4453 196.492 80.4766V86H194.547V80.9297C194.547 79.6016 194.008 78.9297 192.828 78.9297C191.672 78.9297 190.953 79.7422 190.953 81.0234V86H189.008ZM202.126 86.1719C199.587 86.1719 198.048 84.4688 198.048 81.75V81.7422C198.048 79.0547 199.602 77.2969 202.032 77.2969C204.462 77.2969 205.962 79 205.962 81.5781V82.2188H199.993C200.016 83.75 200.844 84.6406 202.165 84.6406C203.219 84.6406 203.821 84.1094 204.008 83.7188L204.032 83.6641H205.883L205.86 83.7344C205.587 84.8359 204.446 86.1719 202.126 86.1719ZM202.055 78.8203C200.969 78.8203 200.157 79.5547 200.008 80.9141H204.063C203.93 79.5156 203.141 78.8203 202.055 78.8203ZM211.251 86.1719C208.681 86.1719 207.165 84.5078 207.165 81.7188V81.7031C207.165 78.9453 208.673 77.2969 211.243 77.2969C213.438 77.2969 214.751 78.5156 214.97 80.2812V80.3125H213.134L213.126 80.2891C212.946 79.4609 212.313 78.8672 211.251 78.8672C209.923 78.8672 209.142 79.9141 209.142 81.7031V81.7188C209.142 83.5312 209.931 84.5938 211.251 84.5938C212.259 84.5938 212.876 84.1328 213.118 83.2344L213.134 83.2031L214.97 83.1953L214.954 83.2578C214.673 85.0078 213.415 86.1719 211.251 86.1719ZM219.97 86.0391C218.009 86.0391 217.204 85.3828 217.204 83.7344V78.9688H215.876V77.4609H217.204V75.3672H219.181V77.4609H220.986V78.9688H219.181V83.2734C219.181 84.125 219.517 84.4844 220.329 84.4844C220.603 84.4844 220.751 84.4766 220.986 84.4531V85.9531C220.704 86.0078 220.345 86.0391 219.97 86.0391ZM226.181 86.1719C223.642 86.1719 222.103 84.4688 222.103 81.75V81.7422C222.103 79.0547 223.658 77.2969 226.088 77.2969C228.517 77.2969 230.017 79 230.017 81.5781V82.2188H224.048C224.072 83.75 224.9 84.6406 226.22 84.6406C227.275 84.6406 227.877 84.1094 228.064 83.7188L228.088 83.6641H229.939L229.916 83.7344C229.642 84.8359 228.502 86.1719 226.181 86.1719ZM226.111 78.8203C225.025 78.8203 224.213 79.5547 224.064 80.9141H228.119C227.986 79.5156 227.197 78.8203 226.111 78.8203ZM234.721 86.1406C232.58 86.1406 231.221 84.4453 231.221 81.7422V81.7266C231.221 79.0078 232.557 77.3203 234.721 77.3203C235.893 77.3203 236.869 77.8984 237.314 78.8203H237.447V74.1562H239.4V86H237.447V84.6641H237.314C236.846 85.5938 235.924 86.1406 234.721 86.1406ZM235.33 84.5C236.658 84.5 237.478 83.4531 237.478 81.7422V81.7266C237.478 80.0156 236.65 78.9609 235.33 78.9609C234.01 78.9609 233.197 80.0078 233.197 81.7266V81.7422C233.197 83.4609 234.002 84.5 235.33 84.5Z" fill="#111111"/>
<path d="M67.3844 109V99.8403H70.8375C72.5577 99.8403 73.7765 101.027 73.7765 102.767V102.779C73.7765 104.519 72.5577 105.731 70.8375 105.731H68.527V109H67.3844ZM70.5455 100.856H68.527V104.715H70.5455C71.8532 104.715 72.6085 103.998 72.6085 102.792V102.779C72.6085 101.573 71.8532 100.856 70.5455 100.856ZM75.4949 109V99.4404H76.5994V109H75.4949ZM81.4345 109.121C79.4794 109.121 78.2987 107.75 78.2987 105.604V105.598C78.2987 103.484 79.5048 102.037 81.3646 102.037C83.2245 102.037 84.3544 103.42 84.3544 105.464V105.896H79.4286C79.4603 107.312 80.2411 108.137 81.4599 108.137C82.3866 108.137 82.9579 107.699 83.142 107.286L83.1674 107.229H84.2719L84.2592 107.28C84.0243 108.207 83.0468 109.121 81.4345 109.121ZM81.3583 103.021C80.3427 103.021 79.5683 103.712 79.4476 105.014H83.2308C83.1166 103.662 82.3676 103.021 81.3583 103.021ZM87.8692 109.121C86.5679 109.121 85.584 108.333 85.584 107.089V107.077C85.584 105.858 86.4854 105.153 88.0786 105.058L90.0401 104.938V104.315C90.0401 103.471 89.5259 103.014 88.5039 103.014C87.6851 103.014 87.1455 103.319 86.9678 103.852L86.9614 103.871H85.857L85.8633 103.833C86.041 102.76 87.082 102.037 88.542 102.037C90.2114 102.037 91.1445 102.894 91.1445 104.315V109H90.0401V107.991H89.9385C89.5069 108.721 88.7896 109.121 87.8692 109.121ZM86.7139 107.064C86.7139 107.756 87.3042 108.162 88.0977 108.162C89.2212 108.162 90.0401 107.426 90.0401 106.448V105.826L88.2119 105.94C87.1709 106.004 86.7139 106.372 86.7139 107.051V107.064ZM95.4337 109.121C93.9103 109.121 92.8629 108.384 92.736 107.254H93.8659C94.0499 107.826 94.5958 108.2 95.4718 108.2C96.3922 108.2 97.046 107.762 97.046 107.14V107.127C97.046 106.664 96.6969 106.34 95.8527 106.137L94.7926 105.883C93.5104 105.579 92.9328 105.02 92.9328 104.036V104.03C92.9328 102.894 94.0246 102.037 95.4782 102.037C96.9127 102.037 97.9093 102.754 98.0617 103.871H96.9762C96.8302 103.332 96.297 102.957 95.4718 102.957C94.6593 102.957 94.0626 103.376 94.0626 103.979V103.992C94.0626 104.455 94.4054 104.747 95.2116 104.944L96.2653 105.198C97.5539 105.509 98.1759 106.067 98.1759 107.045V107.058C98.1759 108.276 96.9889 109.121 95.4337 109.121ZM102.605 109.121C100.65 109.121 99.469 107.75 99.469 105.604V105.598C99.469 103.484 100.675 102.037 102.535 102.037C104.395 102.037 105.525 103.42 105.525 105.464V105.896H100.599C100.631 107.312 101.411 108.137 102.63 108.137C103.557 108.137 104.128 107.699 104.312 107.286L104.338 107.229H105.442L105.429 107.28C105.195 108.207 104.217 109.121 102.605 109.121ZM102.529 103.021C101.513 103.021 100.739 103.712 100.618 105.014H104.401C104.287 103.662 103.538 103.021 102.529 103.021ZM113.551 109.121C111.634 109.121 110.409 107.73 110.409 105.56V105.547C110.409 103.42 111.627 102.037 113.544 102.037C115.208 102.037 116.204 102.995 116.407 104.214L116.414 104.252H115.315L115.309 104.233C115.138 103.56 114.528 103.014 113.544 103.014C112.313 103.014 111.539 104.004 111.539 105.547V105.56C111.539 107.134 112.326 108.143 113.544 108.143C114.465 108.143 115.049 107.737 115.303 106.975L115.315 106.937L116.407 106.931L116.395 107C116.115 108.238 115.195 109.121 113.551 109.121ZM118.011 109V99.4404H119.116V103.186H119.217C119.56 102.462 120.201 102.037 121.211 102.037C122.747 102.037 123.604 102.944 123.604 104.569V109H122.499V104.836C122.499 103.604 121.991 103.014 120.9 103.014C119.808 103.014 119.116 103.75 119.116 104.95V109H118.011ZM128.318 109.121C126.363 109.121 125.182 107.75 125.182 105.604V105.598C125.182 103.484 126.388 102.037 128.248 102.037C130.108 102.037 131.238 103.42 131.238 105.464V105.896H126.312C126.344 107.312 127.125 108.137 128.344 108.137C129.27 108.137 129.842 107.699 130.026 107.286L130.051 107.229H131.156L131.143 107.28C130.908 108.207 129.93 109.121 128.318 109.121ZM128.242 103.021C127.226 103.021 126.452 103.712 126.331 105.014H130.115C130 103.662 129.251 103.021 128.242 103.021ZM135.673 109.121C133.756 109.121 132.531 107.73 132.531 105.56V105.547C132.531 103.42 133.75 102.037 135.667 102.037C137.33 102.037 138.327 102.995 138.53 104.214L138.536 104.252H137.438L137.432 104.233C137.26 103.56 136.651 103.014 135.667 103.014C134.435 103.014 133.661 104.004 133.661 105.547V105.56C133.661 107.134 134.448 108.143 135.667 108.143C136.587 108.143 137.171 107.737 137.425 106.975L137.438 106.937L138.53 106.931L138.517 107C138.238 108.238 137.317 109.121 135.673 109.121ZM140.134 109V99.4404H141.238V105.147H141.34L144.298 102.157H145.637L142.654 105.033L145.834 109H144.444L141.879 105.782L141.238 106.404V109H140.134ZM153.073 109.051C151.664 109.051 151.074 108.53 151.074 107.223V103.071H149.994V102.157H151.074V100.386H152.216V102.157H153.714V103.071H152.216V106.943C152.216 107.75 152.495 108.073 153.206 108.073C153.403 108.073 153.511 108.067 153.714 108.048V108.987C153.498 109.025 153.289 109.051 153.073 109.051ZM155.35 109V99.4404H156.455V103.186H156.556C156.899 102.462 157.54 102.037 158.549 102.037C160.085 102.037 160.942 102.944 160.942 104.569V109H159.838V104.836C159.838 103.604 159.33 103.014 158.238 103.014C157.146 103.014 156.455 103.75 156.455 104.95V109H155.35ZM165.657 109.121C163.702 109.121 162.521 107.75 162.521 105.604V105.598C162.521 103.484 163.727 102.037 165.587 102.037C167.447 102.037 168.577 103.42 168.577 105.464V105.896H163.651C163.683 107.312 164.463 108.137 165.682 108.137C166.609 108.137 167.18 107.699 167.364 107.286L167.39 107.229H168.494L168.481 107.28C168.247 108.207 167.269 109.121 165.657 109.121ZM165.581 103.021C164.565 103.021 163.791 103.712 163.67 105.014H167.453C167.339 103.662 166.59 103.021 165.581 103.021ZM176.603 109.121C174.686 109.121 173.461 107.73 173.461 105.56V105.547C173.461 103.42 174.68 102.037 176.596 102.037C178.26 102.037 179.256 102.995 179.459 104.214L179.466 104.252H178.367L178.361 104.233C178.19 103.56 177.58 103.014 176.596 103.014C175.365 103.014 174.591 104.004 174.591 105.547V105.56C174.591 107.134 175.378 108.143 176.596 108.143C177.517 108.143 178.101 107.737 178.355 106.975L178.367 106.937L179.459 106.931L179.447 107C179.167 108.238 178.247 109.121 176.603 109.121ZM183.812 109.121C181.863 109.121 180.657 107.775 180.657 105.585V105.572C180.657 103.376 181.863 102.037 183.812 102.037C185.761 102.037 186.967 103.376 186.967 105.572V105.585C186.967 107.775 185.761 109.121 183.812 109.121ZM183.812 108.143C185.107 108.143 185.837 107.197 185.837 105.585V105.572C185.837 103.954 185.107 103.014 183.812 103.014C182.517 103.014 181.787 103.954 181.787 105.572V105.585C181.787 107.197 182.517 108.143 183.812 108.143ZM188.603 109V102.157H189.707V103.186H189.809C190.151 102.462 190.793 102.037 191.802 102.037C193.338 102.037 194.195 102.944 194.195 104.569V109H193.09V104.836C193.09 103.604 192.583 103.014 191.491 103.014C190.399 103.014 189.707 103.75 189.707 104.95V109H188.603ZM196.116 109V102.157H197.221V103.186H197.322C197.665 102.462 198.306 102.037 199.316 102.037C200.852 102.037 201.709 102.944 201.709 104.569V109H200.604V104.836C200.604 103.604 200.096 103.014 199.005 103.014C197.913 103.014 197.221 103.75 197.221 104.95V109H196.116ZM206.423 109.121C204.468 109.121 203.287 107.75 203.287 105.604V105.598C203.287 103.484 204.493 102.037 206.353 102.037C208.213 102.037 209.343 103.42 209.343 105.464V105.896H204.417C204.449 107.312 205.23 108.137 206.449 108.137C207.375 108.137 207.947 107.699 208.131 107.286L208.156 107.229H209.261L209.248 107.28C209.013 108.207 208.035 109.121 206.423 109.121ZM206.347 103.021C205.331 103.021 204.557 103.712 204.436 105.014H208.22C208.105 103.662 207.356 103.021 206.347 103.021ZM213.778 109.121C211.861 109.121 210.636 107.73 210.636 105.56V105.547C210.636 103.42 211.855 102.037 213.772 102.037C215.435 102.037 216.432 102.995 216.635 104.214L216.641 104.252H215.543L215.537 104.233C215.365 103.56 214.756 103.014 213.772 103.014C212.54 103.014 211.766 104.004 211.766 105.547V105.56C211.766 107.134 212.553 108.143 213.772 108.143C214.692 108.143 215.276 107.737 215.53 106.975L215.543 106.937L216.635 106.931L216.622 107C216.343 108.238 215.422 109.121 213.778 109.121ZM220.733 109.051C219.324 109.051 218.734 108.53 218.734 107.223V103.071H217.655V102.157H218.734V100.386H219.877V102.157H221.375V103.071H219.877V106.943C219.877 107.75 220.156 108.073 220.867 108.073C221.064 108.073 221.171 108.067 221.375 108.048V108.987C221.159 109.025 220.949 109.051 220.733 109.051ZM223.531 100.837C223.112 100.837 222.769 100.494 222.769 100.075C222.769 99.6562 223.112 99.3135 223.531 99.3135C223.95 99.3135 224.293 99.6562 224.293 100.075C224.293 100.494 223.95 100.837 223.531 100.837ZM222.972 109V102.157H224.077V109H222.972ZM228.893 109.121C226.944 109.121 225.738 107.775 225.738 105.585V105.572C225.738 103.376 226.944 102.037 228.893 102.037C230.842 102.037 232.048 103.376 232.048 105.572V105.585C232.048 107.775 230.842 109.121 228.893 109.121ZM228.893 108.143C230.188 108.143 230.918 107.197 230.918 105.585V105.572C230.918 103.954 230.188 103.014 228.893 103.014C227.598 103.014 226.868 103.954 226.868 105.572V105.585C226.868 107.197 227.598 108.143 228.893 108.143ZM233.684 109V102.157H234.788V103.186H234.89C235.232 102.462 235.874 102.037 236.883 102.037C238.419 102.037 239.276 102.944 239.276 104.569V109H238.171V104.836C238.171 103.604 237.664 103.014 236.572 103.014C235.48 103.014 234.788 103.75 234.788 104.95V109H233.684ZM247.137 109.121C245.613 109.121 244.566 108.384 244.439 107.254H245.569C245.753 107.826 246.299 108.2 247.175 108.2C248.095 108.2 248.749 107.762 248.749 107.14V107.127C248.749 106.664 248.4 106.34 247.556 106.137L246.496 105.883C245.214 105.579 244.636 105.02 244.636 104.036V104.03C244.636 102.894 245.728 102.037 247.181 102.037C248.616 102.037 249.613 102.754 249.765 103.871H248.679C248.533 103.332 248 102.957 247.175 102.957C246.363 102.957 245.766 103.376 245.766 103.979V103.992C245.766 104.455 246.109 104.747 246.915 104.944L247.968 105.198C249.257 105.509 249.879 106.067 249.879 107.045V107.058C249.879 108.276 248.692 109.121 247.137 109.121ZM253.883 109.051C252.473 109.051 251.883 108.53 251.883 107.223V103.071H250.804V102.157H251.883V100.386H253.026V102.157H254.524V103.071H253.026V106.943C253.026 107.75 253.305 108.073 254.016 108.073C254.213 108.073 254.321 108.067 254.524 108.048V108.987C254.308 109.025 254.098 109.051 253.883 109.051ZM257.975 109.121C256.674 109.121 255.69 108.333 255.69 107.089V107.077C255.69 105.858 256.591 105.153 258.185 105.058L260.146 104.938V104.315C260.146 103.471 259.632 103.014 258.61 103.014C257.791 103.014 257.251 103.319 257.074 103.852L257.067 103.871H255.963L255.969 103.833C256.147 102.76 257.188 102.037 258.648 102.037C260.317 102.037 261.25 102.894 261.25 104.315V109H260.146V107.991H260.044C259.613 108.721 258.895 109.121 257.975 109.121ZM256.82 107.064C256.82 107.756 257.41 108.162 258.204 108.162C259.327 108.162 260.146 107.426 260.146 106.448V105.826L258.318 105.94C257.277 106.004 256.82 106.372 256.82 107.051V107.064ZM265.622 109.051C264.213 109.051 263.623 108.53 263.623 107.223V103.071H262.544V102.157H263.623V100.386H264.765V102.157H266.263V103.071H264.765V106.943C264.765 107.75 265.045 108.073 265.755 108.073C265.952 108.073 266.06 108.067 266.263 108.048V108.987C266.047 109.025 265.838 109.051 265.622 109.051ZM270.127 109.121C268.572 109.121 267.772 108.207 267.772 106.588V102.157H268.877V106.321C268.877 107.553 269.321 108.143 270.413 108.143C271.619 108.143 272.26 107.407 272.26 106.207V102.157H273.364V109H272.26V107.978H272.158C271.822 108.708 271.13 109.121 270.127 109.121ZM277.698 109.121C276.175 109.121 275.127 108.384 275 107.254H276.13C276.314 107.826 276.86 108.2 277.736 108.2C278.657 108.2 279.31 107.762 279.31 107.14V107.127C279.31 106.664 278.961 106.34 278.117 106.137L277.057 105.883C275.775 105.579 275.197 105.02 275.197 104.036V104.03C275.197 102.894 276.289 102.037 277.743 102.037C279.177 102.037 280.174 102.754 280.326 103.871H279.241C279.095 103.332 278.561 102.957 277.736 102.957C276.924 102.957 276.327 103.376 276.327 103.979V103.992C276.327 104.455 276.67 104.747 277.476 104.944L278.53 105.198C279.818 105.509 280.44 106.067 280.44 107.045V107.058C280.44 108.276 279.253 109.121 277.698 109.121ZM288.479 109.121C286.53 109.121 285.324 107.775 285.324 105.585V105.572C285.324 103.376 286.53 102.037 288.479 102.037C290.428 102.037 291.634 103.376 291.634 105.572V105.585C291.634 107.775 290.428 109.121 288.479 109.121ZM288.479 108.143C289.774 108.143 290.504 107.197 290.504 105.585V105.572C290.504 103.954 289.774 103.014 288.479 103.014C287.184 103.014 286.454 103.954 286.454 105.572V105.585C286.454 107.197 287.184 108.143 288.479 108.143ZM293.27 109V102.157H294.374V103.173H294.476C294.736 102.456 295.377 102.037 296.304 102.037C296.513 102.037 296.748 102.062 296.856 102.081V103.154C296.628 103.116 296.418 103.09 296.177 103.09C295.123 103.09 294.374 103.757 294.374 104.76V109H293.27ZM116.533 127L114.616 120.157H115.721L117.066 125.629H117.168L118.698 120.157H119.745L121.275 125.629H121.377L122.722 120.157H123.82L121.903 127H120.793L119.263 121.706H119.161L117.638 127H116.533ZM125.786 118.837C125.367 118.837 125.025 118.494 125.025 118.075C125.025 117.656 125.367 117.313 125.786 117.313C126.205 117.313 126.548 117.656 126.548 118.075C126.548 118.494 126.205 118.837 125.786 118.837ZM125.228 127V120.157H126.332V127H125.228ZM128.241 123.826V122.798H132.507V123.826H128.241ZM134.593 127V121.071H133.457V120.157H134.593V119.396C134.593 118.031 135.279 117.377 136.58 117.377C136.847 117.377 137.088 117.396 137.316 117.44V118.323C137.183 118.297 136.999 118.291 136.802 118.291C136.015 118.291 135.698 118.678 135.698 119.427V120.157H137.253V121.071H135.698V127H134.593ZM139.352 118.837C138.933 118.837 138.59 118.494 138.59 118.075C138.59 117.656 138.933 117.313 139.352 117.313C139.771 117.313 140.114 117.656 140.114 118.075C140.114 118.494 139.771 118.837 139.352 118.837ZM138.794 127V120.157H139.898V127H138.794ZM148.292 127.121C146.375 127.121 145.15 125.73 145.15 123.56V123.547C145.15 121.42 146.369 120.037 148.286 120.037C149.949 120.037 150.946 120.995 151.149 122.214L151.155 122.252H150.057L150.051 122.233C149.879 121.56 149.27 121.014 148.286 121.014C147.055 121.014 146.28 122.004 146.28 123.547V123.56C146.28 125.134 147.067 126.143 148.286 126.143C149.206 126.143 149.79 125.737 150.044 124.975L150.057 124.937L151.149 124.931L151.136 125C150.857 126.238 149.936 127.121 148.292 127.121ZM155.501 127.121C153.553 127.121 152.347 125.775 152.347 123.585V123.572C152.347 121.376 153.553 120.037 155.501 120.037C157.45 120.037 158.656 121.376 158.656 123.572V123.585C158.656 125.775 157.45 127.121 155.501 127.121ZM155.501 126.143C156.796 126.143 157.526 125.197 157.526 123.585V123.572C157.526 121.954 156.796 121.014 155.501 121.014C154.207 121.014 153.477 121.954 153.477 123.572V123.585C153.477 125.197 154.207 126.143 155.501 126.143ZM160.292 127V120.157H161.397V121.186H161.498C161.841 120.462 162.482 120.037 163.491 120.037C165.027 120.037 165.884 120.944 165.884 122.569V127H164.78V122.836C164.78 121.604 164.272 121.014 163.18 121.014C162.088 121.014 161.397 121.75 161.397 122.95V127H160.292ZM167.806 127V120.157H168.91V121.186H169.012C169.355 120.462 169.996 120.037 171.005 120.037C172.541 120.037 173.398 120.944 173.398 122.569V127H172.294V122.836C172.294 121.604 171.786 121.014 170.694 121.014C169.602 121.014 168.91 121.75 168.91 122.95V127H167.806ZM178.113 127.121C176.158 127.121 174.977 125.75 174.977 123.604V123.598C174.977 121.484 176.183 120.037 178.043 120.037C179.903 120.037 181.033 121.42 181.033 123.464V123.896H176.107C176.139 125.312 176.919 126.137 178.138 126.137C179.065 126.137 179.636 125.699 179.82 125.286L179.846 125.229H180.95L180.937 125.28C180.703 126.207 179.725 127.121 178.113 127.121ZM178.036 121.021C177.021 121.021 176.246 121.712 176.126 123.014H179.909C179.795 121.662 179.046 121.021 178.036 121.021ZM185.468 127.121C183.551 127.121 182.326 125.73 182.326 123.56V123.547C182.326 121.42 183.544 120.037 185.461 120.037C187.125 120.037 188.121 120.995 188.324 122.214L188.331 122.252H187.232L187.226 122.233C187.055 121.56 186.445 121.014 185.461 121.014C184.23 121.014 183.456 122.004 183.456 123.547V123.56C183.456 125.134 184.243 126.143 185.461 126.143C186.382 126.143 186.966 125.737 187.22 124.975L187.232 124.937L188.324 124.931L188.312 125C188.032 126.238 187.112 127.121 185.468 127.121ZM192.423 127.051C191.014 127.051 190.423 126.53 190.423 125.223V121.071H189.344V120.157H190.423V118.386H191.566V120.157H193.064V121.071H191.566V124.943C191.566 125.75 191.845 126.073 192.556 126.073C192.753 126.073 192.861 126.067 193.064 126.048V126.987C192.848 127.025 192.639 127.051 192.423 127.051ZM195.22 118.837C194.802 118.837 194.459 118.494 194.459 118.075C194.459 117.656 194.802 117.313 195.22 117.313C195.639 117.313 195.982 117.656 195.982 118.075C195.982 118.494 195.639 118.837 195.22 118.837ZM194.662 127V120.157H195.766V127H194.662ZM200.582 127.121C198.634 127.121 197.428 125.775 197.428 123.585V123.572C197.428 121.376 198.634 120.037 200.582 120.037C202.531 120.037 203.737 121.376 203.737 123.572V123.585C203.737 125.775 202.531 127.121 200.582 127.121ZM200.582 126.143C201.877 126.143 202.607 125.197 202.607 123.585V123.572C202.607 121.954 201.877 121.014 200.582 121.014C199.287 121.014 198.557 121.954 198.557 123.572V123.585C198.557 125.197 199.287 126.143 200.582 126.143ZM205.373 127V120.157H206.478V121.186H206.579C206.922 120.462 207.563 120.037 208.572 120.037C210.108 120.037 210.965 120.944 210.965 122.569V127H209.861V122.836C209.861 121.604 209.353 121.014 208.261 121.014C207.169 121.014 206.478 121.75 206.478 122.95V127H205.373ZM218.826 127.121C217.303 127.121 216.256 126.384 216.129 125.254H217.259C217.443 125.826 217.989 126.2 218.865 126.2C219.785 126.2 220.439 125.762 220.439 125.14V125.127C220.439 124.664 220.09 124.34 219.245 124.137L218.185 123.883C216.903 123.579 216.325 123.02 216.325 122.036V122.03C216.325 120.894 217.417 120.037 218.871 120.037C220.305 120.037 221.302 120.754 221.454 121.871H220.369C220.223 121.332 219.69 120.957 218.865 120.957C218.052 120.957 217.455 121.376 217.455 121.979V121.992C217.455 122.455 217.798 122.747 218.604 122.944L219.658 123.198C220.947 123.509 221.569 124.067 221.569 125.045V125.058C221.569 126.276 220.382 127.121 218.826 127.121ZM225.572 127.051C224.163 127.051 223.573 126.53 223.573 125.223V121.071H222.494V120.157H223.573V118.386H224.715V120.157H226.213V121.071H224.715V124.943C224.715 125.75 224.995 126.073 225.705 126.073C225.902 126.073 226.01 126.067 226.213 126.048V126.987C225.997 127.025 225.788 127.051 225.572 127.051ZM229.665 127.121C228.363 127.121 227.379 126.333 227.379 125.089V125.077C227.379 123.858 228.281 123.153 229.874 123.058L231.835 122.938V122.315C231.835 121.471 231.321 121.014 230.299 121.014C229.48 121.014 228.941 121.319 228.763 121.852L228.757 121.871H227.652L227.659 121.833C227.836 120.76 228.877 120.037 230.337 120.037C232.007 120.037 232.94 120.894 232.94 122.315V127H231.835V125.991H231.734C231.302 126.721 230.585 127.121 229.665 127.121ZM228.509 125.064C228.509 125.756 229.1 126.162 229.893 126.162C231.017 126.162 231.835 125.426 231.835 124.448V123.826L230.007 123.94C228.966 124.004 228.509 124.372 228.509 125.051V125.064ZM237.312 127.051C235.902 127.051 235.312 126.53 235.312 125.223V121.071H234.233V120.157H235.312V118.386H236.455V120.157H237.953V121.071H236.455V124.943C236.455 125.75 236.734 126.073 237.445 126.073C237.642 126.073 237.75 126.067 237.953 126.048V126.987C237.737 127.025 237.527 127.051 237.312 127.051ZM241.817 127.121C240.262 127.121 239.462 126.207 239.462 124.588V120.157H240.566V124.321C240.566 125.553 241.011 126.143 242.102 126.143C243.308 126.143 243.949 125.407 243.949 124.207V120.157H245.054V127H243.949V125.978H243.848C243.512 126.708 242.82 127.121 241.817 127.121ZM249.388 127.121C247.864 127.121 246.817 126.384 246.69 125.254H247.82C248.004 125.826 248.55 126.2 249.426 126.2C250.346 126.2 251 125.762 251 125.14V125.127C251 124.664 250.651 124.34 249.807 124.137L248.746 123.883C247.464 123.579 246.887 123.02 246.887 122.036V122.03C246.887 120.894 247.978 120.037 249.432 120.037C250.867 120.037 251.863 120.754 252.016 121.871H250.93C250.784 121.332 250.251 120.957 249.426 120.957C248.613 120.957 248.017 121.376 248.017 121.979V121.992C248.017 122.455 248.359 122.747 249.165 122.944L250.219 123.198C251.508 123.509 252.13 124.067 252.13 125.045V125.058C252.13 126.276 250.943 127.121 249.388 127.121Z" fill="#8E8E93"/>
<defs>
<filter id="filter0_d_425_460" x="36.9662" y="206.429" width="38.5714" height="38.5714" filterUnits="userSpaceOnUse" color-interpolation-filters="sRGB">
<feFlood flood-opacity="0" result="BackgroundImageFix"/>
<feColorMatrix in="SourceAlpha" type="matrix" values="0 0 0 0 0 0 0 0 0 0 0 0 0 0 0 0 0 0 127 0" result="hardAlpha"/>
<feOffset dy="0.714286"/>
<feGaussianBlur stdDeviation="2.14286"/>
<feComposite in2="hardAlpha" operator="out"/>
<feColorMatrix type="matrix" values="0 0 0 0 0 0 0 0 0 0 0 0 0 0 0 0 0 0 0.05 0"/>
<feBlend mode="normal" in2="BackgroundImageFix" result="effect1_dropShadow_425_460"/>
<feBlend mode="normal" in="SourceGraphic" in2="effect1_dropShadow_425_460" result="shape"/>
</filter>
<filter id="filter1_d_425_460" x="39.8227" y="209.286" width="32.8582" height="32.8572" filterUnits="userSpaceOnUse" color-interpolation-filters="sRGB">
<feFlood flood-opacity="0" result="BackgroundImageFix"/>
<feColorMatrix in="SourceAlpha" type="matrix" values="0 0 0 0 0 0 0 0 0 0 0 0 0 0 0 0 0 0 127 0" result="hardAlpha"/>
<feOffset dy="0.714286"/>
<feGaussianBlur stdDeviation="2.14286"/>
<feComposite in2="hardAlpha" operator="out"/>
<feColorMatrix type="matrix" values="0 0 0 0 0 0 0 0 0 0 0 0 0 0 0 0 0 0 0.05 0"/>
<feBlend mode="normal" in2="BackgroundImageFix" result="effect1_dropShadow_425_460"/>
<feBlend mode="normal" in="SourceGraphic" in2="effect1_dropShadow_425_460" result="shape"/>
</filter>
<filter id="filter2_d_425_460" x="153.947" y="24.5947" width="59.1053" height="59.1053" filterUnits="userSpaceOnUse" color-interpolation-filters="sRGB">
<feFlood flood-opacity="0" result="BackgroundImageFix"/>
<feColorMatrix in="SourceAlpha" type="matrix" values="0 0 0 0 0 0 0 0 0 0 0 0 0 0 0 0 0 0 127 0" result="hardAlpha"/>
<feOffset dy="4.14737"/>
<feGaussianBlur stdDeviation="7.77632"/>
<feComposite in2="hardAlpha" operator="out"/>
<feColorMatrix type="matrix" values="0 0 0 0 1 0 0 0 0 0.262745 0 0 0 0 0.0980392 0 0 0 0.04 0"/>
<feBlend mode="normal" in2="BackgroundImageFix" result="effect1_dropShadow_425_460"/>
<feBlend mode="normal" in="SourceGraphic" in2="effect1_dropShadow_425_460" result="shape"/>
</filter>
<filter id="filter3_d_425_460" x="138.395" y="4.8947" width="90.2106" height="90.2106" filterUnits="userSpaceOnUse" color-interpolation-filters="sRGB">
<feFlood flood-opacity="0" result="BackgroundImageFix"/>
<feColorMatrix in="SourceAlpha" type="matrix" values="0 0 0 0 0 0 0 0 0 0 0 0 0 0 0 0 0 0 127 0" result="hardAlpha"/>
<feOffset/>
<feGaussianBlur stdDeviation="15.5526"/>
<feComposite in2="hardAlpha" operator="out"/>
<feColorMatrix type="matrix" values="0 0 0 0 1 0 0 0 0 0.262745 0 0 0 0 0.0980392 0 0 0 0.3 0"/>
<feBlend mode="normal" in2="BackgroundImageFix" result="effect1_dropShadow_425_460"/>
<feBlend mode="normal" in="SourceGraphic" in2="effect1_dropShadow_425_460" result="shape"/>
</filter>
<filter id="filter4_f_425_460" x="165.115" y="31.0404" width="36.7693" height="35.278" filterUnits="userSpaceOnUse" color-interpolation-filters="sRGB">
<feFlood flood-opacity="0" result="BackgroundImageFix"/>
<feBlend mode="normal" in="SourceGraphic" in2="BackgroundImageFix" result="shape"/>
<feGaussianBlur stdDeviation="2.47979" result="effect1_foregroundBlur_425_460"/>
</filter>
<radialGradient id="paint0_radial_425_460" cx="0" cy="0" r="1" gradientUnits="userSpaceOnUse" gradientTransform="translate(176.881 164.753) rotate(-90) scale(12.344 49.9259)">
<stop stop-color="#D9D9D9"/>
<stop offset="1" stop-color="#F5F5F5"/>
</radialGradient>
<linearGradient id="paint1_linear_425_460" x1="183.5" y1="36" x2="183.5" y2="76.6967" gradientUnits="userSpaceOnUse">
<stop stop-color="#FF4319"/>
<stop offset="1" stop-color="#FFE0D9"/>
</linearGradient>
<clipPath id="clip0_425_460">
<rect width="80" height="26" fill="white" transform="translate(0 248)"/>
</clipPath>
<clipPath id="clip1_425_460">
<rect width="18" height="19" fill="white" transform="translate(65 252) rotate(90)"/>
</clipPath>
<clipPath id="clip2_425_460">
<rect width="227" height="207" fill="white" transform="translate(134 152)"/>
</clipPath>
</defs>
</svg>
