<svg width="29" height="28" viewBox="0 0 29 28" fill="none" xmlns="http://www.w3.org/2000/svg">
<path d="M5.5 16.8889C5.5 15.7843 6.39543 14.8889 7.5 14.8889H8.9C10.0046 14.8889 10.9 15.7843 10.9 16.8889V20C10.9 21.1046 10.0046 22 8.9 22H7.5C6.39543 22 5.5 21.1046 5.5 20V16.8889ZM11.8 13.3333C11.8 12.2288 12.6954 11.3333 13.8 11.3333H15.2C16.3046 11.3333 17.2 12.2288 17.2 13.3333V20C17.2 21.1046 16.3046 22 15.2 22H13.8C12.6954 22 11.8 21.1046 11.8 20L11.8 13.3333ZM18.1 8C18.1 6.89543 18.9954 6 20.1 6H21.5C22.6046 6 23.5 6.89543 23.5 8L23.5 20C23.5 21.1046 22.6046 22 21.5 22H20.1C18.9954 22 18.1 21.1046 18.1 20L18.1 8Z" fill="url(#paint0_linear_929_16504)"/>
<defs>
<linearGradient id="paint0_linear_929_16504" x1="14.5" y1="6" x2="14.5" y2="22" gradientUnits="userSpaceOnUse">
<stop stop-color="#016EED"/>
<stop offset="1" stop-color="#B2D5FD"/>
</linearGradient>
</defs>
</svg>
