<svg width="28" height="28" viewBox="0 0 28 28" fill="none" xmlns="http://www.w3.org/2000/svg">
<path d="M4.84277 11.0967H7.14551V9.88379C7.14551 9.03125 7.61133 8.57422 8.47266 8.57422H11.7246C12.5859 8.57422 13.0518 9.03125 13.0518 9.88379V11.0967H15.0293V9.88379C15.0293 9.03125 15.4951 8.57422 16.3916 8.57422H19.4766C20.3818 8.57422 20.8477 9.03125 20.8477 9.88379V11.0967H23.1504V8.57422C23.1504 6.9043 22.2539 6.03418 20.6191 6.03418H7.37402C5.73926 6.03418 4.84277 6.9043 4.84277 8.57422V11.0967ZM2.67188 20.4922C2.67188 20.9668 2.97949 21.2656 3.44531 21.2656H3.99023C4.45605 21.2656 4.76367 20.9668 4.76367 20.4922V19.2266C4.86914 19.2529 5.17676 19.2705 5.39648 19.2705H22.5967C22.8164 19.2705 23.124 19.2529 23.2295 19.2266V20.4922C23.2295 20.9668 23.5371 21.2656 24.0029 21.2656H24.5479C25.0137 21.2656 25.3213 20.9668 25.3213 20.4922V15.1484C25.3213 13.3994 24.3545 12.4414 22.5967 12.4414H5.39648C3.63867 12.4414 2.67188 13.3994 2.67188 15.1484V20.4922Z" fill="url(#paint0_linear_568_10311)"/>
<defs>
<linearGradient id="paint0_linear_568_10311" x1="13.9966" y1="6.03418" x2="13.9966" y2="21.2656" gradientUnits="userSpaceOnUse">
<stop stop-color="#39C270"/>
<stop offset="1" stop-color="#94E8B5"/>
</linearGradient>
</defs>
</svg>
