<svg width="28" height="28" viewBox="0 0 28 28" fill="none" xmlns="http://www.w3.org/2000/svg">
<path fill-rule="evenodd" clip-rule="evenodd" d="M6.42383 21.2305C6.42383 22.7686 7.46094 23.7705 9.05176 23.7705H18.9395C20.5303 23.7705 21.5674 22.7686 21.5674 21.2305V6.07812C21.5674 4.53125 20.5303 3.5293 18.9395 3.5293H9.05176C7.46094 3.5293 6.42383 4.53125 6.42383 6.07812V21.2305ZM11.4299 21.1999C11.1423 21.1999 10.9092 21.4331 10.9092 21.7206C10.9092 22.0082 11.1423 22.2413 11.4299 22.2413H16.5604C16.8479 22.2413 17.0811 22.0082 17.0811 21.7206C17.0811 21.4331 16.8479 21.1999 16.5604 21.1999H11.4299Z" fill="url(#paint0_linear_568_10304)"/>
<defs>
<linearGradient id="paint0_linear_568_10304" x1="13.9956" y1="3.5293" x2="13.9956" y2="23.7705" gradientUnits="userSpaceOnUse">
<stop stop-color="#835EEE"/>
<stop offset="1" stop-color="#D1C2FE"/>
</linearGradient>
</defs>
</svg>
