<svg width="25" height="25" viewBox="0 0 25 25" fill="none" xmlns="http://www.w3.org/2000/svg">
<path d="M15.7639 8.72611L19.3006 5.18945H14.7148V3.18945H22.7148V11.1895H20.7148V6.60366L17.1781 10.1403C18.1422 11.4022 18.7148 12.979 18.7148 14.6895C18.7148 18.8316 15.3569 22.1895 11.2148 22.1895C7.0727 22.1895 3.71484 18.8316 3.71484 14.6895C3.71484 10.5474 7.0727 7.18945 11.2148 7.18945C12.9253 7.18945 14.5021 7.76209 15.7639 8.72611ZM11.2148 20.1895C14.2524 20.1895 16.7148 17.7271 16.7148 14.6895C16.7148 11.6519 14.2524 9.18945 11.2148 9.18945C8.17727 9.18945 5.71484 11.6519 5.71484 14.6895C5.71484 17.7271 8.17727 20.1895 11.2148 20.1895Z" fill="#8E8E93"/>
</svg>
