<svg width="29" height="29" viewBox="0 0 29 29" fill="none" xmlns="http://www.w3.org/2000/svg">
<path d="M19.334 16.6462C14.6846 16.6462 11.7314 13.7634 11.7314 9.14038C11.7314 8.12964 11.9688 6.78491 12.2852 6.073C12.3906 5.84448 12.417 5.68628 12.417 5.56323C12.417 5.28198 12.2148 5.00952 11.8545 5.00952C11.7227 5.00952 11.5117 5.04468 11.292 5.12378C8.02246 6.43335 5.84277 9.88745 5.84277 13.5525C5.84277 18.7117 9.74512 22.4119 14.8867 22.4119C18.6133 22.4119 21.874 20.1619 23.0254 17.2263C23.1221 16.9978 23.1484 16.7693 23.1484 16.6462C23.1484 16.3035 22.8848 16.075 22.6035 16.075C22.4541 16.075 22.3135 16.1101 22.1113 16.198C21.4521 16.4265 20.3887 16.6462 19.334 16.6462Z" fill="#39C270"/>
</svg>
