<svg width="361" height="383" viewBox="0 0 361 383" fill="none" xmlns="http://www.w3.org/2000/svg">
<rect width="361" height="383" rx="15" fill="#EFE6FE"/>
<g opacity="0.5" clip-path="url(#clip0_423_511)">
<path d="M190.063 164.378H190.168V164.273V154.885C190.168 154.227 189.635 153.694 188.977 153.694H148.785C148.128 153.694 147.594 154.227 147.594 154.885V164.273V164.378H147.699H190.063Z" fill="url(#paint0_radial_423_511)" stroke="black" stroke-width="0.21"/>
<path d="M126.083 261.372V192.56C126.078 190.258 126.083 187.96 126.096 185.658V185.312C126.108 185.187 126.113 185.063 126.117 184.939C126.147 184.426 126.194 183.921 126.258 183.412C126.322 182.907 126.404 182.402 126.502 181.901C126.879 180.01 127.473 178.247 128.325 176.519C128.796 175.556 129.335 174.64 129.942 173.754C131.333 171.735 132.946 170.058 134.914 168.594C136.275 167.584 137.7 166.754 139.253 166.078C140.994 165.321 142.766 164.807 144.644 164.517C144.978 164.474 145.307 164.431 145.641 164.384C145.975 164.354 146.313 164.328 146.647 164.298C146.814 164.29 146.981 164.281 147.147 164.273C147.297 164.273 147.443 164.273 147.592 164.268C156.437 164.256 165.277 164.251 174.121 164.256C182.918 164.256 191.715 164.256 200.517 164.256C537.474 164.256 874.426 164.256 1211.38 164.256H1249.72C1252.63 164.256 1255.55 164.256 1258.47 164.26C1258.6 164.26 1258.74 164.26 1258.87 164.26C1259.02 164.264 1259.17 164.273 1259.31 164.277C1260.29 164.324 1261.24 164.435 1262.2 164.611C1263.16 164.786 1264.09 165.021 1265.01 165.321C1266.1 165.676 1267.16 166.113 1268.18 166.635C1268.7 166.896 1269.2 167.178 1269.69 167.477C1270.12 167.743 1270.55 168.021 1270.96 168.316C1271.74 168.872 1272.48 169.471 1273.18 170.126C1273.78 170.687 1274.35 171.281 1274.88 171.906C1275.67 172.826 1276.37 173.793 1277 174.833C1277.62 175.868 1278.15 176.942 1278.6 178.068C1278.83 178.628 1279.03 179.197 1279.2 179.775C1279.3 180.126 1279.39 180.476 1279.49 180.827C1279.56 181.105 1279.62 181.384 1279.69 181.662C1279.8 182.218 1279.89 182.774 1279.97 183.335C1280.04 183.865 1280.09 184.396 1280.12 184.931C1280.13 185.213 1280.14 185.496 1280.15 185.782C1280.15 186.433 1280.15 187.079 1280.15 187.729C1280.15 235.844 1280.15 283.96 1280.15 332.075C1280.15 332.871 1280.15 333.662 1280.15 334.458C1280.17 335.28 1280.16 336.106 1280.14 336.927C1280.13 337.209 1280.12 337.492 1280.11 337.774C1280.09 338.044 1280.07 338.309 1280.05 338.579C1280.02 338.848 1279.99 339.118 1279.96 339.387C1279.92 339.665 1279.88 339.944 1279.84 340.222C1279.79 340.5 1279.74 340.778 1279.68 341.052C1279.62 341.33 1279.55 341.608 1279.49 341.886C1279.4 342.199 1279.32 342.507 1279.23 342.819C1279.06 343.401 1278.86 343.97 1278.65 344.535C1278.2 345.664 1277.68 346.738 1277.06 347.778C1276.44 348.818 1275.75 349.789 1274.97 350.713C1274.42 351.364 1273.84 351.98 1273.22 352.562C1272.51 353.221 1271.78 353.824 1270.99 354.385C1270.58 354.676 1270.17 354.954 1269.74 355.219C1269.25 355.523 1268.75 355.801 1268.24 356.066C1267.21 356.588 1266.16 357.029 1265.07 357.388C1263.19 358.009 1261.32 358.351 1259.34 358.445C1259.05 358.454 1258.76 358.462 1258.47 358.471C1257.41 358.479 1256.35 358.479 1255.29 358.479C903.697 358.479 552.103 358.479 200.513 358.479C191.716 358.479 182.918 358.479 174.117 358.479C165.272 358.484 156.428 358.479 147.588 358.467C147.438 358.467 147.293 358.467 147.143 358.462C146.976 358.454 146.809 358.445 146.638 358.437C146.3 358.407 145.966 358.381 145.628 358.351C145.295 358.308 144.965 358.265 144.631 358.218C142.753 357.927 140.986 357.414 139.244 356.657C137.691 355.981 136.262 355.155 134.906 354.145C132.937 352.682 131.324 351.004 129.934 348.985C129.326 348.103 128.791 347.188 128.316 346.225C127.465 344.492 126.866 342.725 126.494 340.834C126.395 340.333 126.314 339.832 126.25 339.327C126.181 338.818 126.134 338.313 126.108 337.8C126.104 337.676 126.096 337.552 126.091 337.428C126.091 337.308 126.087 337.188 126.083 337.064C126.083 311.832 126.074 286.6 126.074 261.367L126.083 261.372Z" fill="white"/>
<path d="M171.348 160.369C171.151 160.382 170.988 160.339 170.817 160.236C170.663 160.138 170.556 160.022 170.484 159.855C170.484 160.014 170.484 160.172 170.484 160.33H169.371V156.903C169.748 156.847 170.12 156.796 170.492 156.74V158.263C170.561 158.062 170.672 157.934 170.856 157.827C171.014 157.729 171.164 157.686 171.352 157.69C171.6 157.682 171.806 157.733 172.015 157.861C172.221 157.977 172.366 158.122 172.482 158.328C172.606 158.55 172.662 158.764 172.653 159.021C172.653 159.278 172.602 159.496 172.482 159.723C172.371 159.937 172.225 160.082 172.015 160.202C171.801 160.33 171.596 160.386 171.352 160.377L171.348 160.369Z" stroke="black" stroke-width="0.213941" stroke-miterlimit="10"/>
<path d="M173.957 158.818C174.236 158.762 174.514 158.703 174.787 158.647C174.787 158.54 174.749 158.467 174.672 158.399C174.599 158.335 174.531 158.313 174.432 158.317C174.287 158.309 174.193 158.352 174.094 158.463C174 158.57 173.957 158.677 173.953 158.818H173.957Z" stroke="black" stroke-width="0.213941" stroke-miterlimit="10"/>
<path d="M165.738 160.328V157.722H166.842V158.372C166.894 158.15 166.992 157.992 167.172 157.85C167.339 157.722 167.501 157.671 167.711 157.684C167.754 157.992 167.801 158.3 167.843 158.608C167.762 158.603 167.677 158.599 167.595 158.591C166.971 158.591 166.859 158.907 166.859 159.185V160.328C166.487 160.328 166.115 160.328 165.743 160.328H165.738Z" stroke="black" stroke-width="0.213941" stroke-miterlimit="10"/>
<path d="M178.359 160.328V157.722H179.463V158.372C179.515 158.15 179.613 157.992 179.793 157.85C179.96 157.722 180.122 157.671 180.332 157.684C180.375 157.992 180.422 158.3 180.465 158.608C180.383 158.603 180.298 158.599 180.216 158.591C179.592 158.591 179.48 158.907 179.48 159.185V160.328C179.108 160.328 178.736 160.328 178.364 160.328H178.359Z" stroke="black" stroke-width="0.213941" stroke-miterlimit="10"/>
<path d="M175.992 160.328V157.722H177.096V158.372C177.147 158.15 177.246 157.992 177.426 157.85C177.592 157.722 177.755 157.671 177.965 157.684C178.008 157.992 178.055 158.3 178.097 158.608C178.016 158.603 177.93 158.599 177.849 158.591C177.224 158.591 177.113 158.907 177.113 159.185V160.328C176.741 160.328 176.369 160.328 175.996 160.328H175.992Z" stroke="black" stroke-width="0.213941" stroke-miterlimit="10"/>
<path d="M1086.77 354.264C1082.73 354.264 1078.69 354.264 1074.64 354.264C1066.81 354.264 1058.97 354.264 1051.13 354.264C1043.3 354.264 1035.46 354.264 1027.62 354.264C1016.88 354.264 1006.13 354.277 995.39 354.281C984.646 354.286 973.902 354.286 963.154 354.286C952.598 354.286 942.042 354.286 931.49 354.286C920.939 354.286 910.387 354.286 899.831 354.286C855.713 354.286 811.581 354.286 767.458 354.286C673.876 354.286 580.298 354.286 486.716 354.286C391.32 354.286 295.924 354.286 200.532 354.286C191.731 354.286 182.925 354.286 174.119 354.286C165.313 354.286 156.503 354.29 147.723 354.277C147.582 354.277 147.445 354.277 147.308 354.277C147.171 354.277 147.034 354.269 146.897 354.26C146.628 354.243 146.354 354.217 146.084 354.187C145.815 354.157 145.545 354.123 145.28 354.08C143.786 353.849 142.319 353.421 140.928 352.818C139.687 352.279 138.506 351.594 137.42 350.79C135.862 349.635 134.497 348.218 133.397 346.618C132.91 345.908 132.473 345.159 132.092 344.385C131.416 343.003 130.916 341.531 130.616 340.029C130.535 339.627 130.471 339.22 130.419 338.809C130.368 338.399 130.33 337.983 130.308 337.577C130.304 337.479 130.3 337.376 130.295 337.273C130.295 337.171 130.291 337.072 130.287 336.969C130.27 335.861 130.274 334.719 130.274 333.585C130.274 332.451 130.274 331.321 130.274 330.192C130.274 327.933 130.274 325.669 130.274 323.406C130.274 318.237 130.274 313.064 130.274 307.895C130.274 302.726 130.274 297.562 130.274 292.393C130.274 287.224 130.274 282.055 130.274 276.886V261.38C130.274 258.795 130.274 256.211 130.274 253.627C130.274 245.873 130.274 238.12 130.274 230.363C130.274 220.025 130.274 209.688 130.274 199.354C130.274 197.091 130.274 194.832 130.274 192.564C130.274 190.296 130.27 188.028 130.287 185.79C130.287 185.688 130.287 185.585 130.291 185.482C130.295 185.38 130.3 185.281 130.304 185.178C130.325 184.768 130.364 184.357 130.415 183.946C130.466 183.535 130.535 183.129 130.612 182.722C130.911 181.216 131.408 179.753 132.088 178.371C132.469 177.596 132.905 176.848 133.393 176.133C134.493 174.533 135.858 173.121 137.411 171.961C138.498 171.153 139.679 170.472 140.92 169.933C142.31 169.33 143.778 168.902 145.275 168.671C145.545 168.628 145.815 168.594 146.084 168.564C146.354 168.534 146.623 168.508 146.893 168.491C147.03 168.483 147.162 168.478 147.299 168.474C147.436 168.474 147.577 168.474 147.714 168.474C156.49 168.461 165.3 168.461 174.106 168.465C182.912 168.465 191.718 168.465 200.519 168.465C295.363 168.465 390.208 168.465 485.056 168.465C577.448 168.465 669.845 168.465 762.238 168.465C806.378 168.465 850.518 168.465 894.658 168.465C916.01 168.465 937.361 168.465 958.712 168.465C969.709 168.465 980.705 168.465 991.702 168.465C1002.08 168.465 1012.45 168.478 1022.83 168.483C1038.01 168.491 1053.19 168.491 1068.37 168.487C1074.5 168.487 1080.62 168.487 1086.75 168.487C1090.82 168.487 1094.9 168.487 1098.98 168.487C1101.17 168.487 1103.37 168.487 1105.57 168.487C1117.83 168.487 1130.09 168.487 1142.35 168.487C1155.47 168.487 1168.58 168.491 1181.7 168.491C1191.59 168.491 1201.48 168.491 1211.36 168.491C1221.25 168.491 1231.14 168.491 1241.02 168.491C1243.91 168.491 1246.8 168.491 1249.7 168.487C1252.59 168.487 1255.49 168.478 1258.36 168.487C1258.49 168.487 1258.61 168.487 1258.73 168.487C1258.86 168.487 1258.98 168.491 1259.1 168.5C1259.89 168.534 1260.66 168.624 1261.43 168.765C1262.2 168.906 1262.96 169.099 1263.7 169.343C1264.58 169.629 1265.43 169.98 1266.26 170.399C1266.68 170.609 1267.08 170.836 1267.48 171.076C1267.83 171.289 1268.17 171.516 1268.5 171.752C1269.14 172.201 1269.74 172.689 1270.3 173.219C1270.79 173.673 1271.25 174.152 1271.68 174.661C1272.32 175.401 1272.89 176.193 1273.39 177.027C1273.89 177.862 1274.33 178.735 1274.69 179.637C1274.87 180.091 1275.02 180.549 1275.17 181.015C1275.25 181.298 1275.34 181.58 1275.4 181.862C1275.46 182.085 1275.51 182.307 1275.56 182.534C1275.65 182.983 1275.73 183.433 1275.79 183.886C1275.85 184.314 1275.88 184.742 1275.91 185.17C1275.92 185.397 1275.93 185.623 1275.93 185.855C1275.94 186.163 1275.94 186.475 1275.94 186.787C1275.94 187.1 1275.94 187.412 1275.94 187.729C1275.94 199.166 1275.95 210.607 1275.95 222.045C1275.95 233.482 1275.95 244.919 1275.95 256.357C1275.95 268.975 1275.95 281.593 1275.95 294.211C1275.95 306.829 1275.94 319.448 1275.94 332.057C1275.94 332.857 1275.94 333.658 1275.94 334.458C1275.94 335.262 1275.94 336.067 1275.93 336.854C1275.93 337.085 1275.92 337.316 1275.91 337.543C1275.89 337.761 1275.88 337.975 1275.86 338.193C1275.84 338.411 1275.81 338.63 1275.79 338.844C1275.76 339.07 1275.72 339.293 1275.68 339.52C1275.64 339.746 1275.6 339.969 1275.55 340.191C1275.51 340.414 1275.46 340.641 1275.4 340.863C1275.34 341.116 1275.27 341.368 1275.19 341.616C1275.05 342.083 1274.9 342.545 1274.72 343.003C1274.36 343.91 1273.94 344.787 1273.44 345.621C1272.94 346.46 1272.38 347.251 1271.75 347.996C1271.31 348.522 1270.83 349.019 1270.33 349.489C1269.76 350.02 1269.16 350.512 1268.53 350.961C1268.2 351.196 1267.87 351.423 1267.52 351.637C1267.12 351.881 1266.72 352.108 1266.31 352.318C1265.48 352.737 1264.63 353.096 1263.75 353.383C1262.25 353.875 1260.69 354.17 1259.11 354.239C1258.87 354.247 1258.62 354.256 1258.38 354.26C1257.36 354.277 1256.33 354.269 1255.29 354.26C1254.25 354.252 1253.22 354.256 1252.18 354.252C1250.11 354.252 1248.05 354.252 1245.97 354.252C1241.01 354.252 1236.04 354.252 1231.08 354.252C1226.11 354.252 1221.14 354.252 1216.18 354.252C1211.21 354.252 1206.25 354.252 1201.28 354.252C1196.31 354.252 1191.35 354.252 1186.38 354.252C1173.74 354.252 1161.09 354.252 1148.45 354.256C1142.13 354.256 1135.81 354.256 1129.48 354.256C1123.16 354.256 1116.84 354.256 1110.52 354.256C1104.54 354.256 1098.56 354.256 1092.58 354.256C1092.28 354.256 1091.97 354.256 1091.67 354.256C1091.67 292.329 1091.67 230.397 1091.67 168.47C1092.48 168.47 1093.28 168.47 1094.09 168.47V354.256" stroke="black" stroke-width="0.213941" stroke-miterlimit="10"/>
<path d="M174.699 159.644C174.943 159.644 175.157 159.602 175.375 159.499C175.418 159.721 175.46 159.944 175.503 160.166C175.366 160.235 175.225 160.286 175.075 160.316C174.9 160.355 174.729 160.372 174.549 160.368C174.232 160.376 173.946 160.32 173.65 160.196C173.407 160.094 173.24 159.948 173.103 159.726C172.966 159.503 172.91 159.289 172.919 159.028C172.91 158.528 173.197 158.066 173.65 157.852C173.89 157.732 174.121 157.676 174.386 157.685C174.733 157.659 175.071 157.796 175.302 158.053C175.563 158.378 175.653 158.686 175.619 159.097C175.092 159.161 174.57 159.229 174.044 159.294C174.164 159.537 174.425 159.674 174.695 159.64L174.699 159.644Z" stroke="black" stroke-width="0.213941" stroke-miterlimit="10"/>
<path d="M161.801 160.329V156.748H163.067C163.521 156.735 163.94 156.803 164.364 156.97C164.698 157.094 164.92 157.282 165.1 157.591C165.271 157.886 165.344 158.172 165.335 158.515C165.365 159.024 165.151 159.52 164.762 159.85C164.347 160.201 163.726 160.325 163.016 160.325C162.609 160.325 162.207 160.325 161.801 160.325V160.329Z" stroke="black" stroke-width="0.213941" stroke-miterlimit="10"/>
<path d="M163.315 159.421C163.584 159.442 163.764 159.369 163.944 159.168C164.106 158.963 164.17 158.766 164.149 158.505C164.166 158.261 164.106 158.081 163.952 157.893C163.764 157.709 163.576 157.641 163.315 157.662H162.977V159.425H163.315V159.421Z" stroke="black" stroke-width="0.213941" stroke-miterlimit="10"/>
<path d="M182.127 161.339C182.003 161.33 181.874 161.322 181.75 161.313C181.66 161.292 181.566 161.27 181.476 161.249C181.506 160.996 181.532 160.748 181.562 160.496C181.63 160.509 181.699 160.517 181.767 160.53C181.84 160.534 181.913 160.538 181.985 160.543C182.187 160.568 182.336 160.526 182.499 160.397C182.636 160.265 182.683 160.141 182.653 159.952V159.657C182.584 159.867 182.477 160.004 182.294 160.115C182.118 160.222 181.947 160.265 181.742 160.256C181.446 160.273 181.16 160.141 180.98 159.905C180.77 159.593 180.689 159.293 180.71 158.917V157.719H181.827V158.977C181.827 159.067 181.831 159.156 181.87 159.251C181.904 159.332 181.973 159.443 182.161 159.443C182.311 159.443 182.405 159.4 182.49 159.276C182.589 159.139 182.627 159.007 182.614 158.84V157.723H183.731V159.721C183.765 160.171 183.616 160.611 183.312 160.945C182.982 161.227 182.559 161.369 182.127 161.339Z" stroke="black" stroke-width="0.213941" stroke-miterlimit="10"/>
<path d="M157.018 159.465C157.677 158.814 158.34 158.164 158.999 157.514C159.243 157.753 159.487 157.997 159.731 158.237C160.188 158.686 160.188 159.426 159.731 159.871C159.102 160.483 158.477 161.099 157.848 161.711C157.386 162.165 156.646 162.165 156.179 161.711C155.55 161.099 154.925 160.483 154.296 159.871C153.839 159.422 153.839 158.686 154.296 158.237C154.54 157.997 154.784 157.753 155.028 157.514C155.931 158.404 156.838 159.294 157.741 160.179C158.207 160.629 158.943 160.629 159.41 160.179" stroke="black" stroke-width="0.213941" stroke-miterlimit="10"/>
<path d="M126.083 261.372V192.56C126.078 190.258 126.083 187.96 126.096 185.658V185.312C126.108 185.187 126.113 185.063 126.117 184.939C126.147 184.426 126.194 183.921 126.258 183.412C126.322 182.907 126.404 182.402 126.502 181.901C126.879 180.01 127.473 178.247 128.325 176.519C128.796 175.556 129.335 174.64 129.942 173.754C131.333 171.735 132.946 170.058 134.914 168.594C136.275 167.584 137.7 166.754 139.253 166.078C140.994 165.321 142.766 164.807 144.644 164.517C144.978 164.474 145.307 164.431 145.641 164.384C145.975 164.354 146.313 164.328 146.647 164.298C146.814 164.29 146.981 164.281 147.147 164.273C147.297 164.273 147.443 164.273 147.592 164.268C156.437 164.256 165.277 164.251 174.121 164.256C182.918 164.256 191.715 164.256 200.517 164.256C537.474 164.256 874.426 164.256 1211.38 164.256H1249.72C1252.63 164.256 1255.55 164.256 1258.47 164.26C1258.6 164.26 1258.74 164.26 1258.87 164.26C1259.02 164.264 1259.17 164.273 1259.31 164.277C1260.29 164.324 1261.24 164.435 1262.2 164.611C1263.16 164.786 1264.09 165.021 1265.01 165.321C1266.1 165.676 1267.16 166.113 1268.18 166.635C1268.7 166.896 1269.2 167.178 1269.69 167.477C1270.12 167.743 1270.55 168.021 1270.96 168.316C1271.74 168.872 1272.48 169.471 1273.18 170.126C1273.78 170.687 1274.35 171.281 1274.88 171.906C1275.67 172.826 1276.37 173.793 1277 174.833C1277.62 175.868 1278.15 176.942 1278.6 178.068C1278.83 178.628 1279.03 179.197 1279.2 179.775C1279.3 180.126 1279.39 180.476 1279.49 180.827C1279.56 181.105 1279.62 181.384 1279.69 181.662C1279.8 182.218 1279.89 182.774 1279.97 183.335C1280.04 183.865 1280.09 184.396 1280.12 184.931C1280.13 185.213 1280.14 185.496 1280.15 185.782C1280.15 186.433 1280.15 187.079 1280.15 187.729C1280.15 235.844 1280.15 283.96 1280.15 332.075C1280.15 332.871 1280.15 333.662 1280.15 334.458C1280.17 335.28 1280.16 336.105 1280.14 336.927C1280.13 337.209 1280.12 337.492 1280.11 337.774C1280.09 338.044 1280.07 338.309 1280.05 338.579C1280.02 338.848 1279.99 339.118 1279.96 339.387C1279.92 339.665 1279.88 339.944 1279.84 340.222C1279.79 340.5 1279.74 340.778 1279.68 341.052C1279.62 341.33 1279.55 341.608 1279.49 341.886C1279.4 342.199 1279.32 342.507 1279.23 342.819C1279.06 343.401 1278.86 343.97 1278.65 344.535C1278.2 345.664 1277.68 346.738 1277.06 347.778C1276.44 348.818 1275.75 349.789 1274.97 350.713C1274.42 351.364 1273.84 351.98 1273.22 352.562C1272.51 353.221 1271.78 353.824 1270.99 354.385C1270.58 354.676 1270.17 354.954 1269.74 355.219C1269.25 355.523 1268.75 355.801 1268.24 356.066C1267.21 356.588 1266.16 357.029 1265.07 357.388C1263.19 358.009 1261.32 358.351 1259.34 358.445C1259.05 358.454 1258.76 358.462 1258.47 358.471C1257.41 358.479 1256.35 358.479 1255.29 358.479C903.697 358.479 552.103 358.479 200.513 358.479C191.715 358.479 182.918 358.479 174.117 358.479C165.272 358.484 156.428 358.479 147.588 358.467C147.438 358.467 147.293 358.467 147.143 358.462C146.976 358.454 146.809 358.445 146.638 358.437C146.3 358.407 145.966 358.381 145.628 358.351C145.295 358.308 144.965 358.265 144.631 358.218C142.753 357.927 140.986 357.414 139.244 356.657C137.691 355.981 136.262 355.155 134.906 354.145C132.937 352.682 131.324 351.004 129.934 348.985C129.326 348.103 128.791 347.188 128.316 346.225C127.465 344.492 126.866 342.725 126.494 340.834C126.395 340.333 126.314 339.832 126.25 339.327C126.181 338.818 126.134 338.313 126.108 337.8C126.104 337.676 126.096 337.552 126.091 337.428C126.091 337.308 126.087 337.188 126.083 337.064C126.083 311.832 126.074 286.6 126.074 261.367L126.083 261.372Z" stroke="black" stroke-width="0.213941" stroke-miterlimit="10"/>
<path d="M171.008 159.551C171.166 159.551 171.277 159.513 171.389 159.402C171.504 159.295 171.547 159.188 171.543 159.034C171.547 158.875 171.504 158.768 171.389 158.666C171.277 158.554 171.166 158.512 171.008 158.516C170.85 158.503 170.747 158.546 170.636 158.661C170.516 158.764 170.473 158.871 170.482 159.029C170.473 159.188 170.52 159.299 170.636 159.406C170.743 159.517 170.85 159.564 171.008 159.56V159.551Z" stroke="black" stroke-width="0.213941" stroke-miterlimit="10"/>
<path d="M168.35 160.359C168.166 160.376 168.038 160.333 167.905 160.205C167.789 160.098 167.747 159.987 167.751 159.829C167.742 159.666 167.789 159.559 167.914 159.452C168.046 159.332 168.17 159.289 168.35 159.302C168.53 159.285 168.654 159.332 168.782 159.456C168.902 159.559 168.949 159.666 168.945 159.824C168.958 159.987 168.915 160.098 168.795 160.209C168.662 160.329 168.534 160.372 168.354 160.355" stroke="black" stroke-width="0.213941" stroke-miterlimit="10"/>
<path d="M158.123 157.108C158.123 156.847 158.054 156.642 157.887 156.436C157.669 156.167 157.344 156.021 157.001 156.025C156.651 156.025 156.347 156.175 156.133 156.449C155.97 156.654 155.906 156.86 155.91 157.121C155.91 157.382 155.987 157.583 156.15 157.788C156.372 158.062 156.676 158.203 157.031 158.199C157.387 158.199 157.678 158.049 157.891 157.776C158.054 157.57 158.123 157.369 158.123 157.108Z" stroke="black" stroke-width="0.213941" stroke-miterlimit="10"/>
<line x1="180.535" y1="187.859" x2="180.535" y2="335.09" stroke="black" stroke-width="0.5" stroke-linecap="square" stroke-dasharray="2.26 2.26"/>
<line x1="230.535" y1="187.859" x2="230.535" y2="335.09" stroke="black" stroke-width="0.5" stroke-linecap="square" stroke-dasharray="2.26 2.26"/>
<line x1="280.535" y1="187.859" x2="280.535" y2="335.09" stroke="black" stroke-width="0.5" stroke-linecap="square" stroke-dasharray="2.26 2.26"/>
<line x1="330.535" y1="187.859" x2="330.535" y2="335.09" stroke="black" stroke-width="0.5" stroke-linecap="square" stroke-dasharray="2.26 2.26"/>
</g>
<g filter="url(#filter0_d_423_511)">
<g filter="url(#filter1_d_423_511)">
<circle cx="180.5" cy="50" r="14" fill="url(#paint1_linear_423_511)"/>
</g>
<g filter="url(#filter2_f_423_511)">
<ellipse cx="180.499" cy="48.6795" rx="13.425" ry="12.6795" fill="#9747FF"/>
</g>
</g>
<path d="M174.613 48.1336H176.093V47.3539C176.093 46.8058 176.392 46.512 176.946 46.512H179.037C179.59 46.512 179.89 46.8058 179.89 47.3539V48.1336H181.161V47.3539C181.161 46.8058 181.461 46.512 182.037 46.512H184.02C184.602 46.512 184.901 46.8058 184.901 47.3539V48.1336H186.382V46.512C186.382 45.4385 185.805 44.8792 184.755 44.8792H176.24C175.189 44.8792 174.613 45.4385 174.613 46.512V48.1336ZM173.217 54.1736C173.217 54.4787 173.415 54.6708 173.714 54.6708H174.065C174.364 54.6708 174.562 54.4787 174.562 54.1736V53.36C174.63 53.3769 174.827 53.3882 174.969 53.3882H186.026C186.167 53.3882 186.365 53.3769 186.433 53.36V54.1736C186.433 54.4787 186.63 54.6708 186.93 54.6708H187.28C187.58 54.6708 187.777 54.4787 187.777 54.1736V50.7383C187.777 49.6139 187.156 48.9981 186.026 48.9981H174.969C173.839 48.9981 173.217 49.6139 173.217 50.7383V54.1736Z" fill="white"/>
<path d="M159.495 86.2812C156.191 86.2812 154.159 83.9922 154.159 80.3672V80.3516C154.159 76.7188 156.222 74.4453 159.495 74.4453C162.777 74.4453 164.823 76.7188 164.823 80.3516V80.3672C164.823 83.9922 162.784 86.2812 159.495 86.2812ZM159.495 84.5391C161.503 84.5391 162.769 82.8984 162.769 80.3672V80.3516C162.769 77.8047 161.495 76.1875 159.495 76.1875C157.495 76.1875 156.214 77.8047 156.214 80.3516V80.3672C156.214 82.8984 157.464 84.5391 159.495 84.5391ZM166.613 86V77.4609H168.558V78.7656H168.691C169.097 77.8516 169.917 77.2969 171.152 77.2969C173.058 77.2969 174.097 78.4453 174.097 80.4766V86H172.152V80.9297C172.152 79.6016 171.613 78.9297 170.433 78.9297C169.277 78.9297 168.558 79.7422 168.558 81.0234V86H166.613ZM180.02 88.8359V77.4609H181.965V78.7969H182.098C182.567 77.8672 183.496 77.3203 184.692 77.3203C186.832 77.3203 188.199 79.0234 188.199 81.7266V81.7422C188.199 84.4609 186.856 86.1406 184.692 86.1406C183.52 86.1406 182.543 85.5625 182.098 84.6406H181.965V88.8359H180.02ZM184.082 84.5C185.41 84.5 186.215 83.4531 186.215 81.7422V81.7266C186.215 80.0078 185.41 78.9609 184.082 78.9609C182.762 78.9609 181.942 80.0078 181.942 81.7188V81.7344C181.942 83.4453 182.762 84.5 184.082 84.5ZM192.168 86.1406C190.543 86.1406 189.364 85.1406 189.364 83.5859V83.5703C189.364 82.0469 190.528 81.1562 192.606 81.0312L194.801 80.8984V80.1641C194.801 79.3125 194.247 78.8438 193.2 78.8438C192.309 78.8438 191.731 79.1641 191.536 79.7266L191.528 79.7578H189.692L189.7 79.6875C189.887 78.25 191.262 77.2969 193.293 77.2969C195.489 77.2969 196.723 78.3594 196.723 80.1641V86H194.801V84.8281H194.668C194.2 85.6562 193.293 86.1406 192.168 86.1406ZM191.286 83.4922C191.286 84.2188 191.903 84.6484 192.762 84.6484C193.934 84.6484 194.801 83.8828 194.801 82.8672V82.1797L192.879 82.3047C191.793 82.375 191.286 82.7734 191.286 83.4766V83.4922ZM201.817 86.1406C199.677 86.1406 198.317 84.4453 198.317 81.7422V81.7266C198.317 79.0078 199.653 77.3203 201.817 77.3203C202.989 77.3203 203.966 77.8984 204.411 78.8203H204.544V74.1562H206.497V86H204.544V84.6641H204.411C203.942 85.5938 203.02 86.1406 201.817 86.1406ZM202.427 84.5C203.755 84.5 204.575 83.4531 204.575 81.7422V81.7266C204.575 80.0156 203.747 78.9609 202.427 78.9609C201.106 78.9609 200.294 80.0078 200.294 81.7266V81.7422C200.294 83.4609 201.098 84.5 202.427 84.5Z" fill="#111111"/>
<g clip-path="url(#clip1_423_511)">
<path d="M309.488 29.7715C309.488 2.64631 330.301 -19.9408 357.335 -22.1556V-22.1556C360.167 -22.3876 363.012 -22.3876 365.844 -22.1556V-22.1556C392.878 -19.9408 413.69 2.64635 413.69 29.7715V35.048C413.69 64.4005 390.883 88.7014 361.589 90.5604V90.5604V90.5604C332.296 88.7014 309.488 64.4005 309.488 35.048V29.7715Z" fill="white" fill-opacity="0.6"/>
<path d="M365.022 89.8497C363.889 89.9926 362.744 90.1015 361.589 90.1753C360.435 90.1015 359.29 89.9926 358.157 89.8497L358.109 90.2311C355.772 89.9364 353.483 89.4982 351.25 88.9256L351.345 88.5533C349.086 87.9741 346.884 87.2564 344.749 86.4102L344.608 86.7675C342.43 85.9044 340.322 84.9084 338.292 83.7899L338.477 83.4532C336.444 82.3329 334.491 81.0886 332.626 79.731L332.4 80.0417C330.513 78.6681 328.718 77.1791 327.023 75.5855L327.286 75.3055C325.6 73.7205 324.015 72.0313 322.54 70.2486L322.244 70.4936C320.761 68.7012 319.389 66.8148 318.137 64.8452L318.462 64.639C317.225 62.6924 316.107 60.6638 315.117 58.5639L314.77 58.7277C313.782 56.6311 312.921 54.4638 312.198 52.2359L312.564 52.1172C311.854 49.933 311.278 47.6902 310.843 45.3986L310.465 45.4703C310.035 43.2052 309.743 40.8928 309.597 38.5424L309.98 38.5186C309.909 37.3705 309.873 36.2133 309.873 35.048V33.7289H309.488V31.0906H309.873V29.7715C309.873 28.694 309.906 27.6238 309.971 26.5619L309.587 26.5383C309.721 24.3642 309.988 22.2242 310.381 20.127L310.759 20.1979C311.157 18.0781 311.684 16.0024 312.332 13.9795L311.966 13.8622C312.627 11.7986 313.414 9.78968 314.318 7.84469L314.666 8.00664C315.571 6.05982 316.593 4.17751 317.724 2.36922L317.398 2.16534C318.544 0.335014 319.8 -1.42 321.158 -3.09L321.456 -2.84746C322.806 -4.50759 324.258 -6.08309 325.802 -7.56428L325.536 -7.8417C327.09 -9.33169 328.736 -10.7269 330.467 -12.0178L330.697 -11.7096C332.407 -12.9849 334.199 -14.1574 336.066 -15.2178L335.876 -15.552C337.741 -16.6114 339.679 -17.5596 341.681 -18.3873L341.828 -18.032C343.791 -18.8434 345.817 -19.5381 347.897 -20.1073L347.796 -20.4781C349.854 -21.0412 351.965 -21.4823 354.121 -21.7929L354.176 -21.4125C355.229 -21.5642 356.293 -21.6845 357.367 -21.7725C358.069 -21.8301 358.772 -21.8732 359.476 -21.902L359.461 -22.2861C360.879 -22.3441 362.3 -22.3441 363.718 -22.2861L363.703 -21.902C364.406 -21.8732 365.11 -21.8301 365.812 -21.7725C366.886 -21.6845 367.95 -21.5642 369.003 -21.4125L369.058 -21.7929C371.214 -21.4823 373.325 -21.0412 375.383 -20.4781L375.281 -20.1073C377.362 -19.5381 379.387 -18.8434 381.351 -18.032L381.497 -18.3873C383.5 -17.5596 385.438 -16.6114 387.303 -15.552L387.113 -15.2178C388.979 -14.1574 390.772 -12.9849 392.482 -11.7096L392.712 -12.0177C394.442 -10.7269 396.089 -9.33167 397.642 -7.84168L397.376 -7.56426C398.921 -6.08307 400.372 -4.50757 401.723 -2.84744L402.021 -3.08997C403.379 -1.41997 404.635 0.335043 405.78 2.16537L405.454 2.36926C406.586 4.17754 407.608 6.05985 408.513 8.00668L408.861 7.84473C409.765 9.78972 410.551 11.7987 411.213 13.8622L410.847 13.9796C411.495 16.0024 412.022 18.0782 412.42 20.1979L412.797 20.1271C413.191 22.2243 413.458 24.3642 413.591 26.5384L413.208 26.5619C413.273 27.6239 413.306 28.6941 413.306 29.7715V31.0906H413.69V33.7289H413.306V35.048C413.306 36.2133 413.27 37.3705 413.199 38.5186L413.582 38.5424C413.436 40.8928 413.144 43.2052 412.714 45.4703L412.336 45.3986C411.901 47.6902 411.324 49.933 410.615 52.1172L410.981 52.236C410.257 54.4638 409.397 56.6311 408.409 58.7277L408.061 58.5639C407.072 60.6639 405.954 62.6924 404.717 64.6391L405.042 64.8452C403.79 66.8148 402.418 68.7012 400.935 70.4937L400.639 70.2486C399.164 72.0313 397.578 73.7205 395.893 75.3055L396.156 75.5855C394.461 77.1791 392.665 78.6681 390.779 80.0417L390.553 79.731C388.688 81.0887 386.735 82.3329 384.702 83.4532L384.887 83.7899C382.857 84.9084 380.749 85.9044 378.571 86.7675L378.43 86.4102C376.295 87.2564 374.093 87.9741 371.833 88.5533L371.929 88.9256C369.696 89.4982 367.406 89.9364 365.07 90.231L365.022 89.8497Z" stroke="#111111" stroke-opacity="0.7" stroke-width="0.768795" stroke-dasharray="6.59 6.59"/>
<mask id="path-29-inside-1_423_511" fill="white">
<path fill-rule="evenodd" clip-rule="evenodd" d="M353.921 116.784L235.908 141.274C221.491 144.266 210.809 156.46 209.741 171.145L194 387.56H529.187L511.484 122.364C510.152 102.41 491.495 88.2339 471.914 92.2975L381.316 111.099C375.396 115.342 368.695 117.734 361.598 117.734C358.979 117.734 356.413 117.408 353.921 116.784Z"/>
</mask>
<path fill-rule="evenodd" clip-rule="evenodd" d="M353.921 116.784L235.908 141.274C221.491 144.266 210.809 156.46 209.741 171.145L194 387.56H529.187L511.484 122.364C510.152 102.41 491.495 88.2339 471.914 92.2975L381.316 111.099C375.396 115.342 368.695 117.734 361.598 117.734C358.979 117.734 356.413 117.408 353.921 116.784Z" fill="white" fill-opacity="0.6"/>
<path d="M235.908 141.274L235.83 140.898L235.83 140.898L235.908 141.274ZM353.921 116.784L354.015 116.411L353.929 116.39L353.843 116.407L353.921 116.784ZM209.741 171.145L210.124 171.173L210.124 171.173L209.741 171.145ZM194 387.56L193.617 387.532L193.587 387.944H194V387.56ZM529.187 387.56V387.944H529.598L529.57 387.534L529.187 387.56ZM511.484 122.364L511.101 122.39L511.101 122.39L511.484 122.364ZM471.914 92.2975L471.992 92.6739L471.914 92.2975ZM381.316 111.099L381.238 110.722L381.158 110.739L381.092 110.786L381.316 111.099ZM235.83 140.898C234.646 141.144 233.487 141.451 232.356 141.815L232.592 142.547C233.697 142.191 234.829 141.891 235.986 141.651L235.83 140.898ZM225.808 144.74C223.726 145.955 221.793 147.386 220.038 149.001L220.558 149.567C222.273 147.989 224.161 146.591 226.195 145.404L225.808 144.74ZM215.312 154.396C213.941 156.349 212.777 158.453 211.847 160.677L212.556 160.973C213.465 158.801 214.602 156.746 215.941 154.838L215.312 154.396ZM209.81 167.553C209.597 168.722 209.445 169.912 209.358 171.117L210.124 171.173C210.21 169.995 210.358 168.833 210.566 167.691L209.81 167.553ZM209.358 171.117L209.112 174.499L209.879 174.555L210.124 171.173L209.358 171.117ZM208.62 181.262L208.128 188.025L208.895 188.08L209.387 181.318L208.62 181.262ZM207.636 194.788L207.144 201.551L207.911 201.606L208.403 194.843L207.636 194.788ZM206.652 208.314L206.16 215.077L206.927 215.132L207.419 208.369L206.652 208.314ZM205.668 221.839L205.176 228.602L205.943 228.658L206.435 221.895L205.668 221.839ZM204.685 235.365L204.193 242.128L204.959 242.184L205.451 235.421L204.685 235.365ZM203.701 248.891L203.209 255.654L203.976 255.71L204.468 248.947L203.701 248.891ZM202.717 262.417L202.225 269.18L202.992 269.236L203.484 262.473L202.717 262.417ZM201.733 275.943L201.241 282.706L202.008 282.762L202.5 275.999L201.733 275.943ZM200.749 289.469L200.257 296.232L201.024 296.288L201.516 289.525L200.749 289.469ZM199.765 302.995L199.274 309.758L200.04 309.814L200.532 303.051L199.765 302.995ZM198.782 316.521L198.29 323.284L199.057 323.34L199.548 316.577L198.782 316.521ZM197.798 330.047L197.306 336.81L198.073 336.866L198.565 330.103L197.798 330.047ZM196.814 343.573L196.322 350.336L197.089 350.391L197.581 343.629L196.814 343.573ZM195.83 357.099L195.338 363.862L196.105 363.917L196.597 357.154L195.83 357.099ZM194.846 370.625L194.354 377.388L195.121 377.443L195.613 370.68L194.846 370.625ZM193.863 384.15L193.617 387.532L194.383 387.588L194.629 384.206L193.863 384.15ZM194 387.944H197.352V387.175H194V387.944ZM204.056 387.944H210.759V387.175H204.056V387.944ZM217.463 387.944H224.167V387.175H217.463V387.944ZM230.871 387.944H237.574V387.175H230.871V387.944ZM244.278 387.944H250.982V387.175H244.278V387.944ZM257.686 387.944H264.389V387.175H257.686V387.944ZM271.093 387.944H277.797V387.175H271.093V387.944ZM284.5 387.944H291.204V387.175H284.5V387.944ZM297.908 387.944H304.612V387.175H297.908V387.944ZM311.315 387.944H318.019V387.175H311.315V387.944ZM324.723 387.944H331.427V387.175H324.723V387.944ZM338.13 387.944H344.834V387.175H338.13V387.944ZM351.538 387.944H358.242V387.175H351.538V387.944ZM364.945 387.944H371.649V387.175H364.945V387.944ZM378.353 387.944H385.056V387.175H378.353V387.944ZM391.76 387.944H398.464V387.175H391.76V387.944ZM405.168 387.944H411.871V387.175H405.168V387.944ZM418.575 387.944H425.279V387.175H418.575V387.944ZM431.983 387.944H438.686V387.175H431.983V387.944ZM445.39 387.944H452.094V387.175H445.39V387.944ZM458.798 387.944H465.501V387.175H458.798V387.944ZM472.205 387.944H478.909V387.175H472.205V387.944ZM485.613 387.944H492.316V387.175H485.613V387.944ZM499.02 387.944H505.724V387.175H499.02V387.944ZM512.427 387.944H519.131V387.175H512.427V387.944ZM525.835 387.944H529.187V387.175H525.835V387.944ZM529.57 387.534L529.349 384.219L528.582 384.271L528.803 387.585L529.57 387.534ZM528.907 377.589L528.464 370.96L527.697 371.011L528.139 377.641L528.907 377.589ZM528.021 364.33L527.579 357.7L526.812 357.751L527.254 364.381L528.021 364.33ZM527.136 351.07L526.694 344.44L525.927 344.491L526.369 351.121L527.136 351.07ZM526.251 337.81L525.809 331.18L525.042 331.231L525.484 337.861L526.251 337.81ZM525.366 324.55L524.923 317.92L524.156 317.972L524.599 324.601L525.366 324.55ZM524.481 311.29L524.038 304.661L523.271 304.712L523.714 311.342L524.481 311.29ZM523.596 298.031L523.153 291.401L522.386 291.452L522.829 298.082L523.596 298.031ZM522.711 284.771L522.268 278.141L521.501 278.192L521.944 284.822L522.711 284.771ZM521.825 271.511L521.383 264.881L520.616 264.932L521.058 271.562L521.825 271.511ZM520.94 258.251L520.498 251.621L519.731 251.673L520.173 258.302L520.94 258.251ZM520.055 244.991L519.613 238.362L518.846 238.413L519.288 245.043L520.055 244.991ZM519.17 231.732L518.727 225.102L517.96 225.153L518.403 231.783L519.17 231.732ZM518.285 218.472L517.842 211.842L517.075 211.893L517.518 218.523L518.285 218.472ZM517.4 205.212L516.957 198.582L516.19 198.633L516.633 205.263L517.4 205.212ZM516.515 191.952L516.072 185.322L515.305 185.374L515.748 192.003L516.515 191.952ZM515.629 178.692L515.187 172.063L514.42 172.114L514.862 178.744L515.629 178.692ZM514.744 165.433L514.302 158.803L513.535 158.854L513.977 165.484L514.744 165.433ZM513.859 152.173L513.417 145.543L512.65 145.594L513.092 152.224L513.859 152.173ZM512.974 138.913L512.531 132.283L511.764 132.334L512.207 138.964L512.974 138.913ZM512.089 125.653L511.868 122.338L511.101 122.39L511.322 125.705L512.089 125.653ZM511.868 122.338C511.788 121.139 511.646 119.96 511.445 118.804L510.688 118.936C510.884 120.065 511.022 121.217 511.101 122.39L511.868 122.338ZM509.489 111.971C508.584 109.747 507.449 107.653 506.117 105.714L505.483 106.149C506.784 108.044 507.893 110.089 508.777 112.26L509.489 111.971ZM501.491 100.318C499.762 98.6891 497.864 97.247 495.832 96.0181L495.434 96.676C497.42 97.8767 499.274 99.2859 500.963 100.877L501.491 100.318ZM489.394 93.0072C487.168 92.2433 484.847 91.7107 482.462 91.4347L482.374 92.1984C484.702 92.4679 486.97 92.9881 489.144 93.7344L489.394 93.0072ZM475.354 91.3811C474.187 91.4977 473.013 91.6769 471.836 91.9211L471.992 92.6739C473.143 92.4351 474.29 92.26 475.431 92.1461L475.354 91.3811ZM471.836 91.9211L468.6 92.5926L468.757 93.3454L471.992 92.6739L471.836 91.9211ZM462.129 93.9355L455.658 95.2785L455.814 96.0312L462.285 94.6883L462.129 93.9355ZM449.186 96.6214L442.715 97.9644L442.871 98.7171L449.343 97.3742L449.186 96.6214ZM436.244 99.3073L429.773 100.65L429.929 101.403L436.4 100.06L436.244 99.3073ZM423.301 101.993L416.83 103.336L416.986 104.089L423.458 102.746L423.301 101.993ZM410.359 104.679L403.887 106.022L404.044 106.775L410.515 105.432L410.359 104.679ZM397.416 107.365L390.945 108.708L391.101 109.461L397.572 108.118L397.416 107.365ZM384.474 110.051L381.238 110.722L381.394 111.475L384.63 110.804L384.474 110.051ZM381.092 110.786C380.377 111.299 379.652 111.783 378.915 112.24L379.32 112.893C380.072 112.428 380.812 111.933 381.54 111.411L381.092 110.786ZM374.287 114.67C372.679 115.368 371.031 115.937 369.35 116.368L369.541 117.113C371.263 116.671 372.949 116.089 374.594 115.375L374.287 114.67ZM364.206 117.24C363.344 117.313 362.474 117.35 361.598 117.35V118.119C362.496 118.119 363.387 118.081 364.271 118.006L364.206 117.24ZM361.598 117.35C360.957 117.35 360.319 117.33 359.684 117.291L359.637 118.058C360.287 118.098 360.941 118.119 361.598 118.119V117.35ZM355.886 116.82C355.258 116.703 354.634 116.566 354.015 116.411L353.828 117.157C354.462 117.316 355.101 117.455 355.744 117.576L355.886 116.82ZM353.843 116.407L350.565 117.088L350.721 117.841L353.999 117.16L353.843 116.407ZM344.009 118.448L337.452 119.809L337.608 120.562L344.165 119.201L344.009 118.448ZM330.896 121.17L324.34 122.53L324.496 123.283L331.052 121.922L330.896 121.17ZM317.783 123.891L311.227 125.251L311.383 126.004L317.94 124.643L317.783 123.891ZM304.671 126.612L298.114 127.972L298.271 128.725L304.827 127.365L304.671 126.612ZM291.558 129.333L285.002 130.694L285.158 131.446L291.714 130.086L291.558 129.333ZM278.446 132.054L271.889 133.415L272.045 134.168L278.602 132.807L278.446 132.054ZM265.333 134.775L258.777 136.136L258.933 136.889L265.489 135.528L265.333 134.775ZM252.22 137.497L245.664 138.857L245.82 139.61L252.377 138.249L252.22 137.497ZM239.108 140.218L235.83 140.898L235.986 141.651L239.264 140.971L239.108 140.218ZM235.908 141.274L235.751 140.522L235.751 140.522L235.908 141.274ZM353.921 116.784L354.108 116.038L353.937 115.995L353.765 116.031L353.921 116.784ZM209.741 171.145L210.508 171.201L210.508 171.201L209.741 171.145ZM194 387.56L193.233 387.504L193.173 388.329H194V387.56ZM529.187 387.56V388.329H530.009L529.954 387.509L529.187 387.56ZM511.484 122.364L510.717 122.415L510.717 122.415L511.484 122.364ZM471.914 92.2975L472.07 93.0503L471.914 92.2975ZM381.316 111.099L381.16 110.346L381 110.379L380.868 110.474L381.316 111.099ZM235.751 140.522C234.554 140.77 233.382 141.081 232.238 141.449L232.71 142.913C233.802 142.561 234.921 142.264 236.064 142.027L235.751 140.522ZM225.614 144.408C223.508 145.637 221.553 147.084 219.777 148.718L220.819 149.85C222.513 148.29 224.379 146.909 226.389 145.736L225.614 144.408ZM214.997 154.175C213.611 156.151 212.433 158.279 211.492 160.528L212.911 161.122C213.809 158.975 214.933 156.944 216.256 155.059L214.997 154.175ZM209.432 167.485C209.217 168.667 209.063 169.87 208.974 171.089L210.508 171.201C210.593 170.037 210.739 168.888 210.944 167.76L209.432 167.485ZM208.974 171.089L208.728 174.471L210.262 174.582L210.508 171.201L208.974 171.089ZM208.236 181.234L207.745 187.997L209.278 188.108L209.77 181.345L208.236 181.234ZM207.253 194.76L206.761 201.523L208.294 201.634L208.786 194.871L207.253 194.76ZM206.269 208.286L205.777 215.049L207.31 215.16L207.802 208.397L206.269 208.286ZM205.285 221.812L204.793 228.575L206.327 228.686L206.819 221.923L205.285 221.812ZM204.301 235.338L203.809 242.1L205.343 242.212L205.835 235.449L204.301 235.338ZM203.317 248.863L202.825 255.626L204.359 255.738L204.851 248.975L203.317 248.863ZM202.334 262.389L201.842 269.152L203.375 269.264L203.867 262.501L202.334 262.389ZM201.35 275.915L200.858 282.678L202.391 282.79L202.883 276.027L201.35 275.915ZM200.366 289.441L199.874 296.204L201.408 296.316L201.899 289.553L200.366 289.441ZM199.382 302.967L198.89 309.73L200.424 309.842L200.916 303.079L199.382 302.967ZM198.398 316.493L197.906 323.256L199.44 323.368L199.932 316.605L198.398 316.493ZM197.414 330.019L196.923 336.782L198.456 336.893L198.948 330.13L197.414 330.019ZM196.431 343.545L195.939 350.308L197.472 350.419L197.964 343.656L196.431 343.545ZM195.447 357.071L194.955 363.834L196.488 363.945L196.98 357.182L195.447 357.071ZM194.463 370.597L193.971 377.36L195.505 377.471L195.997 370.708L194.463 370.597ZM193.479 384.123L193.233 387.504L194.767 387.616L195.013 384.234L193.479 384.123ZM194 388.329H197.352V386.791H194V388.329ZM204.056 388.329H210.759V386.791H204.056V388.329ZM217.463 388.329H224.167V386.791H217.463V388.329ZM230.871 388.329H237.574V386.791H230.871V388.329ZM244.278 388.329H250.982V386.791H244.278V388.329ZM257.686 388.329H264.389V386.791H257.686V388.329ZM271.093 388.329H277.797V386.791H271.093V388.329ZM284.5 388.329H291.204V386.791H284.5V388.329ZM297.908 388.329H304.612V386.791H297.908V388.329ZM311.315 388.329H318.019V386.791H311.315V388.329ZM324.723 388.329H331.427V386.791H324.723V388.329ZM338.13 388.329H344.834V386.791H338.13V388.329ZM351.538 388.329H358.242V386.791H351.538V388.329ZM364.945 388.329H371.649V386.791H364.945V388.329ZM378.353 388.329H385.056V386.791H378.353V388.329ZM391.76 388.329H398.464V386.791H391.76V388.329ZM405.168 388.329H411.871V386.791H405.168V388.329ZM418.575 388.329H425.279V386.791H418.575V388.329ZM431.983 388.329H438.686V386.791H431.983V388.329ZM445.39 388.329H452.094V386.791H445.39V388.329ZM458.798 388.329H465.501V386.791H458.798V388.329ZM472.205 388.329H478.909V386.791H472.205V388.329ZM485.613 388.329H492.316V386.791H485.613V388.329ZM499.02 388.329H505.724V386.791H499.02V388.329ZM512.427 388.329H519.131V386.791H512.427V388.329ZM525.835 388.329H529.187V386.791H525.835V388.329ZM529.954 387.509L529.733 384.194L528.199 384.296L528.42 387.611L529.954 387.509ZM529.29 377.564L528.848 370.934L527.313 371.036L527.756 377.666L529.29 377.564ZM528.405 364.304L527.962 357.674L526.428 357.777L526.871 364.406L528.405 364.304ZM527.52 351.044L527.077 344.414L525.543 344.517L525.986 351.147L527.52 351.044ZM526.635 337.784L526.192 331.155L524.658 331.257L525.101 337.887L526.635 337.784ZM525.75 324.525L525.307 317.895L523.773 317.997L524.215 324.627L525.75 324.525ZM524.864 311.265L524.422 304.635L522.888 304.737L523.33 311.367L524.864 311.265ZM523.979 298.005L523.537 291.375L522.003 291.478L522.445 298.107L523.979 298.005ZM523.094 284.745L522.652 278.115L521.117 278.218L521.56 284.848L523.094 284.745ZM522.209 271.485L521.766 264.856L520.232 264.958L520.675 271.588L522.209 271.485ZM521.324 258.226L520.881 251.596L519.347 251.698L519.79 258.328L521.324 258.226ZM520.439 244.966L519.996 238.336L518.462 238.438L518.905 245.068L520.439 244.966ZM519.554 231.706L519.111 225.076L517.577 225.179L518.019 231.808L519.554 231.706ZM518.668 218.446L518.226 211.816L516.692 211.919L517.134 218.549L518.668 218.446ZM517.783 205.186L517.341 198.557L515.807 198.659L516.249 205.289L517.783 205.186ZM516.898 191.927L516.456 185.297L514.921 185.399L515.364 192.029L516.898 191.927ZM516.013 178.667L515.57 172.037L514.036 172.139L514.479 178.769L516.013 178.667ZM515.128 165.407L514.685 158.777L513.151 158.88L513.594 165.509L515.128 165.407ZM514.243 152.147L513.8 145.517L512.266 145.62L512.709 152.25L514.243 152.147ZM513.358 138.887L512.915 132.258L511.381 132.36L511.823 138.99L513.358 138.887ZM512.472 125.628L512.251 122.313L510.717 122.415L510.938 125.73L512.472 125.628ZM512.251 122.313C512.17 121.1 512.027 119.908 511.824 118.738L510.309 119.001C510.502 120.117 510.64 121.256 510.717 122.415L512.251 122.313ZM509.845 111.826C508.93 109.576 507.781 107.458 506.433 105.496L505.166 106.367C506.452 108.239 507.548 110.26 508.421 112.405L509.845 111.826ZM501.754 100.038C500.006 98.3907 498.086 96.9321 496.031 95.6891L495.235 97.0049C497.198 98.1916 499.031 99.5843 500.7 101.157L501.754 100.038ZM489.518 92.6437C487.267 91.8709 484.919 91.332 482.506 91.0528L482.329 92.5802C484.63 92.8465 486.871 93.3605 489.019 94.098L489.518 92.6437ZM475.316 90.9986C474.135 91.1166 472.948 91.2978 471.758 91.5448L472.07 93.0503C473.208 92.8142 474.342 92.6412 475.469 92.5286L475.316 90.9986ZM471.758 91.5448L468.522 92.2162L468.835 93.7217L472.07 93.0503L471.758 91.5448ZM462.051 93.5592L455.58 94.9021L455.892 96.4076L462.363 95.0647L462.051 93.5592ZM449.108 96.2451L442.637 97.588L442.949 99.0935L449.421 97.7506L449.108 96.2451ZM436.166 98.9309L429.694 100.274L430.007 101.779L436.478 100.436L436.166 98.9309ZM423.223 101.617L416.752 102.96L417.064 104.465L423.536 103.122L423.223 101.617ZM410.281 104.303L403.809 105.646L404.122 107.151L410.593 105.808L410.281 104.303ZM397.338 106.989L390.867 108.332L391.179 109.837L397.65 108.494L397.338 106.989ZM384.395 109.675L381.16 110.346L381.472 111.851L384.708 111.18L384.395 109.675ZM380.868 110.474C380.16 110.981 379.442 111.461 378.713 111.913L379.523 113.22C380.282 112.75 381.029 112.25 381.764 111.724L380.868 110.474ZM374.134 114.317C372.544 115.008 370.916 115.57 369.255 115.996L369.637 117.485C371.379 117.039 373.084 116.45 374.747 115.728L374.134 114.317ZM364.174 116.857C363.322 116.929 362.463 116.965 361.598 116.965V118.503C362.506 118.503 363.408 118.465 364.303 118.389L364.174 116.857ZM361.598 116.965C360.965 116.965 360.334 116.946 359.708 116.907L359.613 118.442C360.271 118.482 360.933 118.503 361.598 118.503V116.965ZM355.956 116.442C355.336 116.326 354.72 116.191 354.108 116.038L353.734 117.53C354.376 117.69 355.022 117.832 355.674 117.954L355.956 116.442ZM353.765 116.031L350.487 116.711L350.799 118.217L354.077 117.537L353.765 116.031ZM343.93 118.072L337.374 119.433L337.687 120.938L344.243 119.577L343.93 118.072ZM330.818 120.793L324.262 122.154L324.574 123.659L331.13 122.299L330.818 120.793ZM317.705 123.514L311.149 124.875L311.461 126.38L318.018 125.02L317.705 123.514ZM304.593 126.235L298.036 127.596L298.349 129.102L304.905 127.741L304.593 126.235ZM291.48 128.957L284.924 130.317L285.236 131.823L291.792 130.462L291.48 128.957ZM278.367 131.678L271.811 133.038L272.124 134.544L278.68 133.183L278.367 131.678ZM265.255 134.399L258.699 135.76L259.011 137.265L265.567 135.905L265.255 134.399ZM252.142 137.12L245.586 138.481L245.898 139.986L252.455 138.626L252.142 137.12ZM239.03 139.841L235.751 140.522L236.064 142.027L239.342 141.347L239.03 139.841Z" fill="#111111" fill-opacity="0.7" mask="url(#path-29-inside-1_423_511)"/>
<path d="M278.611 248.361L267.563 387.56" stroke="#8E8E93" stroke-width="0.7" stroke-dasharray="6 6"/>
</g>
<defs>
<filter id="filter0_d_423_511" x="160.279" y="31.4379" width="40.4421" height="40.4421" filterUnits="userSpaceOnUse" color-interpolation-filters="sRGB">
<feFlood flood-opacity="0" result="BackgroundImageFix"/>
<feColorMatrix in="SourceAlpha" type="matrix" values="0 0 0 0 0 0 0 0 0 0 0 0 0 0 0 0 0 0 127 0" result="hardAlpha"/>
<feOffset dy="1.65895"/>
<feGaussianBlur stdDeviation="3.11053"/>
<feComposite in2="hardAlpha" operator="out"/>
<feColorMatrix type="matrix" values="0 0 0 0 0.592157 0 0 0 0 0.278431 0 0 0 0 1 0 0 0 0.2 0"/>
<feBlend mode="normal" in2="BackgroundImageFix" result="effect1_dropShadow_423_511"/>
<feBlend mode="normal" in="SourceGraphic" in2="effect1_dropShadow_423_511" result="shape"/>
</filter>
<filter id="filter1_d_423_511" x="154.058" y="23.5579" width="52.8842" height="52.8842" filterUnits="userSpaceOnUse" color-interpolation-filters="sRGB">
<feFlood flood-opacity="0" result="BackgroundImageFix"/>
<feColorMatrix in="SourceAlpha" type="matrix" values="0 0 0 0 0 0 0 0 0 0 0 0 0 0 0 0 0 0 127 0" result="hardAlpha"/>
<feOffset/>
<feGaussianBlur stdDeviation="6.22106"/>
<feComposite in2="hardAlpha" operator="out"/>
<feColorMatrix type="matrix" values="0 0 0 0 0.592157 0 0 0 0 0.278431 0 0 0 0 1 0 0 0 0.3 0"/>
<feBlend mode="normal" in2="BackgroundImageFix" result="effect1_dropShadow_423_511"/>
<feBlend mode="normal" in="SourceGraphic" in2="effect1_dropShadow_423_511" result="shape"/>
</filter>
<filter id="filter2_f_423_511" x="165.09" y="34.0162" width="30.8178" height="29.3266" filterUnits="userSpaceOnUse" color-interpolation-filters="sRGB">
<feFlood flood-opacity="0" result="BackgroundImageFix"/>
<feBlend mode="normal" in="SourceGraphic" in2="BackgroundImageFix" result="shape"/>
<feGaussianBlur stdDeviation="0.991916" result="effect1_foregroundBlur_423_511"/>
</filter>
<radialGradient id="paint0_radial_423_511" cx="0" cy="0" r="1" gradientUnits="userSpaceOnUse" gradientTransform="translate(168.881 164.753) rotate(-90) scale(12.344 49.9259)">
<stop stop-color="#D9D9D9"/>
<stop offset="1" stop-color="#F5F5F5"/>
</radialGradient>
<linearGradient id="paint1_linear_423_511" x1="180.5" y1="36" x2="180.5" y2="64" gradientUnits="userSpaceOnUse">
<stop stop-color="#835EEE"/>
<stop offset="1" stop-color="#D1C2FE"/>
</linearGradient>
<clipPath id="clip0_423_511">
<rect width="235" height="207" fill="white" transform="translate(126 152)"/>
</clipPath>
<clipPath id="clip1_423_511">
<rect width="167" height="383" fill="white" transform="translate(194)"/>
</clipPath>
</defs>
</svg>
