<svg width="34" height="33" viewBox="0 0 34 33" fill="none" xmlns="http://www.w3.org/2000/svg">
<path d="M16.9976 16.3082C17.6322 16.3082 18.0452 15.8649 18.0452 15.2001V6.35591C18.0452 5.69108 17.6322 5.23779 16.9976 5.23779C16.3731 5.23779 15.95 5.69108 15.95 6.35591V15.2001C15.95 15.8649 16.3731 16.3082 16.9976 16.3082ZM16.9976 26.6835C22.7091 26.6835 27.4233 21.9693 27.4233 16.2679C27.4233 13.2258 26.0735 10.5665 24.1898 8.79361C23.1422 7.76615 21.6615 9.14617 22.7393 10.2341C24.3409 11.745 25.3281 13.8805 25.3382 16.2679C25.3483 20.8914 21.6212 24.6084 16.9976 24.6084C12.3741 24.6084 8.67724 20.8914 8.67724 16.2679C8.67724 13.8705 9.66441 11.735 11.266 10.224C12.3439 9.12602 10.8631 7.75607 9.8155 8.78353C7.92176 10.5564 6.58203 13.2258 6.58203 16.2679C6.58203 21.9693 11.2963 26.6835 16.9976 26.6835Z" fill="white"/>
</svg>
