<svg width="28" height="28" viewBox="0 0 28 28" fill="none" xmlns="http://www.w3.org/2000/svg">
<path d="M13.9902 22.7422C18.9736 22.7422 23.0869 18.6289 23.0869 13.6543C23.0869 8.67969 18.9648 4.56641 13.9814 4.56641C9.00684 4.56641 4.90234 8.67969 4.90234 13.6543C4.90234 18.6289 9.01562 22.7422 13.9902 22.7422ZM13.9814 15.0869C12.2588 15.0781 10.9229 13.6367 10.9229 11.7295C10.9053 9.93652 12.2676 8.44238 13.9814 8.44238C15.6953 8.44238 17.04 9.93652 17.04 11.7295C17.04 13.6367 15.7041 15.1045 13.9814 15.0869ZM13.9814 21.2393C12.0127 21.2393 9.9209 20.4219 8.59375 18.998C9.60449 17.4863 11.6084 16.6074 13.9814 16.6074C16.3281 16.6074 18.3496 17.4688 19.3691 18.998C18.042 20.4219 15.9502 21.2393 13.9814 21.2393Z" fill="#1C1C1E"/>
</svg>
