<svg width="41" height="41" viewBox="0 0 41 41" fill="none" xmlns="http://www.w3.org/2000/svg">
<path d="M29.6037 31.3006V29.0783H22.9371V22.4117H29.6037V26.8561H34.0482V31.3006H31.826V35.745H27.3815V40.1895H22.9371V33.5228H27.3815V31.3006H29.6037ZM40.7148 40.1895H31.826V35.745H36.2704V31.3006H40.7148V40.1895ZM0.714844 0.189453H18.4926V17.9672H0.714844V0.189453ZM5.15929 4.6339V13.5228H14.0482V4.6339H5.15929ZM22.9371 0.189453H40.7148V17.9672H22.9371V0.189453ZM27.3815 4.6339V13.5228H36.2704V4.6339H27.3815ZM0.714844 22.4117H18.4926V40.1895H0.714844V22.4117ZM5.15929 26.8561V35.745H14.0482V26.8561H5.15929ZM34.0482 22.4117H40.7148V26.8561H34.0482V22.4117ZM7.38151 6.85612H11.826V11.3006H7.38151V6.85612ZM7.38151 29.0783H11.826V33.5228H7.38151V29.0783ZM29.6037 6.85612H34.0482V11.3006H29.6037V6.85612Z" fill="white"/>
</svg>
