<svg width="36" height="36" viewBox="0 0 36 36" fill="none" xmlns="http://www.w3.org/2000/svg">
<path d="M25.7869 22.9832C26.1824 23.4556 26.8745 23.4776 27.3799 22.9283C29.2146 20.9617 30.2253 18.2701 30.2253 15.3697C30.2253 12.4693 29.1926 9.7447 27.3799 7.8111C26.8745 7.26179 26.1824 7.28376 25.7869 7.75617C25.4023 8.19563 25.5232 8.75593 25.9517 9.23933C27.4019 10.8433 28.2039 12.9967 28.2039 15.3697C28.2039 17.7318 27.4019 19.8851 25.9517 21.4891C25.5232 21.9725 25.4023 22.5328 25.7869 22.9832ZM10.5928 22.9832C10.9773 22.5328 10.8455 21.9725 10.428 21.4891C8.97778 19.8851 8.17578 17.7318 8.17578 15.3697C8.17578 12.9967 8.97778 10.8433 10.428 9.23933C10.8455 8.75593 10.9773 8.19563 10.5928 7.75617C10.1973 7.28376 9.50513 7.26179 8.99976 7.8111C7.18701 9.7447 6.1543 12.4693 6.1543 15.3697C6.1543 18.2701 7.16504 20.9617 8.99976 22.9283C9.50513 23.4776 10.1973 23.4556 10.5928 22.9832ZM22.4141 19.7862C22.8096 20.2586 23.5566 20.2696 24.0181 19.7203C24.9739 18.5667 25.5122 17.0176 25.5122 15.3697C25.5122 13.7108 24.9739 12.1617 24.0181 11.0191C23.5566 10.4588 22.8096 10.4808 22.4141 10.9422C22.0405 11.3926 22.1943 11.92 22.5569 12.4254C23.1392 13.2164 23.4907 14.2711 23.4907 15.3697C23.4907 16.4573 23.1611 17.534 22.5569 18.303C22.1943 18.8084 22.0405 19.3467 22.4141 19.7862ZM13.9656 19.7862C14.3281 19.3467 14.1853 18.8084 13.8228 18.303C13.2185 17.534 12.8779 16.4573 12.8779 15.3697C12.8779 14.2711 13.2405 13.2164 13.8228 12.4254C14.1853 11.92 14.3281 11.3926 13.9656 10.9422C13.5701 10.4808 12.823 10.4588 12.3616 11.0191C11.4058 12.1617 10.8674 13.7108 10.8674 15.3697C10.8674 17.0176 11.4058 18.5667 12.3616 19.7203C12.823 20.2696 13.5701 20.2586 13.9656 19.7862ZM18.1843 28.0919C18.7776 28.0919 19.1511 27.6634 19.1511 27.0152V17.2703C19.8433 16.9188 20.3267 16.2047 20.3267 15.3697C20.3267 14.1722 19.3818 13.2274 18.1843 13.2274C16.9978 13.2274 16.053 14.1722 16.053 15.3697C16.053 16.2047 16.5254 16.9298 17.2285 17.2703V27.0152C17.2285 27.6524 17.624 28.0919 18.1843 28.0919Z" fill="#1C1C1E"/>
</svg>
