<svg width="29" height="29" viewBox="0 0 29 29" fill="none" xmlns="http://www.w3.org/2000/svg">
<path d="M20.71 20.9805H20.9824C22.6611 20.9805 23.7773 20.0576 23.7773 18.0889V9.80078H18.8379C17.9502 9.80078 17.3965 9.24707 17.3965 8.35938V3.12109H12.668C10.8311 3.12109 9.82031 4.12305 9.82031 5.94238V6.35547H11.1738C12.5537 6.35547 13.5557 6.68066 14.5312 7.64746L19.5234 12.6396C20.4727 13.5889 20.71 14.6787 20.71 15.9883V20.9805ZM19.084 8.61426H23.6367C23.5928 8.31543 23.373 8.04297 23.0391 7.7002L19.4883 4.06152C19.1631 3.72754 18.8818 3.50781 18.583 3.47266L18.5918 8.11328C18.5918 8.46484 18.7324 8.61426 19.084 8.61426ZM8.32617 25.498H16.5527C18.4336 25.498 19.418 24.5049 19.418 22.6064V15.7949H13.1514C12.0352 15.7949 11.4902 15.2412 11.4902 14.125V7.63867H8.32617C6.44531 7.63867 5.46094 8.64062 5.46094 10.5391V22.6064C5.46094 24.5137 6.44531 25.498 8.32617 25.498ZM13.2568 14.5029H19.2598C19.1543 14.125 18.9258 13.7646 18.5303 13.3604L13.8984 8.6582C13.4941 8.25391 13.1514 7.98145 12.7734 7.86719V14.0195C12.7734 14.3359 12.9404 14.5029 13.2568 14.5029Z" fill="#39C270"/>
</svg>
