<svg width="29" height="29" viewBox="0 0 29 29" fill="none" xmlns="http://www.w3.org/2000/svg">
<path d="M13.4854 23.6077H15.0938C15.6211 23.6077 16.0166 23.2913 16.1309 22.7727L16.5703 20.9182C16.8691 20.8127 17.1504 20.6985 17.4141 20.5754L19.04 21.5774C19.4707 21.8499 19.9893 21.8059 20.3496 21.4456L21.4834 20.3118C21.8438 19.9514 21.8965 19.4153 21.6064 18.9758L20.6133 17.3674C20.7363 17.1038 20.8506 16.8225 20.9385 16.55L22.8105 16.1106C23.3291 15.9963 23.6367 15.6008 23.6367 15.0735V13.4915C23.6367 12.9729 23.3291 12.5686 22.8105 12.4543L20.9561 12.0061C20.8594 11.6985 20.7363 11.426 20.6309 11.1887L21.624 9.54517C21.9053 9.09692 21.8701 8.59595 21.4922 8.22681L20.3496 7.09302C19.9805 6.75903 19.5146 6.69751 19.0664 6.9436L17.4141 7.96313C17.1592 7.84009 16.8779 7.72583 16.5791 7.62036L16.1309 5.7395C16.0166 5.22095 15.6211 4.90454 15.0938 4.90454H13.4854C12.9492 4.90454 12.5537 5.22095 12.4395 5.7395L12 7.61157C11.7012 7.70825 11.4111 7.82251 11.1475 7.95435L9.50391 6.9436C9.05566 6.69751 8.59863 6.75024 8.2207 7.09302L7.07812 8.22681C6.7002 8.59595 6.66504 9.09692 6.94629 9.54517L7.93945 11.1887C7.83398 11.426 7.71973 11.6985 7.61426 12.0061L5.75977 12.4543C5.24121 12.5686 4.93359 12.9729 4.93359 13.4915V15.0735C4.93359 15.6008 5.24121 15.9963 5.75977 16.1106L7.63184 16.55C7.71973 16.8225 7.83398 17.1038 7.95703 17.3674L6.96387 18.9758C6.67383 19.4153 6.72656 19.9514 7.0957 20.3118L8.2207 21.4456C8.58105 21.8059 9.09961 21.8499 9.53906 21.5774L11.1562 20.5754C11.4199 20.6985 11.7012 20.8127 12 20.9182L12.4395 22.7727C12.5537 23.2913 12.9492 23.6077 13.4854 23.6077ZM14.2852 17.3323C12.5977 17.3323 11.2178 15.9436 11.2178 14.2473C11.2178 12.5686 12.5977 11.1887 14.2852 11.1887C15.9814 11.1887 17.3613 12.5686 17.3613 14.2473C17.3613 15.9436 15.9814 17.3323 14.2852 17.3323Z" fill="#1C1C1E"/>
</svg>
