<svg width="38" height="38" viewBox="0 0 38 38" fill="none" xmlns="http://www.w3.org/2000/svg">
<rect width="38" height="38" rx="19" fill="#EFE6FE"/>
<path d="M9.8418 16.0967H12.1445V14.8838C12.1445 14.0312 12.6104 13.5742 13.4717 13.5742H16.7236C17.585 13.5742 18.0508 14.0312 18.0508 14.8838V16.0967H20.0283V14.8838C20.0283 14.0312 20.4941 13.5742 21.3906 13.5742H24.4756C25.3809 13.5742 25.8467 14.0312 25.8467 14.8838V16.0967H28.1494V13.5742C28.1494 11.9043 27.2529 11.0342 25.6182 11.0342H12.373C10.7383 11.0342 9.8418 11.9043 9.8418 13.5742V16.0967ZM7.6709 25.4922C7.6709 25.9668 7.97852 26.2656 8.44434 26.2656H8.98926C9.45508 26.2656 9.7627 25.9668 9.7627 25.4922V24.2266C9.86816 24.2529 10.1758 24.2705 10.3955 24.2705H27.5957C27.8154 24.2705 28.123 24.2529 28.2285 24.2266V25.4922C28.2285 25.9668 28.5361 26.2656 29.002 26.2656H29.5469C30.0127 26.2656 30.3203 25.9668 30.3203 25.4922V20.1484C30.3203 18.3994 29.3535 17.4414 27.5957 17.4414H10.3955C8.6377 17.4414 7.6709 18.3994 7.6709 20.1484V25.4922Z" fill="#835EEE"/>
</svg>
