<svg width="51" height="30" viewBox="0 0 51 30" fill="none" xmlns="http://www.w3.org/2000/svg">
<circle cx="37.2857" cy="6.64314" r="5.78571" fill="#835EEE"/>
<path d="M36.625 4.66908C36.625 4.30603 36.9193 4.01172 37.2824 4.01172C37.6454 4.01172 37.9397 4.30603 37.9397 4.66908V8.61322C37.9397 8.97627 37.6454 9.27058 37.2824 9.27058C36.9193 9.27058 36.625 8.97627 36.625 8.61322V4.66908Z" fill="white"/>
<path d="M35.3097 7.29883C34.9467 7.29883 34.6523 7.00452 34.6523 6.64147C34.6523 6.27842 34.9467 5.98411 35.3097 5.98411H39.2538C39.6169 5.98411 39.9112 6.27842 39.9112 6.64147C39.9112 7.00452 39.6169 7.29883 39.2538 7.29883H35.3097Z" fill="white"/>
<path d="M17.417 18.3208H19.4503V17.2856C19.4503 16.558 19.8617 16.1679 20.6222 16.1679H23.4938C24.2544 16.1679 24.6657 16.558 24.6657 17.2856V18.3208H26.4119V17.2856C26.4119 16.558 26.8232 16.1679 27.6149 16.1679H30.339C31.1383 16.1679 31.5497 16.558 31.5497 17.2856V18.3208H33.583V16.1679C33.583 14.7426 32.7914 14 31.3479 14H19.6521C18.2086 14 17.417 14.7426 17.417 16.1679V18.3208ZM15.5 26.3399C15.5 26.745 15.7716 27 16.183 27H16.6641C17.0755 27 17.3471 26.745 17.3471 26.3399V25.2597C17.4402 25.2822 17.7119 25.2972 17.9059 25.2972H33.0941C33.2881 25.2972 33.5598 25.2822 33.6529 25.2597V26.3399C33.6529 26.745 33.9245 27 34.3359 27H34.817C35.2284 27 35.5 26.745 35.5 26.3399V21.779C35.5 20.2862 34.6463 19.4686 33.0941 19.4686H17.9059C16.3537 19.4686 15.5 20.2862 15.5 21.779V26.3399Z" fill="url(#paint0_linear_926_16234)"/>
<defs>
<linearGradient id="paint0_linear_926_16234" x1="25.5" y1="14" x2="25.5" y2="27" gradientUnits="userSpaceOnUse">
<stop stop-color="#835EEE"/>
<stop offset="1" stop-color="#D1C2FE"/>
</linearGradient>
</defs>
</svg>
