<svg width="28" height="28" viewBox="0 0 28 28" fill="none" xmlns="http://www.w3.org/2000/svg">
<path d="M13.9999 25C8.18254 25 3.46655 20.3957 3.46655 14.7159C3.46655 9.03618 8.18254 4.43183 13.9999 4.43183C19.8175 4.43183 24.5334 9.03618 24.5334 14.7159C24.5334 20.3957 19.8175 25 13.9999 25ZM2.84741 7.86732C2.38272 7.41363 2.38272 6.66631 2.84741 6.21262L5.33017 3.78864C5.77938 3.35006 6.49649 3.35006 6.9457 3.78864V3.78864C7.41039 4.24233 7.41039 4.98964 6.9457 5.44333L4.46294 7.86732C4.01373 8.3059 3.29663 8.3059 2.84741 7.86732V7.86732ZM21.0543 3.78861C21.5036 3.35005 22.2207 3.35006 22.6699 3.78864L25.1526 6.21262C25.6173 6.66632 25.6173 7.41363 25.1526 7.86732V7.86732C24.7034 8.3059 23.9863 8.30591 23.5371 7.86733L21.0543 5.44338C20.5896 4.98967 20.5896 4.24231 21.0543 3.78861V3.78861Z" fill="#111111"/>
<path d="M11.626 11.5322H16.3744L11.626 17.4678H16.3744" stroke="white" stroke-width="1.6" stroke-linecap="round" stroke-linejoin="round"/>
</svg>
