<svg width="24" height="24" viewBox="0 0 24 24" fill="none" xmlns="http://www.w3.org/2000/svg">
<path d="M12 21C7.6369 21 4.09991 17.4421 4.09991 13.0532C4.09991 8.66432 7.6369 5.10642 12 5.10642C16.3631 5.10642 19.9 8.66432 19.9 13.0532C19.9 17.4421 16.3631 21 12 21ZM3.61703 7.74248C3.27567 7.39909 3.27567 6.8445 3.61703 6.50111L5.4791 4.62804C5.82332 4.28178 6.38358 4.28178 6.7278 4.62804C7.06916 4.97142 7.06916 5.52601 6.7278 5.86939L4.86574 7.74248C4.52151 8.08873 3.96126 8.08873 3.61703 7.74248ZM17.2722 4.62802C17.6165 4.28177 18.1767 4.28178 18.5209 4.62804L20.383 6.50112C20.7243 6.8445 20.7243 7.39909 20.383 7.74247C20.0388 8.08873 19.4785 8.08874 19.1343 7.74248L17.2722 5.86943C16.9308 5.52603 16.9308 4.97141 17.2722 4.62802Z" fill="#8E8E93"/>
<path d="M10 11H14L10 15H14" stroke="white" stroke-width="1.2" stroke-linecap="round" stroke-linejoin="round"/>
</svg>
