<svg width="361" height="383" viewBox="0 0 361 383" fill="none" xmlns="http://www.w3.org/2000/svg">
<rect width="361" height="383" rx="15" fill="#EDF5FB"/>
<g clip-path="url(#clip0_423_429)">
<path d="M134.063 164.378H134.168V164.273V154.885C134.168 154.227 133.635 153.694 132.977 153.694H92.7855C92.1276 153.694 91.5942 154.227 91.5942 154.885V164.273V164.378H91.6992H134.063Z" fill="url(#paint0_radial_423_429)" stroke="black" stroke-width="0.21"/>
<path d="M70.0828 261.372V192.56C70.0785 190.258 70.0828 187.96 70.0956 185.658V185.312C70.1084 185.187 70.1127 185.063 70.117 184.939C70.147 184.426 70.194 183.921 70.2582 183.412C70.3224 182.907 70.4037 182.402 70.5021 181.901C70.8786 180.01 71.4734 178.247 72.3249 176.519C72.7955 175.556 73.3347 174.64 73.9423 173.754C75.3329 171.735 76.946 170.058 78.9142 168.594C80.2749 167.584 81.6998 166.754 83.253 166.078C84.9944 165.321 86.7659 164.807 88.6443 164.517C88.978 164.474 89.3075 164.431 89.6412 164.384C89.975 164.354 90.313 164.328 90.6468 164.298C90.8136 164.29 90.9805 164.281 91.1474 164.273C91.2971 164.273 91.4426 164.273 91.5924 164.268C100.437 164.256 109.277 164.251 118.121 164.256C126.918 164.256 135.715 164.256 144.517 164.256C481.474 164.256 818.426 164.256 1155.38 164.256H1193.72C1196.63 164.256 1199.55 164.256 1202.47 164.26C1202.6 164.26 1202.74 164.26 1202.87 164.26C1203.02 164.264 1203.17 164.273 1203.31 164.277C1204.29 164.324 1205.24 164.435 1206.2 164.611C1207.16 164.786 1208.09 165.021 1209.01 165.321C1210.1 165.676 1211.16 166.113 1212.18 166.635C1212.7 166.896 1213.2 167.178 1213.69 167.477C1214.12 167.743 1214.55 168.021 1214.96 168.316C1215.74 168.872 1216.48 169.471 1217.18 170.126C1217.78 170.687 1218.35 171.281 1218.88 171.906C1219.67 172.826 1220.37 173.793 1221 174.833C1221.62 175.868 1222.15 176.942 1222.6 178.068C1222.83 178.628 1223.03 179.197 1223.2 179.775C1223.3 180.126 1223.39 180.476 1223.49 180.827C1223.56 181.105 1223.62 181.384 1223.69 181.662C1223.8 182.218 1223.89 182.774 1223.97 183.335C1224.04 183.865 1224.09 184.396 1224.12 184.931C1224.13 185.213 1224.14 185.496 1224.15 185.782C1224.15 186.433 1224.15 187.079 1224.15 187.729C1224.15 235.844 1224.15 283.96 1224.15 332.075C1224.15 332.871 1224.15 333.662 1224.15 334.458C1224.17 335.28 1224.16 336.106 1224.14 336.927C1224.13 337.209 1224.12 337.492 1224.11 337.774C1224.09 338.044 1224.07 338.309 1224.05 338.579C1224.02 338.848 1223.99 339.118 1223.96 339.387C1223.92 339.665 1223.88 339.944 1223.84 340.222C1223.79 340.5 1223.74 340.778 1223.68 341.052C1223.62 341.33 1223.55 341.608 1223.49 341.886C1223.4 342.199 1223.32 342.507 1223.23 342.819C1223.06 343.401 1222.86 343.97 1222.65 344.535C1222.2 345.664 1221.68 346.738 1221.06 347.778C1220.44 348.818 1219.75 349.789 1218.97 350.713C1218.42 351.364 1217.84 351.98 1217.22 352.562C1216.51 353.221 1215.78 353.824 1214.99 354.385C1214.58 354.676 1214.17 354.954 1213.74 355.219C1213.25 355.523 1212.75 355.801 1212.24 356.066C1211.21 356.588 1210.16 357.029 1209.07 357.388C1207.19 358.009 1205.32 358.351 1203.34 358.445C1203.05 358.454 1202.76 358.462 1202.47 358.471C1201.41 358.479 1200.35 358.479 1199.29 358.479C847.697 358.479 496.103 358.479 144.513 358.479C135.716 358.479 126.918 358.479 118.117 358.479C109.272 358.484 100.428 358.479 91.5881 358.467C91.4383 358.467 91.2929 358.467 91.1431 358.462C90.9762 358.454 90.8093 358.445 90.6382 358.437C90.3002 358.407 89.9664 358.381 89.6284 358.351C89.2946 358.308 88.9652 358.265 88.6314 358.218C86.753 357.927 84.9859 357.414 83.2444 356.657C81.6912 355.981 80.2621 355.155 78.9057 354.145C76.9374 352.682 75.3243 351.004 73.9337 348.985C73.3261 348.103 72.7913 347.188 72.3163 346.225C71.4648 344.492 70.8658 342.725 70.4935 340.834C70.3951 340.333 70.3138 339.832 70.2497 339.327C70.1812 338.818 70.1341 338.313 70.1084 337.8C70.1042 337.676 70.0956 337.552 70.0913 337.428C70.0913 337.308 70.0871 337.188 70.0828 337.064C70.0828 311.832 70.0742 286.6 70.0742 261.367L70.0828 261.372Z" fill="white"/>
<path d="M115.348 160.369C115.151 160.382 114.988 160.339 114.817 160.236C114.663 160.138 114.556 160.022 114.484 159.855C114.484 160.014 114.484 160.172 114.484 160.33H113.371V156.903C113.748 156.847 114.12 156.796 114.492 156.74V158.263C114.561 158.062 114.672 157.934 114.856 157.827C115.014 157.729 115.164 157.686 115.352 157.69C115.6 157.682 115.806 157.733 116.015 157.861C116.221 157.977 116.366 158.122 116.482 158.328C116.606 158.55 116.662 158.764 116.653 159.021C116.653 159.278 116.602 159.496 116.482 159.723C116.371 159.937 116.225 160.082 116.015 160.202C115.801 160.33 115.596 160.386 115.352 160.377L115.348 160.369Z" stroke="black" stroke-width="0.213941" stroke-miterlimit="10"/>
<path d="M117.957 158.818C118.236 158.762 118.514 158.703 118.787 158.647C118.787 158.54 118.749 158.467 118.672 158.399C118.599 158.335 118.531 158.313 118.432 158.317C118.287 158.309 118.193 158.352 118.094 158.463C118 158.57 117.957 158.677 117.953 158.818H117.957Z" stroke="black" stroke-width="0.213941" stroke-miterlimit="10"/>
<path d="M109.738 160.328V157.722H110.842V158.372C110.894 158.15 110.992 157.992 111.172 157.85C111.339 157.722 111.501 157.671 111.711 157.684C111.754 157.992 111.801 158.3 111.843 158.608C111.762 158.603 111.677 158.599 111.595 158.591C110.971 158.591 110.859 158.907 110.859 159.185V160.328C110.487 160.328 110.115 160.328 109.743 160.328H109.738Z" stroke="black" stroke-width="0.213941" stroke-miterlimit="10"/>
<path d="M122.359 160.328V157.722H123.463V158.372C123.515 158.15 123.613 157.992 123.793 157.85C123.96 157.722 124.122 157.671 124.332 157.684C124.375 157.992 124.422 158.3 124.465 158.608C124.383 158.603 124.298 158.599 124.216 158.591C123.592 158.591 123.48 158.907 123.48 159.185V160.328C123.108 160.328 122.736 160.328 122.364 160.328H122.359Z" stroke="black" stroke-width="0.213941" stroke-miterlimit="10"/>
<path d="M119.992 160.328V157.722H121.096V158.372C121.147 158.15 121.246 157.992 121.426 157.85C121.592 157.722 121.755 157.671 121.965 157.684C122.008 157.992 122.055 158.3 122.097 158.608C122.016 158.603 121.93 158.599 121.849 158.591C121.224 158.591 121.113 158.907 121.113 159.185V160.328C120.741 160.328 120.369 160.328 119.996 160.328H119.992Z" stroke="black" stroke-width="0.213941" stroke-miterlimit="10"/>
<path d="M1030.77 354.264C1026.73 354.264 1022.69 354.264 1018.64 354.264C1010.81 354.264 1002.97 354.264 995.135 354.264C987.296 354.264 979.461 354.264 971.623 354.264C960.878 354.264 950.134 354.277 939.39 354.281C928.646 354.286 917.902 354.286 907.154 354.286C896.598 354.286 886.042 354.286 875.49 354.286C864.939 354.286 854.387 354.286 843.831 354.286C799.713 354.286 755.581 354.286 711.458 354.286C617.876 354.286 524.298 354.286 430.716 354.286C335.32 354.286 239.924 354.286 144.532 354.286C135.731 354.286 126.925 354.286 118.119 354.286C109.313 354.286 100.503 354.29 91.7229 354.277C91.5817 354.277 91.4448 354.277 91.3079 354.277C91.171 354.277 91.034 354.269 90.8971 354.26C90.6275 354.243 90.3537 354.217 90.0841 354.187C89.8146 354.157 89.545 354.123 89.2797 354.08C87.7864 353.849 86.3188 353.421 84.9282 352.818C83.6873 352.279 82.5064 351.594 81.4195 350.79C79.862 349.635 78.4971 348.218 77.3974 346.618C76.9097 345.908 76.4732 345.159 76.0924 344.385C75.4164 343.003 74.9157 341.531 74.6162 340.029C74.5349 339.627 74.4707 339.22 74.4194 338.809C74.368 338.399 74.3295 337.983 74.3081 337.577C74.3039 337.479 74.2996 337.376 74.2953 337.273C74.2953 337.171 74.291 337.072 74.2867 336.969C74.2696 335.861 74.2739 334.719 74.2739 333.585C74.2739 332.451 74.2739 331.321 74.2739 330.192C74.2739 327.933 74.2739 325.669 74.2739 323.406C74.2739 318.237 74.2739 313.064 74.2739 307.895C74.2739 302.726 74.2739 297.562 74.2739 292.393C74.2739 287.224 74.2739 282.055 74.2739 276.886V261.38C74.2739 258.795 74.2739 256.211 74.2739 253.627C74.2739 245.873 74.2739 238.12 74.2739 230.363C74.2739 220.025 74.2739 209.688 74.2739 199.354C74.2739 197.091 74.2739 194.832 74.2739 192.564C74.2739 190.296 74.2696 188.028 74.2867 185.79C74.2867 185.688 74.2867 185.585 74.291 185.482C74.2953 185.38 74.2996 185.281 74.3039 185.178C74.3253 184.768 74.3638 184.357 74.4151 183.946C74.4665 183.535 74.5349 183.129 74.6119 182.722C74.9115 181.216 75.4078 179.753 76.0881 178.371C76.4689 177.596 76.9054 176.848 77.3932 176.133C78.4928 174.533 79.8578 173.121 81.411 171.961C82.4978 171.153 83.6787 170.472 84.9196 169.933C86.3102 169.33 87.7779 168.902 89.2754 168.671C89.545 168.628 89.8146 168.594 90.0841 168.564C90.3537 168.534 90.6233 168.508 90.8928 168.491C91.0298 168.483 91.1624 168.478 91.2993 168.474C91.4362 168.474 91.5774 168.474 91.7144 168.474C100.49 168.461 109.3 168.461 118.106 168.465C126.912 168.465 135.718 168.465 144.519 168.465C239.363 168.465 334.208 168.465 429.056 168.465C521.448 168.465 613.845 168.465 706.238 168.465C750.378 168.465 794.518 168.465 838.658 168.465C860.01 168.465 881.361 168.465 902.712 168.465C913.709 168.465 924.705 168.465 935.702 168.465C946.078 168.465 956.45 168.478 966.826 168.483C982.007 168.491 997.188 168.491 1012.37 168.487C1018.5 168.487 1024.62 168.487 1030.75 168.487C1034.82 168.487 1038.9 168.487 1042.98 168.487C1045.17 168.487 1047.37 168.487 1049.57 168.487C1061.83 168.487 1074.09 168.487 1086.35 168.487C1099.47 168.487 1112.58 168.491 1125.7 168.491C1135.59 168.491 1145.48 168.491 1155.36 168.491C1165.25 168.491 1175.14 168.491 1185.02 168.491C1187.91 168.491 1190.8 168.491 1193.7 168.487C1196.59 168.487 1199.49 168.478 1202.36 168.487C1202.49 168.487 1202.61 168.487 1202.73 168.487C1202.86 168.487 1202.98 168.491 1203.1 168.5C1203.89 168.534 1204.66 168.624 1205.43 168.765C1206.2 168.906 1206.96 169.099 1207.7 169.343C1208.58 169.629 1209.43 169.98 1210.26 170.399C1210.68 170.609 1211.08 170.836 1211.48 171.076C1211.83 171.289 1212.17 171.516 1212.5 171.752C1213.14 172.201 1213.73 172.689 1214.3 173.219C1214.79 173.673 1215.25 174.152 1215.68 174.661C1216.32 175.401 1216.89 176.193 1217.39 177.027C1217.89 177.862 1218.33 178.735 1218.69 179.637C1218.87 180.091 1219.02 180.549 1219.17 181.015C1219.25 181.298 1219.34 181.58 1219.4 181.862C1219.46 182.085 1219.51 182.307 1219.56 182.534C1219.65 182.983 1219.73 183.433 1219.79 183.886C1219.85 184.314 1219.88 184.742 1219.91 185.17C1219.92 185.397 1219.93 185.623 1219.93 185.855C1219.94 186.163 1219.94 186.475 1219.94 186.787C1219.94 187.1 1219.94 187.412 1219.94 187.729C1219.94 199.166 1219.95 210.607 1219.95 222.045C1219.95 233.482 1219.95 244.919 1219.95 256.357C1219.95 268.975 1219.95 281.593 1219.95 294.211C1219.95 306.829 1219.94 319.448 1219.94 332.057C1219.94 332.857 1219.94 333.658 1219.94 334.458C1219.94 335.262 1219.94 336.067 1219.93 336.854C1219.93 337.085 1219.92 337.316 1219.91 337.543C1219.89 337.761 1219.88 337.975 1219.86 338.193C1219.84 338.411 1219.81 338.63 1219.79 338.844C1219.76 339.07 1219.72 339.293 1219.68 339.52C1219.64 339.746 1219.6 339.969 1219.55 340.191C1219.51 340.414 1219.46 340.641 1219.4 340.863C1219.34 341.116 1219.27 341.368 1219.19 341.616C1219.05 342.083 1218.9 342.545 1218.72 343.003C1218.36 343.91 1217.94 344.787 1217.44 345.621C1216.94 346.46 1216.38 347.251 1215.75 347.996C1215.31 348.522 1214.83 349.019 1214.33 349.489C1213.76 350.02 1213.16 350.512 1212.53 350.961C1212.2 351.196 1211.87 351.423 1211.52 351.637C1211.12 351.881 1210.72 352.108 1210.31 352.318C1209.48 352.737 1208.63 353.096 1207.75 353.383C1206.25 353.875 1204.69 354.17 1203.11 354.239C1202.87 354.247 1202.62 354.256 1202.38 354.26C1201.36 354.277 1200.33 354.269 1199.29 354.26C1198.25 354.252 1197.22 354.256 1196.18 354.252C1194.11 354.252 1192.05 354.252 1189.97 354.252C1185.01 354.252 1180.04 354.252 1175.08 354.252C1170.11 354.252 1165.14 354.252 1160.18 354.252C1155.21 354.252 1150.25 354.252 1145.28 354.252C1140.31 354.252 1135.35 354.252 1130.38 354.252C1117.74 354.252 1105.09 354.252 1092.45 354.256C1086.13 354.256 1079.81 354.256 1073.48 354.256C1067.16 354.256 1060.84 354.256 1054.52 354.256C1048.54 354.256 1042.56 354.256 1036.58 354.256C1036.28 354.256 1035.97 354.256 1035.67 354.256C1035.67 292.329 1035.67 230.397 1035.67 168.47C1036.48 168.47 1037.28 168.47 1038.09 168.47V354.256" stroke="black" stroke-width="0.213941" stroke-miterlimit="10"/>
<path d="M118.699 159.644C118.943 159.644 119.157 159.602 119.375 159.499C119.418 159.721 119.46 159.944 119.503 160.166C119.366 160.235 119.225 160.286 119.075 160.316C118.9 160.355 118.729 160.372 118.549 160.368C118.232 160.376 117.946 160.32 117.65 160.196C117.407 160.094 117.24 159.948 117.103 159.726C116.966 159.503 116.91 159.289 116.919 159.028C116.91 158.528 117.197 158.066 117.65 157.852C117.89 157.732 118.121 157.676 118.386 157.685C118.733 157.659 119.071 157.796 119.302 158.053C119.563 158.378 119.653 158.686 119.619 159.097C119.092 159.161 118.57 159.229 118.044 159.294C118.164 159.537 118.425 159.674 118.695 159.64L118.699 159.644Z" stroke="black" stroke-width="0.213941" stroke-miterlimit="10"/>
<path d="M105.801 160.329V156.748H107.067C107.521 156.735 107.94 156.803 108.364 156.97C108.698 157.094 108.92 157.282 109.1 157.591C109.271 157.886 109.344 158.172 109.335 158.515C109.365 159.024 109.151 159.52 108.762 159.85C108.347 160.201 107.726 160.325 107.016 160.325C106.609 160.325 106.207 160.325 105.801 160.325V160.329Z" stroke="black" stroke-width="0.213941" stroke-miterlimit="10"/>
<path d="M107.315 159.421C107.584 159.442 107.764 159.369 107.944 159.168C108.106 158.963 108.17 158.766 108.149 158.505C108.166 158.261 108.106 158.081 107.952 157.893C107.764 157.709 107.576 157.641 107.315 157.662H106.977V159.425H107.315V159.421Z" stroke="black" stroke-width="0.213941" stroke-miterlimit="10"/>
<path d="M126.127 161.339C126.003 161.33 125.874 161.322 125.75 161.313C125.66 161.292 125.566 161.27 125.476 161.249C125.506 160.996 125.532 160.748 125.562 160.496C125.63 160.509 125.699 160.517 125.767 160.53C125.84 160.534 125.913 160.538 125.985 160.543C126.187 160.568 126.336 160.526 126.499 160.397C126.636 160.265 126.683 160.141 126.653 159.952V159.657C126.584 159.867 126.477 160.004 126.294 160.115C126.118 160.222 125.947 160.265 125.742 160.256C125.446 160.273 125.16 160.141 124.98 159.905C124.77 159.593 124.689 159.293 124.71 158.917V157.719H125.827V158.977C125.827 159.067 125.831 159.156 125.87 159.251C125.904 159.332 125.973 159.443 126.161 159.443C126.311 159.443 126.405 159.4 126.49 159.276C126.589 159.139 126.627 159.007 126.614 158.84V157.723H127.731V159.721C127.765 160.171 127.616 160.611 127.312 160.945C126.982 161.227 126.559 161.369 126.127 161.339Z" stroke="black" stroke-width="0.213941" stroke-miterlimit="10"/>
<path d="M101.018 159.465C101.677 158.814 102.34 158.164 102.999 157.514C103.243 157.753 103.487 157.997 103.731 158.237C104.188 158.686 104.188 159.426 103.731 159.871C103.102 160.483 102.477 161.099 101.848 161.711C101.386 162.165 100.646 162.165 100.179 161.711C99.5502 161.099 98.9255 160.483 98.2965 159.871C97.8387 159.422 97.8387 158.686 98.2965 158.237C98.5404 157.997 98.7843 157.753 99.0282 157.514C99.931 158.404 100.838 159.294 101.741 160.179C102.207 160.629 102.943 160.629 103.41 160.179" stroke="black" stroke-width="0.213941" stroke-miterlimit="10"/>
<path d="M70.0828 261.372V192.56C70.0785 190.258 70.0828 187.96 70.0956 185.658V185.312C70.1084 185.187 70.1127 185.063 70.117 184.939C70.147 184.426 70.194 183.921 70.2582 183.412C70.3224 182.907 70.4037 182.402 70.5021 181.901C70.8786 180.01 71.4734 178.247 72.3249 176.519C72.7955 175.556 73.3347 174.64 73.9423 173.754C75.3329 171.735 76.946 170.058 78.9142 168.594C80.2749 167.584 81.6998 166.754 83.253 166.078C84.9944 165.321 86.7659 164.807 88.6443 164.517C88.978 164.474 89.3075 164.431 89.6412 164.384C89.975 164.354 90.313 164.328 90.6468 164.298C90.8136 164.29 90.9805 164.281 91.1474 164.273C91.2971 164.273 91.4426 164.273 91.5924 164.268C100.437 164.256 109.277 164.251 118.121 164.256C126.918 164.256 135.715 164.256 144.517 164.256C481.474 164.256 818.426 164.256 1155.38 164.256H1193.72C1196.63 164.256 1199.55 164.256 1202.47 164.26C1202.6 164.26 1202.74 164.26 1202.87 164.26C1203.02 164.264 1203.17 164.273 1203.31 164.277C1204.29 164.324 1205.24 164.435 1206.2 164.611C1207.16 164.786 1208.09 165.021 1209.01 165.321C1210.1 165.676 1211.16 166.113 1212.18 166.635C1212.7 166.896 1213.2 167.178 1213.69 167.477C1214.12 167.743 1214.55 168.021 1214.96 168.316C1215.74 168.872 1216.48 169.471 1217.18 170.126C1217.78 170.687 1218.35 171.281 1218.88 171.906C1219.67 172.826 1220.37 173.793 1221 174.833C1221.62 175.868 1222.15 176.942 1222.6 178.068C1222.83 178.628 1223.03 179.197 1223.2 179.775C1223.3 180.126 1223.39 180.476 1223.49 180.827C1223.56 181.105 1223.62 181.384 1223.69 181.662C1223.8 182.218 1223.89 182.774 1223.97 183.335C1224.04 183.865 1224.09 184.396 1224.12 184.931C1224.13 185.213 1224.14 185.496 1224.15 185.782C1224.15 186.433 1224.15 187.079 1224.15 187.729C1224.15 235.844 1224.15 283.96 1224.15 332.075C1224.15 332.871 1224.15 333.662 1224.15 334.458C1224.17 335.28 1224.16 336.105 1224.14 336.927C1224.13 337.209 1224.12 337.492 1224.11 337.774C1224.09 338.044 1224.07 338.309 1224.05 338.579C1224.02 338.848 1223.99 339.118 1223.96 339.387C1223.92 339.665 1223.88 339.944 1223.84 340.222C1223.79 340.5 1223.74 340.778 1223.68 341.052C1223.62 341.33 1223.55 341.608 1223.49 341.886C1223.4 342.199 1223.32 342.507 1223.23 342.819C1223.06 343.401 1222.86 343.97 1222.65 344.535C1222.2 345.664 1221.68 346.738 1221.06 347.778C1220.44 348.818 1219.75 349.789 1218.97 350.713C1218.42 351.364 1217.84 351.98 1217.22 352.562C1216.51 353.221 1215.78 353.824 1214.99 354.385C1214.58 354.676 1214.17 354.954 1213.74 355.219C1213.25 355.523 1212.75 355.801 1212.24 356.066C1211.21 356.588 1210.16 357.029 1209.07 357.388C1207.19 358.009 1205.32 358.351 1203.34 358.445C1203.05 358.454 1202.76 358.462 1202.47 358.471C1201.41 358.479 1200.35 358.479 1199.29 358.479C847.697 358.479 496.103 358.479 144.513 358.479C135.715 358.479 126.918 358.479 118.117 358.479C109.272 358.484 100.428 358.479 91.5881 358.467C91.4383 358.467 91.2929 358.467 91.1431 358.462C90.9762 358.454 90.8093 358.445 90.6382 358.437C90.3002 358.407 89.9664 358.381 89.6284 358.351C89.2946 358.308 88.9652 358.265 88.6314 358.218C86.753 357.927 84.9859 357.414 83.2444 356.657C81.6912 355.981 80.2621 355.155 78.9057 354.145C76.9374 352.682 75.3243 351.004 73.9337 348.985C73.3261 348.103 72.7913 347.188 72.3163 346.225C71.4648 344.492 70.8658 342.725 70.4935 340.834C70.3951 340.333 70.3138 339.832 70.2497 339.327C70.1812 338.818 70.1341 338.313 70.1084 337.8C70.1042 337.676 70.0956 337.552 70.0913 337.428C70.0913 337.308 70.0871 337.188 70.0828 337.064C70.0828 311.832 70.0742 286.6 70.0742 261.367L70.0828 261.372Z" stroke="black" stroke-width="0.213941" stroke-miterlimit="10"/>
<path d="M115.008 159.551C115.166 159.551 115.277 159.513 115.389 159.402C115.504 159.295 115.547 159.188 115.543 159.034C115.547 158.875 115.504 158.768 115.389 158.666C115.277 158.554 115.166 158.512 115.008 158.516C114.85 158.503 114.747 158.546 114.636 158.661C114.516 158.764 114.473 158.871 114.482 159.029C114.473 159.188 114.52 159.299 114.636 159.406C114.743 159.517 114.85 159.564 115.008 159.56V159.551Z" stroke="black" stroke-width="0.213941" stroke-miterlimit="10"/>
<path d="M112.35 160.359C112.166 160.376 112.038 160.333 111.905 160.205C111.789 160.098 111.747 159.987 111.751 159.829C111.742 159.666 111.789 159.559 111.914 159.452C112.046 159.332 112.17 159.289 112.35 159.302C112.53 159.285 112.654 159.332 112.782 159.456C112.902 159.559 112.949 159.666 112.945 159.824C112.958 159.987 112.915 160.098 112.795 160.209C112.662 160.329 112.534 160.372 112.354 160.355" stroke="black" stroke-width="0.213941" stroke-miterlimit="10"/>
<path d="M102.123 157.108C102.123 156.847 102.054 156.642 101.887 156.436C101.669 156.167 101.344 156.021 101.001 156.025C100.651 156.025 100.347 156.175 100.133 156.449C99.9703 156.654 99.9061 156.86 99.9104 157.121C99.9104 157.382 99.9874 157.583 100.15 157.788C100.372 158.062 100.676 158.203 101.031 158.199C101.387 158.199 101.678 158.049 101.891 157.776C102.054 157.57 102.123 157.369 102.123 157.108Z" stroke="black" stroke-width="0.213941" stroke-miterlimit="10"/>
<line x1="124.535" y1="187.859" x2="124.535" y2="335.09" stroke="black" stroke-width="0.5" stroke-linecap="square" stroke-dasharray="2.26 2.26"/>
<line x1="174.535" y1="187.859" x2="174.535" y2="335.09" stroke="black" stroke-width="0.5" stroke-linecap="square" stroke-dasharray="2.26 2.26"/>
<line x1="224.535" y1="187.859" x2="224.535" y2="335.09" stroke="black" stroke-width="0.5" stroke-linecap="square" stroke-dasharray="2.26 2.26"/>
<line x1="274.535" y1="187.859" x2="274.535" y2="335.09" stroke="black" stroke-width="0.5" stroke-linecap="square" stroke-dasharray="2.26 2.26"/>
<line x1="324.535" y1="187.859" x2="324.535" y2="335.09" stroke="black" stroke-width="0.5" stroke-linecap="square" stroke-dasharray="2.26 2.26"/>
</g>
<g filter="url(#filter0_d_423_429)">
<g filter="url(#filter1_d_423_429)">
<circle cx="180.5" cy="50" r="14" fill="url(#paint1_linear_423_429)"/>
</g>
<g filter="url(#filter2_f_423_429)">
<ellipse cx="180.499" cy="48.6795" rx="13.425" ry="12.6795" fill="#016EED"/>
</g>
</g>
<path d="M177.75 52.5V44.9167L184.75 43.75V51.3333" stroke="white" stroke-width="1.16667" stroke-linecap="round" stroke-linejoin="round"/>
<path d="M176 54.25C176.966 54.25 177.75 53.4665 177.75 52.5C177.75 51.5335 176.966 50.75 176 50.75C175.034 50.75 174.25 51.5335 174.25 52.5C174.25 53.4665 175.034 54.25 176 54.25Z" fill="white" stroke="white" stroke-width="1.16667" stroke-linecap="round" stroke-linejoin="round"/>
<path d="M183 53.0834C183.966 53.0834 184.75 52.2999 184.75 51.3334C184.75 50.3669 183.966 49.5834 183 49.5834C182.034 49.5834 181.25 50.3669 181.25 51.3334C181.25 52.2999 182.034 53.0834 183 53.0834Z" fill="white" stroke="white" stroke-width="1.16667" stroke-linecap="round" stroke-linejoin="round"/>
<path d="M134.776 86.2812C132.158 86.2812 130.494 84.9922 130.354 83.0469L130.346 82.9375H132.299L132.307 83.0156C132.401 83.9609 133.408 84.5859 134.838 84.5859C136.197 84.5859 137.151 83.9141 137.151 82.9453V82.9375C137.151 82.125 136.565 81.6328 135.112 81.3203L133.901 81.0703C131.596 80.5859 130.596 79.5078 130.596 77.8281V77.8203C130.596 75.8047 132.33 74.4453 134.768 74.4453C137.268 74.4453 138.822 75.8125 138.963 77.625L138.971 77.7266H137.041L137.026 77.6328C136.885 76.7578 136.049 76.1328 134.76 76.1406C133.51 76.1406 132.619 76.7266 132.619 77.6875V77.6953C132.619 78.4922 133.19 78.9922 134.596 79.2891L135.807 79.5469C138.182 80.0469 139.174 81 139.174 82.7031V82.7109C139.174 84.9062 137.479 86.2812 134.776 86.2812ZM144.604 86.1719C142.042 86.1719 140.495 84.5 140.495 81.7344V81.7188C140.495 78.9766 142.065 77.2969 144.604 77.2969C147.151 77.2969 148.713 78.9688 148.713 81.7188V81.7344C148.713 84.5 147.159 86.1719 144.604 86.1719ZM144.604 84.5938C145.956 84.5938 146.721 83.5391 146.721 81.7422V81.7266C146.721 79.9297 145.948 78.8672 144.604 78.8672C143.252 78.8672 142.479 79.9297 142.479 81.7266V81.7422C142.479 83.5391 143.252 84.5938 144.604 84.5938ZM153.175 86.1719C151.253 86.1719 150.268 85.0156 150.268 82.9844V77.4609H152.214V82.5391C152.214 83.8594 152.706 84.5312 153.878 84.5312C155.136 84.5312 155.807 83.7188 155.807 82.4375V77.4609H157.753V86H155.807V84.7031H155.675C155.276 85.6172 154.409 86.1719 153.175 86.1719ZM159.808 86V77.4609H161.753V78.7656H161.886C162.292 77.8516 163.112 77.2969 164.347 77.2969C166.253 77.2969 167.292 78.4453 167.292 80.4766V86H165.347V80.9297C165.347 79.6016 164.808 78.9297 163.628 78.9297C162.472 78.9297 161.753 79.7422 161.753 81.0234V86H159.808ZM172.347 86.1406C170.207 86.1406 168.847 84.4453 168.847 81.7422V81.7266C168.847 79.0078 170.183 77.3203 172.347 77.3203C173.519 77.3203 174.496 77.8984 174.941 78.8203H175.074V74.1562H177.027V86H175.074V84.6641H174.941C174.472 85.5938 173.55 86.1406 172.347 86.1406ZM172.957 84.5C174.285 84.5 175.105 83.4531 175.105 81.7422V81.7266C175.105 80.0156 174.277 78.9609 172.957 78.9609C171.636 78.9609 170.824 80.0078 170.824 81.7266V81.7422C170.824 83.4609 171.628 84.5 172.957 84.5ZM178.957 86V84.8125L183.512 79.1016V78.9688H178.996V77.4609H185.808V78.7578L181.418 84.3594V84.5H185.879V86H178.957ZM194.911 86.1719C192.739 86.1719 191.426 85.1719 191.262 83.7266V83.7109H193.192L193.2 83.7266C193.403 84.3203 193.973 84.7344 194.942 84.7344C195.911 84.7344 196.582 84.2969 196.582 83.6562V83.6406C196.582 83.1406 196.207 82.8125 195.27 82.6016L193.887 82.2891C192.262 81.9297 191.489 81.1641 191.489 79.9062V79.8984C191.489 78.3594 192.895 77.2969 194.911 77.2969C196.989 77.2969 198.231 78.3281 198.356 79.7109V79.7266H196.528L196.52 79.7031C196.379 79.1641 195.817 78.7266 194.903 78.7266C194.036 78.7266 193.411 79.1484 193.411 79.7891V79.7969C193.411 80.2969 193.77 80.6016 194.692 80.8125L196.075 81.1172C197.747 81.4922 198.536 82.2031 198.536 83.4453V83.4609C198.536 85.0859 197.012 86.1719 194.911 86.1719ZM200.255 86V74.1562H202.2V86H200.255ZM207.997 86.1719C205.458 86.1719 203.919 84.4688 203.919 81.75V81.7422C203.919 79.0547 205.474 77.2969 207.903 77.2969C210.333 77.2969 211.833 79 211.833 81.5781V82.2188H205.864C205.888 83.75 206.716 84.6406 208.036 84.6406C209.091 84.6406 209.693 84.1094 209.88 83.7188L209.903 83.6641H211.755L211.732 83.7344C211.458 84.8359 210.318 86.1719 207.997 86.1719ZM207.927 78.8203C206.841 78.8203 206.028 79.5547 205.88 80.9141H209.935C209.802 79.5156 209.013 78.8203 207.927 78.8203ZM217.115 86.1719C214.576 86.1719 213.037 84.4688 213.037 81.75V81.7422C213.037 79.0547 214.591 77.2969 217.021 77.2969C219.451 77.2969 220.951 79 220.951 81.5781V82.2188H214.982C215.005 83.75 215.833 84.6406 217.154 84.6406C218.208 84.6406 218.81 84.1094 218.997 83.7188L219.021 83.6641H220.872L220.849 83.7344C220.576 84.8359 219.435 86.1719 217.115 86.1719ZM217.044 78.8203C215.958 78.8203 215.146 79.5547 214.997 80.9141H219.052C218.919 79.5156 218.13 78.8203 217.044 78.8203ZM222.576 88.8359V77.4609H224.521V78.7969H224.654C225.123 77.8672 226.053 77.3203 227.248 77.3203C229.388 77.3203 230.756 79.0234 230.756 81.7266V81.7422C230.756 84.4609 229.412 86.1406 227.248 86.1406C226.076 86.1406 225.099 85.5625 224.654 84.6406H224.521V88.8359H222.576ZM226.638 84.5C227.967 84.5 228.771 83.4531 228.771 81.7422V81.7266C228.771 80.0078 227.967 78.9609 226.638 78.9609C225.318 78.9609 224.498 80.0078 224.498 81.7188V81.7344C224.498 83.4453 225.318 84.5 226.638 84.5Z" fill="#111111"/>
<defs>
<filter id="filter0_d_423_429" x="160.279" y="31.4379" width="40.4421" height="40.4421" filterUnits="userSpaceOnUse" color-interpolation-filters="sRGB">
<feFlood flood-opacity="0" result="BackgroundImageFix"/>
<feColorMatrix in="SourceAlpha" type="matrix" values="0 0 0 0 0 0 0 0 0 0 0 0 0 0 0 0 0 0 127 0" result="hardAlpha"/>
<feOffset dy="1.65895"/>
<feGaussianBlur stdDeviation="3.11053"/>
<feComposite in2="hardAlpha" operator="out"/>
<feColorMatrix type="matrix" values="0 0 0 0 0.00392157 0 0 0 0 0.431373 0 0 0 0 0.929412 0 0 0 0.2 0"/>
<feBlend mode="normal" in2="BackgroundImageFix" result="effect1_dropShadow_423_429"/>
<feBlend mode="normal" in="SourceGraphic" in2="effect1_dropShadow_423_429" result="shape"/>
</filter>
<filter id="filter1_d_423_429" x="154.058" y="23.5579" width="52.8842" height="52.8842" filterUnits="userSpaceOnUse" color-interpolation-filters="sRGB">
<feFlood flood-opacity="0" result="BackgroundImageFix"/>
<feColorMatrix in="SourceAlpha" type="matrix" values="0 0 0 0 0 0 0 0 0 0 0 0 0 0 0 0 0 0 127 0" result="hardAlpha"/>
<feOffset/>
<feGaussianBlur stdDeviation="6.22106"/>
<feComposite in2="hardAlpha" operator="out"/>
<feColorMatrix type="matrix" values="0 0 0 0 0.00392157 0 0 0 0 0.431373 0 0 0 0 0.929412 0 0 0 0.3 0"/>
<feBlend mode="normal" in2="BackgroundImageFix" result="effect1_dropShadow_423_429"/>
<feBlend mode="normal" in="SourceGraphic" in2="effect1_dropShadow_423_429" result="shape"/>
</filter>
<filter id="filter2_f_423_429" x="165.09" y="34.0162" width="30.8178" height="29.3266" filterUnits="userSpaceOnUse" color-interpolation-filters="sRGB">
<feFlood flood-opacity="0" result="BackgroundImageFix"/>
<feBlend mode="normal" in="SourceGraphic" in2="BackgroundImageFix" result="shape"/>
<feGaussianBlur stdDeviation="0.991916" result="effect1_foregroundBlur_423_429"/>
</filter>
<radialGradient id="paint0_radial_423_429" cx="0" cy="0" r="1" gradientUnits="userSpaceOnUse" gradientTransform="translate(112.881 164.753) rotate(-90) scale(12.344 49.9259)">
<stop stop-color="#D9D9D9"/>
<stop offset="1" stop-color="#F5F5F5"/>
</radialGradient>
<linearGradient id="paint1_linear_423_429" x1="180.5" y1="36" x2="180.5" y2="64" gradientUnits="userSpaceOnUse">
<stop stop-color="#016EED"/>
<stop offset="1" stop-color="#B2D5FD"/>
</linearGradient>
<clipPath id="clip0_423_429">
<rect width="291" height="207" fill="white" transform="translate(70 152)"/>
</clipPath>
</defs>
</svg>
