<svg width="29" height="29" viewBox="0 0 29 29" fill="none" xmlns="http://www.w3.org/2000/svg">
<path d="M15.3965 4.76343C15.3965 4.28003 14.9834 3.86694 14.5 3.86694C14.0166 3.86694 13.6123 4.28003 13.6123 4.76343V6.54761C13.6123 7.03101 14.0166 7.4353 14.5 7.4353C14.9834 7.4353 15.3965 7.03101 15.3965 6.54761V4.76343ZM18.9121 8.03296C18.5693 8.37573 18.5693 8.94702 18.9209 9.28979C19.2549 9.63257 19.835 9.63257 20.1777 9.28101L21.4434 8.01538C21.7861 7.6814 21.7861 7.09253 21.4434 6.74976C21.1006 6.41577 20.5293 6.41577 20.1865 6.75854L18.9121 8.03296ZM8.82227 9.28101C9.15625 9.63257 9.73633 9.63257 10.0791 9.28979C10.4219 8.95581 10.4219 8.36694 10.0879 8.03296L8.82227 6.75854C8.48828 6.42456 7.9082 6.41577 7.56543 6.74976C7.22266 7.09253 7.22266 7.6814 7.55664 8.00659L8.82227 9.28101ZM14.5 9.06128C11.9688 9.06128 9.86816 11.1531 9.86816 13.6931C9.86816 16.2332 11.9688 18.325 14.5 18.325C17.0312 18.325 19.123 16.2332 19.123 13.6931C19.123 11.1531 17.0312 9.06128 14.5 9.06128ZM23.4209 14.5896C23.9043 14.5896 24.3086 14.1765 24.3086 13.6931C24.3086 13.2097 23.9043 12.8054 23.4209 12.8054H21.6367C21.1533 12.8054 20.749 13.2097 20.749 13.6931C20.749 14.1765 21.1533 14.5896 21.6367 14.5896H23.4209ZM5.58789 12.8054C5.0957 12.8054 4.69141 13.2097 4.69141 13.6931C4.69141 14.1765 5.0957 14.5896 5.58789 14.5896H7.36328C7.84668 14.5896 8.25977 14.1765 8.25977 13.6931C8.25977 13.2097 7.84668 12.8054 7.36328 12.8054H5.58789ZM20.1689 18.1052C19.8262 17.7625 19.2549 17.7712 18.9121 18.114C18.5693 18.448 18.5693 19.0193 18.9209 19.3708L20.1953 20.6365C20.5293 20.9792 21.1094 20.9705 21.4521 20.6277C21.7861 20.2849 21.7861 19.7136 21.4434 19.3708L20.1689 18.1052ZM7.55664 19.3621C7.21387 19.7048 7.20508 20.2849 7.53906 20.6189C7.88184 20.9617 8.4707 20.9705 8.80469 20.6365L10.0791 19.3708C10.4219 19.0281 10.4219 18.448 10.0879 18.114C9.74512 17.7712 9.16504 17.7712 8.82227 18.1052L7.55664 19.3621ZM15.3965 20.8386C15.3965 20.3552 14.9834 19.9509 14.5 19.9509C14.0166 19.9509 13.6123 20.3552 13.6123 20.8386V22.6228C13.6123 23.1062 14.0166 23.5193 14.5 23.5193C14.9834 23.5193 15.3965 23.1062 15.3965 22.6228V20.8386Z" fill="#39C270"/>
</svg>
