<svg width="28" height="28" viewBox="0 0 28 28" fill="none" xmlns="http://www.w3.org/2000/svg">
<path d="M19.834 7.00016H24.5007C25.145 7.00016 25.6673 7.5225 25.6673 8.16683V8.16683C25.6673 8.81116 25.145 9.3335 24.5007 9.3335H23.334V24.5002C23.334 25.1445 22.8117 25.6668 22.1673 25.6668H5.83398C5.18966 25.6668 4.66732 25.1445 4.66732 24.5002V9.3335H3.50065C2.85632 9.3335 2.33398 8.81116 2.33398 8.16683V8.16683C2.33398 7.5225 2.85632 7.00016 3.50065 7.00016H8.16732V3.50016C8.16732 2.85584 8.68966 2.3335 9.33398 2.3335H18.6673C19.3117 2.3335 19.834 2.85584 19.834 3.50016V7.00016ZM11.6673 12.8335C11.023 12.8335 10.5007 13.3558 10.5007 14.0002V18.6668C10.5007 19.3112 11.023 19.8335 11.6673 19.8335V19.8335C12.3116 19.8335 12.834 19.3112 12.834 18.6668V14.0002C12.834 13.3558 12.3116 12.8335 11.6673 12.8335V12.8335ZM16.334 12.8335C15.6897 12.8335 15.1673 13.3558 15.1673 14.0002V18.6668C15.1673 19.3112 15.6897 19.8335 16.334 19.8335V19.8335C16.9783 19.8335 17.5007 19.3112 17.5007 18.6668V14.0002C17.5007 13.3558 16.9783 12.8335 16.334 12.8335V12.8335ZM10.5007 4.66683V7.00016H17.5007V4.66683H10.5007Z" fill="white"/>
</svg>
