<svg width="28" height="28" viewBox="0 0 28 28" fill="none" xmlns="http://www.w3.org/2000/svg">
<path d="M19.7274 7.94053L20.4987 7.18031C20.8927 6.79188 21.5257 6.79189 21.9197 7.18032C22.3219 7.57674 22.3219 8.22558 21.9197 8.622L21.1692 9.36176C22.4249 10.9091 23.1758 12.8718 23.1758 15.0074C23.1758 20.0026 19.0677 24.0521 14 24.0521C8.93236 24.0521 4.82422 20.0026 4.82422 15.0074C4.82422 10.0121 8.93236 5.96265 14 5.96265C16.1665 5.96265 18.1576 6.70278 19.7274 7.94053ZM9.92187 3.95272C9.92187 3.39769 10.3718 2.94775 10.9268 2.94775H17.0732C17.6282 2.94775 18.0781 3.39769 18.0781 3.95272C18.0781 4.50775 17.6282 4.95769 17.0732 4.95769H10.9268C10.3718 4.95769 9.92187 4.50775 9.92187 3.95272Z" fill="#111111"/>
<path d="M19.6855 11.2059C19.2022 10.3689 18.5072 9.67392 17.6703 9.19072C16.8334 8.70751 15.884 8.45312 14.9176 8.45313L14.9176 13.9586L19.6855 11.2059Z" fill="white"/>
</svg>
