<svg width="25" height="25" viewBox="0 0 25 25" fill="none" xmlns="http://www.w3.org/2000/svg">
<g clip-path="url(#clip0_521_8820)">
<path d="M11.7148 16.1234C8.04548 15.6345 5.21484 12.4926 5.21484 8.68945C5.21484 4.54731 8.5727 1.18945 12.7148 1.18945C16.8569 1.18945 20.2148 4.54731 20.2148 8.68945C20.2148 12.4926 17.3842 15.6345 13.7148 16.1234V18.1895H18.7148V20.1895H13.7148V24.1895H11.7148V20.1895H6.71484V18.1895H11.7148V16.1234ZM12.7148 14.1895C15.7524 14.1895 18.2148 11.7271 18.2148 8.68945C18.2148 5.65188 15.7524 3.18945 12.7148 3.18945C9.67727 3.18945 7.21484 5.65188 7.21484 8.68945C7.21484 11.7271 9.67727 14.1895 12.7148 14.1895Z" fill="#8E8E93"/>
</g>
<defs>
<clipPath id="clip0_521_8820">
<rect width="24" height="24" fill="white" transform="translate(0.714844 0.189453)"/>
</clipPath>
</defs>
</svg>
